<?xml version="1.0" encoding="UTF-8" standalone="no"?>
<!-- Created with Inkscape (http://www.inkscape.org/) -->

<svg
   width="80mm"
   height="77.471962mm"
   viewBox="0 0 80 77.471962"
   version="1.1"
   id="svg5"
   inkscape:version="1.2 (dc2aedaf03, 2022-05-15)"
   sodipodi:docname="nerstars2.svg"
   xmlns:inkscape="http://www.inkscape.org/namespaces/inkscape"
   xmlns:sodipodi="http://sodipodi.sourceforge.net/DTD/sodipodi-0.dtd"
   xmlns:xlink="http://www.w3.org/1999/xlink"
   xmlns="http://www.w3.org/2000/svg"
   xmlns:svg="http://www.w3.org/2000/svg">
  <sodipodi:namedview
     id="namedview7"
     pagecolor="#505050"
     bordercolor="#eeeeee"
     borderopacity="1"
     inkscape:showpageshadow="0"
     inkscape:pageopacity="0"
     inkscape:pagecheckerboard="0"
     inkscape:deskcolor="#505050"
     inkscape:document-units="mm"
     showgrid="false"
     inkscape:zoom="0.914906"
     inkscape:cx="373.80889"
     inkscape:cy="556.88781"
     inkscape:window-width="1444"
     inkscape:window-height="1209"
     inkscape:window-x="761"
     inkscape:window-y="136"
     inkscape:window-maximized="0"
     inkscape:current-layer="layer1" />
  <defs
     id="defs2">
    <linearGradient
       inkscape:collect="always"
       id="linearGradient1853">
      <stop
         style="stop-color:#ffffff;stop-opacity:1;"
         offset="0"
         id="stop1849" />
      <stop
         style="stop-color:#ffffff;stop-opacity:0;"
         offset="1"
         id="stop1851" />
    </linearGradient>
    <radialGradient
       inkscape:collect="always"
       xlink:href="#linearGradient1853"
       id="radialGradient1944-7"
       cx="73.060822"
       cy="71.430779"
       fx="73.060822"
       fy="71.430779"
       r="24.722607"
       gradientTransform="matrix(-0.04184918,1.9306428,-1.8913897,-0.04095955,192.23985,-59.4684)"
       gradientUnits="userSpaceOnUse" />
    <filter
       inkscape:collect="always"
       style="color-interpolation-filters:sRGB"
       id="filter1946-5"
       x="-0.057105801"
       y="-0.059673469"
       width="1.1142116"
       height="1.1193469">
      <feGaussianBlur
         inkscape:collect="always"
         stdDeviation="1.1765035"
         id="feGaussianBlur1948-6" />
    </filter>
  </defs>
  <g
     inkscape:label="Layer 1"
     inkscape:groupmode="layer"
     id="layer1"
     transform="translate(-0.73222926,-1.0204477)">
    <path
       sodipodi:type="star"
       style="fill:#d6d6d6;fill-opacity:1;stroke-width:0.264583"
       id="path1521-3"
       inkscape:flatsided="false"
       sodipodi:sides="5"
       sodipodi:cx="54.078869"
       sodipodi:cy="82.41967"
       sodipodi:r1="42.360432"
       sodipodi:r2="21.180216"
       sodipodi:arg1="0.96007036"
       sodipodi:arg2="1.5883889"
       inkscape:rounded="0.2"
       inkscape:randomized="0"
       d="m 78.370981,117.12269 c -4.609015,3.22631 -19.039558,-13.42711 -24.664707,-13.52608 -5.62515,-0.099 -20.632593,16.0365 -25.125261,12.65005 -4.492668,-3.38645 6.886392,-22.256896 5.242252,-27.637315 -1.644139,-5.380419 -21.627444,-14.667209 -19.79505,-19.986461 1.832394,-5.319251 23.295582,-0.328412 27.904598,-3.554723 4.609015,-3.226311 7.266096,-25.101339 12.891246,-25.002367 5.62515,0.09897 7.51107,22.05393 12.003738,25.440379 4.492668,3.386449 26.118139,-0.846272 27.762279,4.534147 1.644139,5.38042 -18.653486,13.958491 -20.48588,19.277743 -1.832394,5.319252 8.875801,24.578317 4.266785,27.804627 z"
       inkscape:transform-center-x="-0.22806593"
       inkscape:transform-center-y="-3.8254305"
       transform="matrix(0.99040425,0,0,1,-13.043918,-39.045011)" />
    <path
       sodipodi:type="star"
       style="fill:#005fee;fill-opacity:1;stroke-width:0.264583"
       id="path1521-6"
       inkscape:flatsided="false"
       sodipodi:sides="5"
       sodipodi:cx="54.078869"
       sodipodi:cy="82.41967"
       sodipodi:r1="42.360432"
       sodipodi:r2="21.180216"
       sodipodi:arg1="0.96007036"
       sodipodi:arg2="1.5883889"
       inkscape:rounded="0.2"
       inkscape:randomized="0"
       d="m 78.370981,117.12269 c -4.609015,3.22631 -19.039558,-13.42711 -24.664707,-13.52608 -5.62515,-0.099 -20.632593,16.0365 -25.125261,12.65005 -4.492668,-3.38645 6.886392,-22.256896 5.242252,-27.637315 -1.644139,-5.380419 -21.627444,-14.667209 -19.79505,-19.986461 1.832394,-5.319251 23.295582,-0.328412 27.904598,-3.554723 4.609015,-3.226311 7.266096,-25.101339 12.891246,-25.002367 5.62515,0.09897 7.51107,22.05393 12.003738,25.440379 4.492668,3.386449 26.118139,-0.846272 27.762279,4.534147 1.644139,5.38042 -18.653486,13.958491 -20.48588,19.277743 -1.832394,5.319252 8.875801,24.578317 4.266785,27.804627 z"
       inkscape:transform-center-x="-0.22806593"
       inkscape:transform-center-y="-3.8254305"
       transform="matrix(0.99040425,0,0,1,-13.043918,-39.045011)" />
    <path
       sodipodi:type="star"
       style="opacity:0.78327;fill:url(#radialGradient1944-7);fill-opacity:1;stroke-width:0.264583;filter:url(#filter1946-5)"
       id="path1787-2"
       inkscape:flatsided="false"
       sodipodi:sides="5"
       sodipodi:cx="54.368065"
       sodipodi:cy="80.395325"
       sodipodi:r1="25.919395"
       sodipodi:r2="12.959698"
       sodipodi:arg1="0.95184386"
       sodipodi:arg2="1.5801624"
       inkscape:rounded="0.212"
       inkscape:randomized="0"
       d="m 69.406039,101.50633 c -2.972047,2.11707 -11.510532,-8.1177 -15.159354,-8.151876 -3.648821,-0.03418 -12.377516,10.038866 -15.309387,7.866496 -2.93187,-2.172376 4.163439,-13.455677 3.068394,-16.936473 -1.095044,-3.480796 -13.37239,-8.669538 -12.212339,-12.129212 1.160051,-3.459675 14.083678,-0.198367 17.055725,-2.315441 2.972047,-2.117075 4.112925,-15.396934 7.761746,-15.362758 3.648821,0.03418 4.540754,13.333076 7.472624,15.505448 2.931871,2.172373 15.914318,-0.84629 17.009362,2.634506 1.095045,3.480796 -11.277338,8.43866 -12.437389,11.898335 -1.160051,3.459674 5.722664,14.873897 2.750618,16.990975 z"
       inkscape:transform-center-x="-0.075000615"
       inkscape:transform-center-y="-2.4030176"
       transform="translate(-13.804235,-38.184245)" />
  </g>
</svg>
