<?xml version="1.0" encoding="UTF-8" standalone="no"?>
<!DOCTYPE svg PUBLIC "-//W3C//DTD SVG 1.1//EN" "http://www.w3.org/Graphics/SVG/1.1/DTD/svg11.dtd">
<svg width="100%" height="100%" viewBox="0 0 426 308" version="1.1" xmlns="http://www.w3.org/2000/svg" xmlns:xlink="http://www.w3.org/1999/xlink" xml:space="preserve" xmlns:serif="http://www.serif.com/" style="fill-rule:evenodd;clip-rule:evenodd;stroke-linecap:round;stroke-linejoin:round;stroke-miterlimit:1.5;">
    <g transform="matrix(1,0,0,1,-154,-203)">
        <g id="Artboard2" transform="matrix(1,0,0,1,-0.340273,-0.291661)">
            <rect x="154.34" y="203.292" width="425.319" height="307.225" style="fill:none;"/>
            <clipPath id="_clip1">
                <rect x="154.34" y="203.292" width="425.319" height="307.225"/>
            </clipPath>
            <g clip-path="url(#_clip1)">
                <g transform="matrix(2.91198,0,0,2.87385,101.246,-300.363)">
                    <g>
                        <path id="inner-circle" serif:id="inner circle" d="M91.699,204.469C101.53,204.469 109.511,210.156 109.511,217.16C109.511,224.164 101.53,229.85 91.699,229.85C81.869,229.85 73.888,224.164 73.888,217.16C73.888,210.156 81.869,204.469 91.699,204.469ZM78.535,220.16C78.499,219.892 78.48,219.62 78.48,219.346C78.48,214.455 84.437,210.484 91.774,210.484C99.112,210.484 105.069,214.455 105.069,219.346C105.069,220.191 104.891,221.009 104.559,221.784C102.581,225.083 97.656,227.423 91.9,227.423C85.239,227.423 79.691,224.289 78.535,220.16Z" style="fill:rgb(224,224,224);"/>
                        <g transform="matrix(0.343409,0,0,0.347966,-97.3044,159.344)">
                            <path d="M513.465,140.541L591.487,143.927C596.539,148.538 600.058,154.022 601.504,160.001C599.342,167.436 596.936,174.617 592.944,180.218C583.416,193.586 567.647,201.239 552.123,201.466C538.065,201.673 524.252,196.077 512.426,183.356C504.085,174.382 503.344,159.624 502.517,152.079C505.101,147.745 508.841,143.835 513.465,140.541ZM512.041,174.776C511.934,174.004 511.879,173.224 511.879,172.435C511.879,158.379 529.226,146.968 550.593,146.968C571.959,146.968 589.306,158.379 589.306,172.435C589.306,174.865 588.788,177.217 587.82,179.441C582.061,188.923 567.72,195.647 550.96,195.647C531.561,195.647 515.405,186.64 512.041,174.776Z" style="fill:url(#_Linear2);stroke:rgb(128,128,128);stroke-opacity:0;stroke-width:1px;"/>
                        </g>
                        <g transform="matrix(0.343409,0,0,0.347966,-97.3044,159.344)">
                            <path d="M504.809,148.727C513.609,137.384 530.723,129.683 550.374,129.683C575.628,129.683 596.691,142.401 601.302,159.217C577.16,132.304 543.399,129.921 504.809,148.727Z" style="fill:url(#_Linear3);stroke:rgb(128,128,128);stroke-opacity:0;stroke-width:1px;"/>
                        </g>
                    </g>
                    <g>
                        <path d="M91.297,192.586C91.297,192.586 90.888,193.636 90.523,194.573C90.186,195.439 89.388,196.032 88.471,196.098C79.616,196.769 71.828,199.994 66.589,204.717C65.997,205.26 65.193,205.5 64.406,205.369C62.275,205.019 58.208,204.343 58.208,204.343C65.973,197.256 77.903,192.684 91.297,192.586ZM43.747,201.94C54.412,191.049 71.964,183.935 91.793,183.935C92.75,183.935 93.701,183.952 94.646,183.984L93.641,186.565C93.012,186.548 92.38,186.539 91.746,186.539C74.326,186.539 59.073,193.184 50.733,203.101L43.747,201.94ZM30.192,199.687C43.28,185.043 65.938,175.356 91.675,175.356C93.782,175.356 95.869,175.421 97.931,175.549L96.997,177.947C95.233,177.842 93.449,177.788 91.647,177.788C68.033,177.788 47.406,187.022 36.42,200.722L30.192,199.687Z" style="fill:rgb(192,192,192);stroke:rgb(128,128,128);stroke-opacity:0;stroke-width:0.35px;"/>
                        <g transform="matrix(0.343409,0,0,0.347966,-97.3044,159.344)">
                            <path d="M485.229,108.741C503.875,100.511 525.77,95.7 549.202,95.531C549.202,95.531 548.011,98.55 546.949,101.242C545.967,103.731 543.643,105.435 540.975,105.624C532.434,106.263 524.235,107.706 516.53,109.846C504.566,109.614 495.145,109.162 485.286,108.747L485.229,108.741ZM436.8,101.618C467.08,82.37 506.967,70.67 550.648,70.67C553.433,70.67 556.203,70.718 558.955,70.812L556.028,78.229C554.197,78.179 552.357,78.153 550.509,78.153C513.399,78.153 479.665,88.375 454.719,105.023C448.499,104.084 442.362,102.947 436.8,101.618ZM400.69,90.076C439.237,62.828 492.063,46.016 550.303,46.016C556.44,46.016 562.516,46.203 568.52,46.569L565.8,53.462C560.666,53.159 555.469,53.004 550.223,53.004C496.422,53.004 447.945,69.25 414.07,95.18C409.358,93.64 404.857,91.901 400.69,90.076Z" style="fill:url(#_Linear4);stroke:rgb(128,128,128);stroke-opacity:0;stroke-width:1px;"/>
                        </g>
                    </g>
                    <g>
                        <path d="M112.948,177.644C140.176,183.66 160.725,200.92 164.409,221.994L155.164,220.458C153.498,201.72 136.014,186.044 112.191,180.22L112.948,177.644ZM110.456,186.125C130.86,191.066 146.297,203.883 149.863,219.577L139.348,217.829C137.921,204.735 126.026,193.716 109.611,188.999L110.456,186.125ZM107.884,194.874C120.712,198.674 130.44,206.861 133.524,216.861C133.524,216.861 128.099,215.959 125.348,215.502C124.415,215.347 123.649,214.673 123.366,213.759C121.363,207.529 115.782,202.266 108.25,199.116C107.436,198.78 107.006,197.872 107.257,197.018C107.551,196.009 107.884,194.874 107.884,194.874Z" style="fill:url(#_Linear5);stroke:rgb(128,128,128);stroke-opacity:0;stroke-width:0.35px;"/>
                        <g transform="matrix(0.343409,0,0,0.347966,-97.3044,159.344)">
                            <path d="M636.672,144.046C628.647,131.582 615.252,121.184 598.569,114.299C596.198,113.333 594.947,110.724 595.678,108.27C596.534,105.37 597.505,102.107 597.505,102.107C624.027,109.861 645.998,123.97 659.724,141.786C653.118,143.564 646.012,144.916 636.672,144.046ZM673.223,129.83C657.917,109.733 632.877,93.829 602.533,85.223L604.992,76.964C640.725,85.503 671.227,102.23 692.128,124.021C685.86,126.212 679.554,128.117 673.223,129.83ZM700.389,107.274C678.12,85.543 646.653,68.826 610.045,59.993L612.249,52.592C653.669,61.624 689.781,79.474 716.351,103.093C711.186,104.804 706.176,106.16 700.389,107.274Z" style="fill:url(#_Linear6);stroke:rgb(128,128,128);stroke-opacity:0;stroke-width:1px;"/>
                        </g>
                    </g>
                    <g>
                        <path d="M22.316,211.437L29.748,212.744C28.605,216.161 28,219.727 28,223.394C28,241.293 42.422,256.798 63.388,264.262L58.614,276.523C34.736,267.708 18.35,249.642 18.35,228.808C18.35,222.728 19.746,216.883 22.316,211.437ZM35.63,213.778L44.544,215.345C44.186,217.019 44,218.733 44,220.478C44,233.312 54.043,244.492 68.841,250.259L63.531,263.896C45.307,256.654 32.942,242.629 32.942,226.531C32.942,222.089 33.884,217.805 35.63,213.778ZM50.122,216.326C50.122,216.326 56.383,217.427 58.775,217.847C59.289,217.938 59.664,218.39 59.664,218.918C59.665,218.918 59.665,218.919 59.665,218.919C59.665,225.957 64.127,232.259 71.147,236.471C72.572,237.322 73.174,239.096 72.567,240.654C71.182,244.247 68.946,249.989 68.946,249.989C56.917,244.485 48.918,234.751 48.918,223.672C48.918,221.142 49.335,218.681 50.122,216.326Z" style="fill:url(#_Linear7);stroke:rgb(128,128,128);stroke-opacity:0;stroke-width:0.35px;"/>
                        <g transform="matrix(0.343409,0,0,0.347966,-97.3044,159.344)">
                            <path d="M339.165,222.627C337.595,215.12 336.783,207.442 336.783,199.628C336.783,182.154 340.847,165.358 348.33,149.708L369.974,153.463C366.646,163.283 364.883,173.532 364.883,184.069C364.883,190.818 365.606,197.448 367.001,203.925C357.684,209.403 348.403,215.596 339.165,222.627ZM379.365,197.076C379.305,195.753 379.275,194.421 379.275,193.084C379.275,180.319 382.016,168.007 387.102,156.435L413.058,160.938C412.016,165.748 411.475,170.675 411.475,175.69C411.475,178.04 411.594,180.37 411.827,182.678C400.969,186.724 390.144,191.46 379.365,197.076ZM426.189,177.721C426.717,172.951 427.769,168.287 429.303,163.757C429.303,163.757 447.533,166.92 454.501,168.129C455.37,168.28 456.103,168.782 456.565,169.474C446.418,171.8 436.289,174.499 426.189,177.721Z" style="fill:url(#_Linear8);stroke:rgb(128,128,128);stroke-opacity:0;stroke-width:1px;"/>
                        </g>
                        <g transform="matrix(0.343409,0,0,0.347966,-97.3044,159.344)">
                            <path d="M454.64,241.994C436.633,226.505 425.795,206.586 425.795,184.869C425.795,177.596 427.01,170.526 429.303,163.757C429.303,163.757 447.533,166.92 454.501,168.129C455.997,168.389 457.09,169.688 457.09,171.207C457.091,171.207 457.091,171.208 457.091,171.208C457.091,191.435 470.085,209.547 490.528,221.651C494.676,224.095 496.43,229.194 494.663,233.673C493.703,236.129 492.603,238.935 491.484,241.785C480.871,242.753 468.627,242.843 454.64,241.994ZM388.798,233.393C382.629,220.769 379.275,207.204 379.275,193.084C379.275,180.319 382.016,168.007 387.102,156.435L413.058,160.938C412.016,165.748 411.475,170.675 411.475,175.69C411.475,201.054 425.306,224.17 447.963,241.528C430.767,240.176 411.106,237.497 388.798,233.393Z" style="fill:url(#_Linear9);stroke:rgb(128,128,128);stroke-opacity:0;stroke-width:1px;"/>
                        </g>
                    </g>
                    <g>
                        <path d="M120.19,230.001C120.743,229.269 121.652,228.91 122.549,229.067C125.826,229.635 133.37,230.961 133.37,230.961C130.217,240.477 121.028,248.294 108.912,252.155C121.978,248.57 132.276,241.017 136.875,231.578L149.778,233.846C145.947,249.845 129.762,262.798 108.603,267.361C130.603,263.009 147.842,250.396 153.397,234.482L164.265,236.393C159.207,262.307 128.612,282.26 91.675,282.26C88.51,282.26 85.391,282.113 82.331,281.829C82.331,281.829 91.017,252.272 93.457,243.969C93.832,242.695 94.935,241.782 96.241,241.664C106.566,240.687 115.352,236.226 120.19,230.001Z" style="fill:url(#_Linear10);stroke:rgb(128,128,128);stroke-opacity:0;stroke-width:0.35px;"/>
                        <g transform="matrix(0.343409,0,0,0.347966,-97.3044,159.344)">
                            <path d="M552.038,254.802L555.493,243.198C556.584,239.537 559.797,236.913 563.601,236.574C593.666,233.768 619.252,220.947 633.338,203.057C634.95,200.954 637.597,199.92 640.207,200.373C649.752,202.005 671.719,205.817 671.719,205.817C667.487,218.423 659.518,229.993 648.702,239.888C618.883,248.64 585.953,253.366 552.038,254.802Z" style="fill:url(#_Linear11);stroke:rgb(128,128,128);stroke-opacity:0;stroke-width:1px;"/>
                        </g>
                        <g transform="matrix(0.343409,0,0,0.347966,-97.3044,159.344)">
                            <path d="M616.352,261.601C646.809,250.08 670.454,230.822 681.925,207.588L719.499,214.107C719.35,214.723 719.194,215.338 719.029,215.956C708.414,248.907 672.428,268.792 619.236,278.776L616.352,261.601Z" style="fill:url(#_Linear12);stroke:rgb(128,128,128);stroke-opacity:0;stroke-width:1px;"/>
                        </g>
                        <g transform="matrix(0.343409,0,0,0.347966,-97.3044,159.344)">
                            <path d="M687.026,272.458C707.438,256.672 722.465,237.343 730.036,215.935L761.684,221.426C761.447,222.625 761.191,223.82 760.914,225.015C748.649,244.361 721.382,261.852 687.026,272.458Z" style="fill:url(#_Linear13);stroke:rgb(128,128,128);stroke-opacity:0;stroke-width:1px;"/>
                        </g>
                    </g>
                </g>
            </g>
        </g>
    </g>
    <defs>
        <linearGradient id="_Linear2" x1="0" y1="0" x2="1" y2="0" gradientUnits="userSpaceOnUse" gradientTransform="matrix(3.61451e-15,59.0294,-36.3352,2.22489e-15,549.202,140.599)"><stop offset="0" style="stop-color:white;stop-opacity:0"/><stop offset="1" style="stop-color:white;stop-opacity:0.44"/></linearGradient>
        <linearGradient id="_Linear3" x1="0" y1="0" x2="1" y2="0" gradientUnits="userSpaceOnUse" gradientTransform="matrix(6.64864e-16,10.8581,-3.32342,2.03501e-16,550.374,129.683)"><stop offset="0" style="stop-color:white;stop-opacity:0"/><stop offset="1" style="stop-color:white;stop-opacity:0.2"/></linearGradient>
        <linearGradient id="_Linear4" x1="0" y1="0" x2="1" y2="0" gradientUnits="userSpaceOnUse" gradientTransform="matrix(72.4216,-54.682,54.682,72.4216,444.794,107.274)"><stop offset="0" style="stop-color:white;stop-opacity:0.45"/><stop offset="1" style="stop-color:white;stop-opacity:0"/></linearGradient>
        <linearGradient id="_Linear5" x1="0" y1="0" x2="1" y2="0" gradientUnits="userSpaceOnUse" gradientTransform="matrix(-33.9645,-18.6312,13.9712,-26.1497,164.409,220.849)"><stop offset="0" style="stop-color:rgb(20,138,249);stop-opacity:1"/><stop offset="1" style="stop-color:rgb(4,105,246);stop-opacity:1"/></linearGradient>
        <linearGradient id="_Linear6" x1="0" y1="0" x2="1" y2="0" gradientUnits="userSpaceOnUse" gradientTransform="matrix(24.8236,26.427,-20.0529,18.8362,622.507,107.274)"><stop offset="0" style="stop-color:white;stop-opacity:0"/><stop offset="1" style="stop-color:white;stop-opacity:0.15"/></linearGradient>
        <linearGradient id="_Linear7" x1="0" y1="0" x2="1" y2="0" gradientUnits="userSpaceOnUse" gradientTransform="matrix(-35.3314,-65.086,74.5765,-41.5648,58.1678,276.523)"><stop offset="0" style="stop-color:rgb(21,119,247);stop-opacity:1"/><stop offset="1" style="stop-color:rgb(9,87,240);stop-opacity:1"/></linearGradient>
        <linearGradient id="_Linear8" x1="0" y1="0" x2="1" y2="0" gradientUnits="userSpaceOnUse" gradientTransform="matrix(-48.9799,-29.7328,29.7328,-48.9799,402.358,186.168)"><stop offset="0" style="stop-color:white;stop-opacity:0.07"/><stop offset="1" style="stop-color:white;stop-opacity:0"/></linearGradient>
        <linearGradient id="_Linear9" x1="0" y1="0" x2="1" y2="0" gradientUnits="userSpaceOnUse" gradientTransform="matrix(-15.478,-71.9733,53.4136,-11.4867,431.543,235.73)"><stop offset="0" style="stop-color:white;stop-opacity:0.1"/><stop offset="1" style="stop-color:white;stop-opacity:0"/></linearGradient>
        <linearGradient id="_Linear10" x1="0" y1="0" x2="1" y2="0" gradientUnits="userSpaceOnUse" gradientTransform="matrix(66.3451,-43.9713,27.9452,43.2909,82.4941,281.943)"><stop offset="0" style="stop-color:rgb(198,198,198);stop-opacity:1"/><stop offset="1" style="stop-color:rgb(211,211,211);stop-opacity:1"/></linearGradient>
        <linearGradient id="_Linear11" x1="0" y1="0" x2="1" y2="0" gradientUnits="userSpaceOnUse" gradientTransform="matrix(-96.1409,28.0383,-12.7758,-43.8072,670.578,217.655)"><stop offset="0" style="stop-color:rgb(233,233,233);stop-opacity:1"/><stop offset="1" style="stop-color:rgb(232,232,232);stop-opacity:0"/></linearGradient>
        <linearGradient id="_Linear12" x1="0" y1="0" x2="1" y2="0" gradientUnits="userSpaceOnUse" gradientTransform="matrix(-93.005,-0.649652,0.448364,-64.1884,717.791,228.185)"><stop offset="0" style="stop-color:rgb(223,223,223);stop-opacity:1"/><stop offset="1" style="stop-color:rgb(223,223,223);stop-opacity:0"/></linearGradient>
        <linearGradient id="_Linear13" x1="0" y1="0" x2="1" y2="0" gradientUnits="userSpaceOnUse" gradientTransform="matrix(-74.6578,49.1869,-37.239,-56.5228,761.684,223.271)"><stop offset="0" style="stop-color:rgb(221,221,221);stop-opacity:1"/><stop offset="1" style="stop-color:rgb(212,212,212);stop-opacity:0.41"/></linearGradient>
    </defs>
</svg>
