<?xml version="1.0" encoding="UTF-8" standalone="no"?>
<!DOCTYPE svg PUBLIC "-//W3C//DTD SVG 1.1//EN" "http://www.w3.org/Graphics/SVG/1.1/DTD/svg11.dtd">
<svg width="100%" height="100%" viewBox="0 0 741 107" version="1.1" xmlns="http://www.w3.org/2000/svg" xmlns:xlink="http://www.w3.org/1999/xlink" xml:space="preserve" xmlns:serif="http://www.serif.com/" style="fill-rule:evenodd;clip-rule:evenodd;stroke-linecap:round;stroke-linejoin:round;stroke-miterlimit:1.5;">
    <g id="Artboard1" transform="matrix(1,0,0,1,-33.3946,-67.7332)">
        <rect x="33.395" y="67.733" width="740.437" height="106.904" style="fill:none;"/>
        <clipPath id="_clip1">
            <rect x="33.395" y="67.733" width="740.437" height="106.904"/>
        </clipPath>
        <g clip-path="url(#_clip1)">
            <g transform="matrix(1,0,0,1,15.4393,-106.89)">
                <path id="inner-circle" serif:id="inner circle" d="M91.699,204.469C101.53,204.469 109.511,210.156 109.511,217.16C109.511,224.164 101.53,229.85 91.699,229.85C81.869,229.85 73.888,224.164 73.888,217.16C73.888,210.156 81.869,204.469 91.699,204.469ZM78.535,220.16C78.499,219.892 78.48,219.62 78.48,219.346C78.48,214.455 84.437,210.484 91.774,210.484C99.112,210.484 105.069,214.455 105.069,219.346C105.069,220.191 104.891,221.009 104.559,221.784C102.581,225.083 97.656,227.423 91.9,227.423C85.239,227.423 79.691,224.289 78.535,220.16Z" style="fill:rgb(232,233,234);"/>
                <path d="M91.297,192.586C91.297,192.586 90.781,193.91 90.392,194.911C90.132,195.575 89.512,196.029 88.8,196.075C79.659,196.699 71.628,200.045 66.325,204.958C65.912,205.349 65.34,205.524 64.779,205.431C62.797,205.106 58.208,204.343 58.208,204.343C65.973,197.256 77.903,192.684 91.297,192.586ZM43.747,201.94C54.412,191.049 71.964,183.935 91.793,183.935C92.75,183.935 93.701,183.952 94.646,183.984L93.641,186.565C93.012,186.548 92.38,186.539 91.746,186.539C74.326,186.539 59.073,193.184 50.733,203.101L43.747,201.94ZM30.192,199.687C43.28,185.043 65.938,175.356 91.675,175.356C93.782,175.356 95.869,175.421 97.931,175.549L96.997,177.947C95.233,177.842 93.449,177.788 91.647,177.788C68.033,177.788 47.406,187.022 36.42,200.722L30.192,199.687Z" style="fill:rgb(232,233,234);stroke:rgb(128,128,128);stroke-opacity:0;stroke-width:1px;"/>
                <path d="M112.948,177.644C140.176,183.66 160.725,200.92 164.409,221.994L155.164,220.458C153.498,201.72 136.014,186.044 112.191,180.22L112.948,177.644ZM110.456,186.125C130.86,191.066 146.297,203.883 149.863,219.577L139.348,217.829C137.921,204.735 126.026,193.716 109.611,188.999L110.456,186.125ZM107.884,194.874C120.712,198.674 130.44,206.861 133.524,216.861C133.524,216.861 127.754,215.902 125.097,215.46C124.298,215.327 123.647,214.745 123.426,213.965C121.499,207.69 115.945,202.377 108.413,199.185C107.508,198.808 107.032,197.81 107.308,196.87C107.583,195.9 107.884,194.874 107.884,194.874Z" style="fill:rgb(65,127,194);stroke:rgb(128,128,128);stroke-opacity:0;stroke-width:1px;"/>
                <path d="M22.316,211.437L29.748,212.744C28.605,216.161 28,219.727 28,223.394C28,241.293 42.422,256.798 63.388,264.262L58.614,276.523C34.736,267.708 18.35,249.642 18.35,228.808C18.35,222.728 19.746,216.883 22.316,211.437ZM35.63,213.778L44.544,215.345C44.186,217.019 44,218.733 44,220.478C44,233.312 54.043,244.492 68.841,250.259L63.531,263.896C45.307,256.654 32.942,242.629 32.942,226.531C32.942,222.089 33.884,217.805 35.63,213.778ZM50.122,216.326C50.122,216.326 56.362,217.423 58.764,217.845C59.284,217.937 59.664,218.39 59.664,218.919C59.665,218.919 59.665,218.919 59.665,218.919C59.665,225.902 64.057,232.16 70.982,236.372C72.503,237.293 73.142,239.174 72.497,240.831C71.109,244.433 68.946,249.989 68.946,249.989C56.917,244.485 48.918,234.751 48.918,223.672C48.918,221.142 49.335,218.681 50.122,216.326Z" style="fill:rgb(65,127,194);stroke:rgb(128,128,128);stroke-opacity:0;stroke-width:1px;"/>
                <path d="M119.563,230.772C120.55,229.577 122.103,229.005 123.629,229.273C127.242,229.884 133.37,230.961 133.37,230.961C130.217,240.477 121.028,248.294 108.912,252.155C121.978,248.57 132.276,241.017 136.875,231.578L149.778,233.846C145.947,249.845 129.762,262.798 108.603,267.361C130.603,263.009 147.842,250.396 153.397,234.482L164.265,236.393C159.207,262.307 128.612,282.26 91.675,282.26C88.51,282.26 85.391,282.113 82.331,281.829C82.331,281.829 90.509,254.002 93.224,244.763C93.734,243.029 95.237,241.771 97.035,241.576C106.588,240.505 114.748,236.437 119.563,230.772Z" style="fill:rgb(232,233,234);stroke:rgb(128,128,128);stroke-opacity:0;stroke-width:1px;"/>
            </g>
            <g id="tftv-words" serif:id="tftv words" transform="matrix(1,0,0,1,15.7134,-106.958)">
                <g transform="matrix(1,0,0,1,0,-0.0319024)">
                    <path d="M664.823,214.827L675.829,214.827C676.167,215.449 679.374,193.751 658.269,193.704C644.174,193.673 640.93,205.107 641.165,212.448C641.378,219.152 643.376,224.287 647.439,227.887C648.814,229.106 652.94,231.772 654.359,232.583C661.75,236.81 664.535,241.076 664.069,246.303C663.531,252.338 661.564,253.191 658.269,253.204C654.049,253.222 652.224,250.975 652.205,246.303C652.194,243.73 652.205,240.733 652.205,240.733L641.165,240.733L641.165,246.303C641.165,251.299 642.16,264.112 658.269,264.112C672.563,264.112 675.9,254.869 675.829,245.52C675.8,241.725 676.159,232.353 664.069,225.837C657.884,222.503 652.944,218.434 653.304,211.64C653.51,207.755 654.28,204.465 658.757,204.465C665.967,204.465 664.823,214.827 664.823,214.827ZM624.972,214.827L635.978,214.827C636.316,215.449 639.523,193.751 618.418,193.704C604.323,193.673 601.079,205.107 601.313,212.448C601.527,219.152 603.525,224.287 607.588,227.887C608.963,229.106 613.089,231.772 614.508,232.583C621.899,236.81 624.684,241.076 624.218,246.303C623.68,252.338 621.713,253.191 618.418,253.204C614.198,253.222 612.373,250.975 612.354,246.303C612.343,243.73 612.354,240.733 612.354,240.733L601.313,240.733L601.313,246.303C601.313,251.299 602.309,264.112 618.418,264.112C632.712,264.112 636.049,254.869 635.978,245.52C635.949,241.725 636.308,232.353 624.218,225.837C618.033,222.503 613.093,218.434 613.453,211.64C613.659,207.755 614.429,204.465 618.906,204.465C626.116,204.465 624.972,214.827 624.972,214.827ZM327.827,241.764L335.768,194.404L341.147,194.404L341.147,194.314L352.452,194.314L352.452,263.349L341.147,263.349L341.147,222.007L333.104,263.438L324.193,263.438L324.208,263.349L321.731,263.349L313.294,222.485L313.294,263.349L302.793,263.349L302.793,194.314L319.275,194.314L327.827,241.764ZM539.082,194.315C549.303,194.222 555.919,198.777 556.038,211.734L556.038,216.562C556.038,219.12 555.73,226.244 548.477,229.565C553.182,231.939 555.961,236.8 556.038,245.156L556.038,247.609C556.038,263.316 556.886,261.225 557.202,263.35L545.109,263.35C544.619,261.174 543.91,263.351 543.91,247.609L543.913,247.609C543.913,247.609 543.913,247.609 543.913,242.536C543.913,239.347 541.832,236.195 539.082,236.195L532.609,236.195L532.609,263.35L520.517,263.35L520.517,194.315L539.082,194.315ZM458.166,194.314C468.387,194.221 475.004,198.775 475.122,211.732L475.122,216.56C475.122,219.119 474.815,226.243 467.561,229.563C472.267,231.937 475.046,236.799 475.122,245.155L475.122,247.608C475.122,263.314 475.97,261.224 476.286,263.349L464.194,263.349C463.703,261.172 462.995,263.349 462.995,247.608L462.998,247.608C462.998,247.608 462.997,247.608 462.997,242.535C462.997,239.345 460.917,236.194 458.166,236.194L451.694,236.194L451.694,263.349L439.601,263.349L439.601,194.314L458.166,194.314ZM432.362,210.314L432.362,247.349C432.362,254.281 427.739,263.349 418.12,263.349L410.661,263.349C401.041,263.349 396.418,254.281 396.418,247.349L396.418,210.314C396.418,203.382 401.041,194.314 410.661,194.314L418.12,194.314C427.739,194.314 432.362,203.382 432.362,210.314ZM491.359,205.372L479.126,205.372L479.126,194.314L515.543,194.314L515.543,205.372L503.452,205.372L503.452,263.349L491.359,263.349L491.359,205.372ZM563.454,263.349L563.454,194.314L595.917,194.314L595.917,205.372L575.546,205.372L575.546,222.971L591.662,222.971L591.662,234.029L575.546,234.029L575.546,252.291L595.917,252.291L595.917,263.349L563.454,263.349ZM190.909,205.372L178.676,205.372L178.676,194.314L252.544,194.314L252.544,205.372L203.002,205.372L203.002,263.349L190.909,263.349L190.909,205.372ZM220.14,263.349L220.14,216.305L232.233,208.345L232.233,222.783L248.362,222.783L248.362,233.841L232.233,233.841L232.233,252.291L252.459,252.291L252.459,263.349L220.14,263.349ZM372.789,224.689L389.664,224.689L384.629,235.704L372.789,235.704L372.789,263.349L360.696,263.349L360.696,216.305L372.789,208.345L372.789,224.689ZM285.891,194.314L297.854,263.349L285.196,263.349L283.02,249.729L270.057,249.729L267.881,263.349L256.223,263.349L268.186,194.314L285.891,194.314ZM408.511,247.386C408.532,250.607 411.158,253.216 414.39,253.216C417.635,253.216 420.269,250.586 420.269,247.348C420.269,247.348 420.269,210.315 420.269,210.315C420.269,207.076 417.635,204.447 414.39,204.447C411.145,204.447 408.511,207.076 408.511,210.315L408.511,247.348L408.511,247.386ZM276.538,209.166L271.728,239.271L281.349,239.271L276.538,209.166ZM539.082,205.436L532.609,205.436L532.609,224.755L539.114,224.755C541.848,224.738 543.913,222.499 543.913,219.759L543.913,210.431C543.913,207.681 541.832,205.451 539.082,205.451L539.082,205.436ZM458.166,205.434L451.694,205.434L451.694,224.754L458.198,224.754C460.933,224.736 462.998,222.498 462.998,219.758L462.998,210.43C462.998,207.679 460.917,205.45 458.166,205.45L458.166,205.434ZM394.022,194.245L360.696,194.245L360.696,205.261L388.987,205.261L394.022,194.245Z" style="fill:url(#_Linear2);"/>
                </g>
                <path d="M729.651,194.314L738.452,247.386L747.252,194.314L758.513,194.314L746.813,263.337L741.098,263.343L741.098,263.349L738.336,263.346L735.805,263.349L735.806,263.343L729.08,263.337L719.255,205.372L703.554,205.372L703.554,263.37L691.461,263.37L691.461,205.372L679.324,205.372L679.324,194.314L729.651,194.314Z" style="fill:url(#_Linear3);"/>
            </g>
        </g>
    </g>
    <defs>
        <linearGradient id="_Linear2" x1="0" y1="0" x2="1" y2="0" gradientUnits="userSpaceOnUse" gradientTransform="matrix(4.22714e-15,-69.0345,9.7696,5.98216e-16,439.601,263.349)"><stop offset="0" style="stop-color:rgb(229,231,232);stop-opacity:1"/><stop offset="1" style="stop-color:rgb(199,199,199);stop-opacity:1"/></linearGradient>
        <linearGradient id="_Linear3" x1="0" y1="0" x2="1" y2="0" gradientUnits="userSpaceOnUse" gradientTransform="matrix(4.22714e-15,-69.0345,60.2003,3.6862e-15,718.918,263.349)"><stop offset="0" style="stop-color:rgb(65,126,191);stop-opacity:0.77"/><stop offset="1" style="stop-color:rgb(9,77,138);stop-opacity:0.77"/></linearGradient>
    </defs>
</svg>
