<?xml version="1.0" encoding="UTF-8" standalone="no"?>
<!-- Created with Inkscape (http://www.inkscape.org/) -->

<svg
   version="1.1"
   id="svg17212"
   width="64"
   height="64"
   viewBox="0 0 64 64"
   sodipodi:docname="tf2.svg"
   inkscape:version="1.2 (dc2aedaf03, 2022-05-15)"
   xmlns:inkscape="http://www.inkscape.org/namespaces/inkscape"
   xmlns:sodipodi="http://sodipodi.sourceforge.net/DTD/sodipodi-0.dtd"
   xmlns="http://www.w3.org/2000/svg"
   xmlns:svg="http://www.w3.org/2000/svg">
  <defs
     id="defs17216" />
  <sodipodi:namedview
     id="namedview17214"
     pagecolor="#ffffff"
     bordercolor="#000000"
     borderopacity="0.25"
     inkscape:showpageshadow="2"
     inkscape:pageopacity="0.0"
     inkscape:pagecheckerboard="0"
     inkscape:deskcolor="#d1d1d1"
     showgrid="false"
     inkscape:zoom="9.7809524"
     inkscape:cx="47.234664"
     inkscape:cy="39.157741"
     inkscape:window-width="2496"
     inkscape:window-height="1411"
     inkscape:window-x="0"
     inkscape:window-y="0"
     inkscape:window-maximized="1"
     inkscape:current-layer="g17218" />
  <g
     inkscape:groupmode="layer"
     inkscape:label="Image"
     id="g17218">
    <path
       style="fill:#a35826;fill-opacity:1;stroke:none;stroke-width:0.505118;stroke-dasharray:none;stroke-opacity:1"
       d="m 32.012134,61.33629 c -0.546943,-0.204608 -0.883967,-0.688648 -0.883403,-1.268761 1.72e-4,-0.199128 0.187577,-1.688279 0.416413,-3.309222 0.228833,-1.620943 0.758765,-5.410163 1.177624,-8.420485 0.418862,-3.010324 0.800073,-5.611898 0.847136,-5.781276 0.135936,-0.489221 0.53719,-0.774136 1.392476,-0.988743 2.811686,-0.705508 5.22059,-2.567551 6.677116,-5.161304 0.316911,-0.56435 0.688064,-0.825714 1.172567,-0.825714 0.18883,0 3.309066,0.417704 6.933859,0.928233 10.843292,1.527208 10.679311,1.502323 10.959671,1.663124 0.143029,0.08203 0.347708,0.318802 0.454843,0.526149 0.247857,0.479699 0.218556,0.719523 -0.262097,2.145298 -1.480876,4.392766 -3.727307,8.10254 -6.876486,11.355895 -5.479932,5.661208 -12.73657,8.907585 -20.536792,9.187475 -0.801031,0.02875 -1.307197,0.01133 -1.472927,-0.05067 z M 23.427081,60.009965 C 19.632958,58.812086 16.046144,56.810669 12.99035,54.186344 11.925472,53.271822 10.008531,51.286342 9.1322801,50.190328 7.6741913,48.366552 6.5203647,46.520185 5.4557424,44.307088 3.7969242,40.858799 2.8652633,37.334649 2.5872507,33.456584 2.4286864,31.244731 2.5041257,30.791999 3.1059066,30.344032 3.5411123,30.020064 3.6501795,30.02695 8.1928202,30.66515 c 2.4071818,0.338188 6.2893928,0.881905 8.6271378,1.20826 2.337742,0.326356 4.388961,0.631379 4.558263,0.677831 0.444611,0.121985 0.793449,0.560447 0.91566,1.150919 0.521263,2.518505 2.225828,4.980021 4.452494,6.429732 0.488986,0.318362 0.977299,0.641197 1.085142,0.71741 0.276766,0.195594 0.518659,0.623715 0.51903,0.91862 1.71e-4,0.137882 -0.55167,4.173399 -1.226319,8.967817 -1.350426,9.596849 -1.25726,9.139111 -1.921601,9.440959 -0.469817,0.213462 -0.614301,0.199894 -1.775546,-0.166733 z M 57.809376,32.386033 c -2.713063,-0.392274 -4.795474,-0.687305 -11.303887,-1.601504 -1.657381,-0.232803 -3.077703,-0.457953 -3.15627,-0.500335 -0.363061,-0.195844 -0.55006,-0.530932 -0.789412,-1.41456 -0.748456,-2.763117 -2.426676,-4.987015 -4.851409,-6.428852 -0.338951,-0.201553 -0.73208,-0.498415 -0.87362,-0.659691 -0.252942,-0.288215 -0.25651,-0.304853 -0.208551,-0.972564 0.02684,-0.373634 0.578899,-4.423673 1.226809,-9.000089 1.238679,-8.7492481 1.21864,-8.6433203 1.703487,-9.00485 0.438448,-0.3269301 0.835528,-0.2900416 2.360403,0.2192799 4.382859,1.4639129 8.041731,3.7015801 11.378617,6.9588537 2.413695,2.3561114 4.187816,4.7262174 5.691833,7.6039084 2.090107,3.999079 3.22483,8.248426 3.411218,12.774455 0.05178,1.257294 0.04655,1.318894 -0.142512,1.679167 -0.275733,0.525427 -0.556021,0.705112 -1.142013,0.73211 -0.2668,0.01229 -1.753912,-0.161105 -3.304693,-0.385329 z M 20.649565,27.158669 C 20.094061,27.076618 16.236099,26.530692 12.076314,25.945507 7.6513516,25.323018 4.4148856,24.830738 4.2764439,24.759115 3.9428473,24.586528 3.6741864,24.17374 3.6283659,23.763363 3.5982079,23.493265 3.6947452,23.095446 4.0504997,22.023804 4.7378636,19.953244 5.5607738,18.114351 6.5619466,16.411663 11.795615,7.5107985 21.057156,1.9399021 31.341929,1.5062913 c 1.455125,-0.061349 1.749555,-9.398e-4 2.134773,0.437995 0.379044,0.4319018 0.395316,0.7170239 0.143525,2.5149074 -1.86381,13.3082423 -2.242184,15.8943653 -2.35839,16.1191853 -0.196703,0.38055 -0.517631,0.563522 -1.353883,0.771889 -1.900008,0.473425 -3.859415,1.63975 -5.13629,3.057345 -0.410055,0.455247 -1.053593,1.365551 -1.597083,2.259126 -0.09259,0.15222 -0.297032,0.363436 -0.454325,0.469367 -0.342944,0.230959 -0.638073,0.234175 -2.070691,0.02256 z"
       id="path17702" />
  </g>
</svg>
