<?xml version="1.0" encoding="UTF-8" standalone="no"?>
<!-- Created with Inkscape (http://www.inkscape.org/) -->

<svg
   version="1.1"
   id="svg106100"
   width="64"
   height="64"
   viewBox="0 0 64 64"
   sodipodi:docname="engineer.svg"
   inkscape:version="1.2.1 (9c6d41e410, 2022-07-14)"
   xmlns:inkscape="http://www.inkscape.org/namespaces/inkscape"
   xmlns:sodipodi="http://sodipodi.sourceforge.net/DTD/sodipodi-0.dtd"
   xmlns="http://www.w3.org/2000/svg"
   xmlns:svg="http://www.w3.org/2000/svg">
  <defs
     id="defs106104">
    <inkscape:path-effect
       effect="bspline"
       id="path-effect1431"
       is_visible="true"
       lpeversion="1"
       weight="33.333333"
       steps="2"
       helper_size="0"
       apply_no_weight="true"
       apply_with_weight="true"
       only_selected="false" />
    <inkscape:path-effect
       effect="bspline"
       id="path-effect1425"
       is_visible="true"
       lpeversion="1"
       weight="33.333333"
       steps="2"
       helper_size="0"
       apply_no_weight="true"
       apply_with_weight="true"
       only_selected="false" />
    <inkscape:path-effect
       effect="bspline"
       id="path-effect1131"
       is_visible="true"
       lpeversion="1"
       weight="33.333333"
       steps="2"
       helper_size="0"
       apply_no_weight="true"
       apply_with_weight="true"
       only_selected="false" />
    <filter
       inkscape:collect="always"
       style="color-interpolation-filters:sRGB"
       id="filter1002"
       x="-0.10430351"
       y="-0.096690685"
       width="1.208607"
       height="1.1933814">
      <feGaussianBlur
         inkscape:collect="always"
         stdDeviation="0.82850829"
         id="feGaussianBlur1004" />
    </filter>
    <filter
       inkscape:collect="always"
       style="color-interpolation-filters:sRGB"
       id="filter1066"
       x="-0.098552756"
       y="-0.10585297"
       width="1.1971055"
       height="1.2117059">
      <feGaussianBlur
         inkscape:collect="always"
         stdDeviation="0.51947311"
         id="feGaussianBlur1068" />
    </filter>
    <filter
       inkscape:collect="always"
       style="color-interpolation-filters:sRGB"
       id="filter1348"
       x="-0.035280912"
       y="-0.046941289"
       width="1.0705618"
       height="1.0938826">
      <feGaussianBlur
         inkscape:collect="always"
         stdDeviation="0.63069205"
         id="feGaussianBlur1350" />
    </filter>
    <filter
       inkscape:collect="always"
       style="color-interpolation-filters:sRGB"
       id="filter1436"
       x="-0.21515019"
       y="-0.1538568"
       width="1.4303004"
       height="1.3077136">
      <feGaussianBlur
         inkscape:collect="always"
         stdDeviation="1.2588095"
         id="feGaussianBlur1438" />
    </filter>
    <filter
       inkscape:collect="always"
       style="color-interpolation-filters:sRGB"
       id="filter2414"
       x="-0.097677062"
       y="-0.1131165"
       width="1.1953541"
       height="1.226233">
      <feGaussianBlur
         inkscape:collect="always"
         stdDeviation="0.63761718"
         id="feGaussianBlur2416" />
    </filter>
    <filter
       inkscape:collect="always"
       style="color-interpolation-filters:sRGB"
       id="filter3112"
       x="-0.40352998"
       y="-0.42867753"
       width="1.80706"
       height="1.8573551">
      <feGaussianBlur
         inkscape:collect="always"
         stdDeviation="2.0257517"
         id="feGaussianBlur3114" />
    </filter>
  </defs>
  <sodipodi:namedview
     id="namedview106102"
     pagecolor="#ffffff"
     bordercolor="#000000"
     borderopacity="0.25"
     inkscape:showpageshadow="2"
     inkscape:pageopacity="0.0"
     inkscape:pagecheckerboard="0"
     inkscape:deskcolor="#d1d1d1"
     showgrid="false"
     inkscape:zoom="16.046875"
     inkscape:cx="30.597858"
     inkscape:cy="20.502434"
     inkscape:window-width="1444"
     inkscape:window-height="1236"
     inkscape:window-x="1106"
     inkscape:window-y="165"
     inkscape:window-maximized="0"
     inkscape:current-layer="svg106100" />
  <path
     style="fill:#857353;fill-opacity:1;stroke-width:0.5"
     d="M 16.680354,58.963007 C 15.521133,58.186271 13.217754,56.039401 10.679833,53.370206 8.5504421,51.130672 7.5612847,49.910797 7.3420547,49.2539 7.2161816,48.876735 7.241772,48.784598 7.6362898,48.194504 8.5575487,46.816545 10.02309,45.223082 17.929276,37.003078 c 4.539375,-4.719556 4.972169,-5.591914 4.649592,-9.371922 -0.171399,-2.00849 -0.09583,-2.96422 0.414202,-5.238276 0.731486,-3.261458 1.52784,-5.15214 2.978054,-7.070406 1.081812,-1.430962 3.542007,-3.781112 4.93016,-4.709633 2.465446,-1.6491091 5.072897,-2.5202665 8.62988,-2.8832693 2.151498,-0.2195679 3.934069,0.1876954 4.715118,1.077261 0.30668,0.3492896 0.372997,0.5343982 0.372997,1.0411358 0,1.5813005 -1.053342,3.0820805 -5.258515,7.4922185 -1.152218,1.208378 -2.094941,2.246233 -2.094941,2.306344 0,0.06011 2.176635,2.285392 4.836968,4.945067 l 4.836968,4.835775 2.472804,-2.281359 c 3.706536,-3.419576 4.981615,-4.372832 6.409172,-4.791531 0.943716,-0.276789 1.468848,-0.163902 2.032901,0.437008 0.788087,0.83958 0.910866,1.489492 0.909663,4.81513 -9.97e-4,2.601693 -0.02801,2.970262 -0.292918,3.988316 -0.540839,2.078482 -1.572352,3.921293 -3.442827,6.150659 -3.18256,3.793198 -6.404269,5.716892 -10.907814,6.513091 -1.0218,0.180648 -2.399432,0.285671 -4.798442,0.365806 -3.53225,0.117989 -4.117233,0.204356 -5.234664,0.772843 -1.446611,0.735955 -2.131256,1.338966 -8.537488,7.519517 -6.003551,5.792054 -7.002506,6.658609 -7.67597,6.658609 -0.153878,0 -0.691098,-0.275605 -1.193822,-0.612455 z"
     id="path106891" />
  <path
     style="fill:#c0ac80;fill-opacity:1;stroke-width:0.5;filter:url(#filter1002)"
     d="M 8.7555988,51.785784 25.955209,34.149951 22.309639,31.221032 6.8914218,48.562881 Z"
     id="path995"
     sodipodi:nodetypes="ccccc" />
  <path
     style="display:inline;mix-blend-mode:normal;fill:#c0ac80;fill-opacity:1;stroke-width:0.5;filter:url(#filter1066)"
     d="M 46.987341,33.339824 57.92405,23.337878 55.119766,21.561831 45.273612,31.937682 Z"
     id="path1064"
     sodipodi:nodetypes="ccccc" />
  <path
     style="fill:#483d2c;fill-opacity:1;stroke-width:0.5;filter:url(#filter1348)"
     d="m 18.279786,55.815637 c 2.451158,-2.388841 7.353463,-7.166511 10.718922,-9.851452 3.365459,-2.684941 5.193364,-3.276933 6.725559,-3.572848 1.532194,-0.295915 2.768107,-0.295916 4.450635,-0.441385 1.682529,-0.145468 3.811622,-0.436271 6.21708,-1.491565 2.405458,-1.055294 5.08762,-2.874919 7.095947,-5.368014 2.008327,-2.493095 3.343033,-5.660065 4.246119,-7.170197 0.903086,-1.510133 1.373104,-1.363253 1.144215,0.489305 -0.228889,1.852557 -1.155263,5.410256 -3.144312,8.388243 -1.989049,2.977987 -5.040846,5.376701 -8.95889,6.660428 -3.918043,1.283726 -8.702692,1.45224 -13.602957,4.143701 -4.900264,2.691462 -9.914672,7.905598 -12.823822,10.093677 -2.909149,2.18808 -3.713905,1.349031 -4.11678,0.928988 -0.402875,-0.420043 -0.402875,-0.42004 2.048284,-2.808881 z"
     id="path1129"
     inkscape:path-effect="#path-effect1131"
     inkscape:original-d="m 15.828627,58.204478 c 4.903304,-4.776669 9.805609,-9.554339 14.706913,-14.333008 1.829015,-0.591028 3.65692,-1.18302 5.483934,-1.776047 1.236987,9.99e-4 2.4729,9.98e-4 3.707887,-3e-6 2.130222,-0.28982 4.259315,-0.580624 6.387536,-0.872444 2.683323,-1.818734 5.365485,-3.638359 8.046808,-5.459093 1.335758,-3.166096 2.670464,-6.333066 4.004196,-9.5011 0.471037,0.147886 0.941055,0.294767 1.410082,0.44065 -0.925429,3.558912 -1.851802,7.116611 -2.779231,10.673523 -3.050982,2.399859 -6.102779,4.798573 -9.155761,7.196432 -4.783937,0.169524 -9.568586,0.338038 -14.354523,0.505562 -5.013609,5.215345 -10.028017,10.429481 -15.043526,15.642722 -0.803788,-0.838082 -1.608544,-1.677131 -2.414315,-2.517197 z"
     sodipodi:nodetypes="scccccccccccss" />
  <path
     style="mix-blend-mode:normal;fill:#cfbb97;fill-opacity:1;stroke-width:0.5;filter:url(#filter2414)"
     d="m 25.161159,21.173269 c 0.455337,-0.734418 0.910496,-1.468548 1.35122,-2.067225 0.440723,-0.598677 0.866669,-1.061343 1.556973,-2.041703 0.690304,-0.980359 1.645107,-2.478665 3.035999,-3.701666 1.390892,-1.223001 3.220243,-2.171898 4.525955,-2.707263 1.305712,-0.535364 2.093514,-0.6600797 2.692615,-1.1673587 0.5991,-0.507279 1.008333,-1.3950958 0.832463,-1.7075531 -0.17587,-0.3124573 -0.938159,-0.047682 -2.398915,0.4152123 -1.460756,0.4628941 -3.61986,1.1238444 -5.647236,2.5083745 -2.027376,1.384531 -3.922099,3.492227 -5.005465,4.89523 -1.083366,1.403003 -1.355094,2.100685 -1.648862,2.838766 -0.293768,0.738081 -0.60936,1.516053 -0.92516,2.294536 0,0 1.630413,0.44065 1.630413,0.44065 z"
     id="path1423"
     inkscape:path-effect="#path-effect1425"
     inkscape:original-d="m 25.161159,21.173269 c 0,0 0.911667,-1.467822 1.366012,-2.203253 0.42697,-0.461692 0.852917,-0.924358 1.277888,-1.388051 0.955761,-1.497241 1.910564,-2.995547 2.864229,-4.494637 1.827576,-0.946458 3.656927,-1.895355 5.480174,-2.842604 0.787735,-0.123546 1.575537,-0.2482617 2.36341,-0.3741465 0.411354,-0.8892477 0.820587,-1.7770647 1.229393,-2.6671231 -0.761333,0.2657909 -1.523622,0.5305663 -2.286955,0.7943572 -2.158231,0.6619894 -4.317335,1.3229396 -6.477567,1.982929 -1.893835,2.1088214 -3.788559,4.2165174 -5.684394,6.3233384 -0.27074,0.698711 -0.542469,1.396393 -0.815204,2.093091 -0.3148,0.779484 -0.947399,2.335449 -0.947399,2.335449 z"
     sodipodi:nodetypes="scccccccccsss" />
  <path
     style="mix-blend-mode:normal;fill:#483d2c;fill-opacity:1;stroke-width:0.5;filter:url(#filter1436)"
     d="m 40.663208,12.502493 -7.293418,7.293418 12.119192,12.34265 1.922825,-3.172685 -10.280985,-9.015088 5.410229,-5.818805 z"
     id="path1427"
     sodipodi:nodetypes="ccccccc" />
  <path
     style="fill:#000000;fill-opacity:0;stroke-width:0.5;opacity:1;filter:url(#filter3112)"
     d="m 46.253787,31.808394 c -0.007,0.668773 0.301435,1.461944 0.93336,1.913073 0.631926,0.451129 1.58663,0.561287 2.885404,-0.20655 1.298775,-0.767836 2.942565,-2.413452 4.389337,-4.058502 1.446772,-1.64505 2.696525,-3.289564 3.317785,-4.324351 0.62126,-1.034786 0.613917,-1.460757 0.361123,-1.813457 -0.252793,-0.3527 -0.752187,-0.631773 -1.47227,-0.577123 -0.720083,0.05465 -1.6601,0.443875 -3.323814,1.718196 -1.663714,1.27432 -4.050524,3.433466 -5.405641,4.784969 -1.355118,1.351502 -1.678263,1.894973 -1.685284,2.563745 z"
     id="path1429"
     inkscape:path-effect="#path-effect1431"
     inkscape:original-d="m 45.937842,31.68279 c 0.309455,0.794171 0.617911,1.587342 0.925367,2.379514 0.955763,0.111165 1.910467,0.221323 2.86423,0.330488 1.644887,-1.644712 3.288678,-3.290327 4.931561,-4.937035 1.250776,-1.643544 2.500529,-3.288058 3.749259,-4.933542 -0.0063,-0.424955 -0.01369,-0.850925 -0.02203,-1.277887 -0.498414,-0.278085 -0.997808,-0.557158 -1.498212,-0.837237 -0.939074,0.390249 -1.879091,0.779475 -2.820165,1.167725 -2.385906,2.160232 -4.772717,4.319377 -7.160576,6.477567 -0.322144,0.544469 -0.64529,1.087939 -0.969434,1.630407 z"
     sodipodi:nodetypes="scccccccss" />
  <path
     style="display:inline;fill:#000000"
     d="M 10.314451,56.253599 C 7.4457396,53.348804 4.5199611,49.290727 4.5199611,48.194257 c 0,-1.152018 4.521428,-5.076158 8.3568649,-9.256574 C 19.855479,31.331333 21,31.433445 21,26.590752 21,16.749908 27.163139,9.0812612 36.873395,6.8398657 c 2.003934,-0.4625633 3.283423,-0.3844135 4.32573,-0.3516234 1.189628,0.037425 2.063618,0.1091188 3.23684,0.8778435 1.410219,0.9240112 1.616636,1.9534404 1.616636,2.5030499 0,0.5496103 -0.93321,3.2157703 -3.231731,5.7093713 l -3.584252,4.159268 4.034836,3.946706 3.880609,3.792477 3.99333,-3.525946 c 3.932981,-3.47266 5.205385,-3.382758 6.886653,-2.48297 C 59.617672,22.316643 60,23.102342 60,27.149029 c 0,10.379777 -7.396585,18.216816 -18.330863,18.96645 -6.125678,0.419965 -6.59996,-0.01288 -14.181336,7.320113 -4.19934,4.061759 -8.595636,8.530329 -9.640084,8.530329 -1.044449,0 -4.664554,-2.807527 -7.533266,-5.712322 z m 15.736712,-4.589538 c 7.566831,-7.36363 7.81567,-7.474188 12.86904,-7.474188 6.626606,0 10.823225,-1.52023 14.833244,-6.08739 3.681168,-4.192619 3.486433,-4.834636 4.442966,-9.882284 0.389576,-2.055803 -0.0053,-4.304227 -0.614457,-4.77062 -0.970762,-0.743236 -2.921336,-0.308216 -6.035185,2.593407 l -4.581069,4.268844 -5.528841,-4.967984 -5.287781,-5.265748 4.425136,-4.744109 c 3.682752,-3.948213 4.25694,-5.56422 2.573272,-6.7017295 C 42.131305,7.945712 41.07886,7.8199273 38.18303,8.2667797 33.265187,9.0256466 31.128229,10.770285 27.793093,14.295239 c -2.16387,2.287026 -3.400439,4.022702 -4.044029,6.863604 -0.404186,1.784136 -0.390226,3.722584 -0.490726,6.087192 -0.211785,4.982929 -0.746492,5.801035 -8.072198,13.328898 -4.125,4.23883 -7.899717,7.607771 -7.899717,8.374389 0,0.923112 2.4844988,3.515544 4.942956,6.000308 2.51267,2.539557 4.790049,4.235814 5.727326,4.235814 0.806186,0 3.855628,-3.396383 8.094458,-7.521383 z"
     id="path106590"
     sodipodi:nodetypes="ssssssssscccssssssssssssscccsssssssssss" />
</svg>
