<?xml version="1.0" encoding="UTF-8" standalone="no"?>
<!-- Created with Inkscape (http://www.inkscape.org/) -->

<svg
   version="1.1"
   id="svg41065"
   width="38.86034"
   height="55.297729"
   viewBox="0 0 38.86034 55.297729"
   sodipodi:docname="20110424160235!Leaderboard_class_pyro.png"
   inkscape:version="1.2 (dc2aedaf03, 2022-05-15)"
   xmlns:inkscape="http://www.inkscape.org/namespaces/inkscape"
   xmlns:sodipodi="http://sodipodi.sourceforge.net/DTD/sodipodi-0.dtd"
   xmlns="http://www.w3.org/2000/svg"
   xmlns:svg="http://www.w3.org/2000/svg">
  <defs
     id="defs41069" />
  <sodipodi:namedview
     id="namedview41067"
     pagecolor="#ffffff"
     bordercolor="#000000"
     borderopacity="0.25"
     inkscape:showpageshadow="2"
     inkscape:pageopacity="0.0"
     inkscape:pagecheckerboard="0"
     inkscape:deskcolor="#d1d1d1"
     showgrid="false"
     inkscape:zoom="5.6734271"
     inkscape:cx="-76.056323"
     inkscape:cy="27.496608"
     inkscape:window-width="2496"
     inkscape:window-height="1411"
     inkscape:window-x="0"
     inkscape:window-y="0"
     inkscape:window-maximized="1"
     inkscape:current-layer="g41071" />
  <g
     inkscape:groupmode="layer"
     inkscape:label="Image"
     id="g41071"
     transform="translate(-13,-2)">
    <path
       style="fill:#000000"
       d="M 25.106282,54.447117 C 22.118615,53.040498 18.552912,50.341885 16.635956,48.242837 13.846,45.187863 13,43.986194 13,37.791607 c 0,-7.352936 1.337985,-9.904586 4.169206,-10.664965 0.488034,-0.13107 1.963313,0.496354 2.626108,1.837669 0.889701,1.802107 2.114082,6.121024 3.076238,6.267064 2.011232,0.305272 2.189736,-11.279104 2.498246,-13.494541 C 25.595173,20.118393 31.431949,2 32.939639,2 c 2.133925,0 2.625311,4.6468694 2.757654,10.206054 0.08027,3.371959 -0.714673,7.31873 0.81392,9.039776 1.801713,2.028554 2.36166,-0.59006 2.764209,-5.229075 C 39.580147,12.505074 40.229175,8 41.926776,8 c 0.471024,0 1.162717,1.2204325 1.537095,2.712072 0.374377,1.49164 2.471484,4.576052 3.763642,7.016117 1.030463,1.94589 3.354032,6.002246 3.851424,7.567696 1.563221,4.919942 0.797708,15.392029 -2.44733,22.024647 -5.309757,10.852753 -12.69481,12.225681 -23.525325,7.126585 z m 15.128699,0.347488 c 1.413511,-0.79275 5.036228,-3.897205 6.956069,-8.784504 1.263032,-3.215274 2.428692,-7.548482 2.703042,-9.823831 0.261818,-2.17142 0.209091,-6.464859 -0.425138,-9.613433 -0.515156,-2.557443 -1.605943,-4.042052 -2.395452,-5.367298 -0.705559,-1.184329 -2.148543,-3.614983 -2.712695,-4.67497 -0.51037,-0.958935 -2.354402,-6.147377 -2.786282,-6.338749 -0.333076,-0.147591 -0.789888,5.77744 -0.86436,6.840504 -0.434589,6.203688 -2.284418,6.410258 -3.01561,6.477823 -0.394307,0.03644 -1.46695,-0.146885 -2.517725,-1.455954 -0.929195,-1.157604 -1.106448,-2.333325 -1.259944,-2.990521 -0.103095,-0.441405 -0.110258,-5.128757 -0.137383,-8.428814 -0.02881,-3.5047585 -0.40221,-6.4985386 -0.746309,-6.4985386 -0.344086,0 -1.429946,2.6565184 -2.309014,5.7850444 -1.425802,5.0743072 -3.801884,10.3252812 -4.157586,19.0155892 -0.260533,6.365515 -2.697955,7.991988 -3.363775,7.991988 -1.559767,0 -2.664053,-2.170087 -3.411862,-3.784861 -0.3064,-0.661623 -2.04728,-4.302719 -2.87228,-4.302719 -2.532735,0 -3.238401,13.773221 -0.283782,17.178731 2.566267,2.957895 5.868422,5.543543 9.465266,7.31503 4.642651,2.286558 10.672327,3.401378 14.13482,1.459483 z"
       id="path41555"
       sodipodi:nodetypes="sssscsssssssssssssssssssssssssscssssss" />
    <path
       style="fill:#f08300;fill-opacity:1;stroke-width:1.5"
       d="m 33.225068,55.617983 c -5.286346,-0.830979 -10.350313,-3.467114 -14.795972,-7.702299 -1.97931,-1.885603 -2.610458,-2.85786 -3.115226,-4.798881 -1.150798,-4.425242 -0.636915,-12.210094 0.915712,-13.872186 0.42522,-0.4552 0.554147,-0.505718 0.865452,-0.339113 0.571778,0.306007 1.351198,1.486784 2.560434,3.878913 1.232645,2.438436 1.777591,3.249586 2.50567,3.729675 1.336521,0.881293 2.624649,-0.180458 3.576932,-2.94832 0.447993,-1.302112 0.647821,-2.645845 0.876342,-5.892904 0.350992,-4.987255 0.948503,-7.703764 3.521993,-16.012304 1.526181,-4.9272923 2.388837,-7.2493335 2.783891,-7.4934903 0.537397,-0.332129 0.762021,1.8687947 0.905895,8.8761893 0.123501,6.015102 0.157059,6.497457 0.516001,7.416918 0.890183,2.280286 2.76499,3.490537 4.232011,2.731911 1.17645,-0.608366 1.806027,-2.799614 2.23224,-7.769315 0.149652,-1.744977 0.349188,-3.603668 0.443413,-4.130424 0.09422,-0.526756 0.171316,-0.98283 0.171316,-1.013497 0,-0.03067 0.06463,-0.05576 0.143615,-0.05576 0.194493,0 0.602707,0.865858 1.801342,3.820817 0.641572,1.581643 1.69081,3.651956 2.858533,5.64033 1.014697,1.727806 2.059524,3.565485 2.321837,4.083733 1.081854,2.137394 1.620158,5.976515 1.460873,10.418754 -0.08402,2.343277 -0.187988,3.096939 -0.71835,5.207447 -1.725402,6.866003 -3.48078,10.382636 -6.801082,13.624923 -2.566392,2.506092 -5.182948,3.240218 -9.262872,2.598881 z"
       id="path42594" />
  </g>
</svg>
