<?xml version="1.0" encoding="UTF-8" standalone="no"?>
<!-- Created with Inkscape (http://www.inkscape.org/) -->

<svg
   version="1.1"
   id="svg106907"
   width="64"
   height="64"
   viewBox="0 0 64 64"
   sodipodi:docname="scout.svg"
   inkscape:version="1.2.1 (9c6d41e410, 2022-07-14)"
   xmlns:inkscape="http://www.inkscape.org/namespaces/inkscape"
   xmlns:sodipodi="http://sodipodi.sourceforge.net/DTD/sodipodi-0.dtd"
   xmlns:xlink="http://www.w3.org/1999/xlink"
   xmlns="http://www.w3.org/2000/svg"
   xmlns:svg="http://www.w3.org/2000/svg">
  <defs
     id="defs106911">
    <linearGradient
       inkscape:collect="always"
       id="linearGradient8346">
      <stop
         style="stop-color:#888478;stop-opacity:1;"
         offset="0"
         id="stop8342" />
      <stop
         style="stop-color:#535048;stop-opacity:1;"
         offset="1"
         id="stop8344" />
    </linearGradient>
    <linearGradient
       inkscape:collect="always"
       id="linearGradient6067">
      <stop
         style="stop-color:#b0aca0;stop-opacity:1;"
         offset="0"
         id="stop6063" />
      <stop
         style="stop-color:#4d4b45;stop-opacity:1;"
         offset="1"
         id="stop6065" />
    </linearGradient>
    <filter
       inkscape:collect="always"
       style="color-interpolation-filters:sRGB"
       id="filter5309"
       x="-0.045363385"
       y="-0.077321801"
       width="1.0907268"
       height="1.1546436">
      <feGaussianBlur
         inkscape:collect="always"
         stdDeviation="0.87031848"
         id="feGaussianBlur5311" />
    </filter>
    <linearGradient
       inkscape:collect="always"
       xlink:href="#linearGradient6067"
       id="linearGradient6069"
       x1="33.665718"
       y1="15.422777"
       x2="46.488659"
       y2="24.940834"
       gradientUnits="userSpaceOnUse" />
    <linearGradient
       inkscape:collect="always"
       xlink:href="#linearGradient8346"
       id="linearGradient8348"
       x1="40.539871"
       y1="17.141315"
       x2="42.434669"
       y2="19.741156"
       gradientUnits="userSpaceOnUse" />
  </defs>
  <sodipodi:namedview
     id="namedview106909"
     pagecolor="#ffffff"
     bordercolor="#000000"
     borderopacity="0.25"
     inkscape:showpageshadow="2"
     inkscape:pageopacity="0.0"
     inkscape:pagecheckerboard="0"
     inkscape:deskcolor="#d1d1d1"
     showgrid="false"
     inkscape:zoom="4.0117187"
     inkscape:cx="-8.4751705"
     inkscape:cy="-27.544304"
     inkscape:window-width="2498"
     inkscape:window-height="1421"
     inkscape:window-x="62"
     inkscape:window-y="0"
     inkscape:window-maximized="1"
     inkscape:current-layer="svg106907" />
  <path
     style="fill:#c8c8c0;fill-opacity:1;stroke-width:0.5"
     d="M 8.1961043,57.867965 C 7.5911596,57.734545 7.4077364,57.63404 7.0726161,57.252359 6.738586,56.87192 6.0809806,54.95873 6.0809806,54.367366 c 0,-0.896799 0.6005257,-1.347571 4.8030934,-3.605346 3.867144,-2.077572 4.710499,-2.589125 6.518236,-3.953766 1.371752,-1.035521 2.550508,-2.088295 4.131421,-3.689865 1.740174,-1.762912 2.536467,-2.672253 6.786639,-7.750138 l 3.247343,-3.879755 1.732011,-0.057 c 10.800568,-0.355423 15.604078,-0.385966 17.128822,-0.10891 1.493007,0.271289 2.440387,0.777366 3.627373,1.937693 1.75202,1.712669 2.02194,2.980517 1.17677,5.527418 -0.888133,2.676372 -2.079824,4.407514 -3.812856,5.538848 -1.17277,0.765594 -1.942114,1.01124 -4.843047,1.546356 -3.639828,0.671414 -6.679017,1.666502 -9.559145,3.129845 -1.729349,0.878652 -3.342016,1.842246 -6.06008,3.620994 -2.883886,1.887266 -3.839974,2.470007 -5.003231,3.049498 -2.681331,1.335739 -4.362053,1.638159 -11.894972,2.140324 -2.937811,0.195842 -5.1297277,0.216179 -5.8632537,0.0544 z"
     id="path109542" />
  <path
     style="display:inline;fill:#505048;fill-opacity:1;stroke-width:0.5;filter:url(#filter5309)"
     d="M 51.378963,35.996928 48.033967,38.13537 36.439345,40.137808 29.869335,46.963963 11.14864,58.297262 25.067683,58.132844 38.953528,48.956301 50.716456,45.8172 54.992831,42.351892 57.1938,36.771713 56.76638,33.654614 54.278482,31.28335"
     id="path897"
     sodipodi:nodetypes="cccccccccccc"
     inkscape:label="path897" />
  <path
     style="display:inline;fill:#000000"
     d="M 6.2,58.8 C 5.54,58.14 5,56.345657 5,54.812572 5,52.377846 5.8540991,51.589711 11.75,48.583891 17.172895,45.819217 19.858629,43.521157 25.410343,36.89536 l 6.910343,-8.247279 -1.298553,-4.57404 C 28.387006,14.792031 28.438888,14.399703 32.671914,11.598419 40.547185,6.3868115 61.284987,2.9731318 62.698143,6.6557578 63.45081,8.6171764 59.753982,12 56.857831,12 c -1.05633,0 -2.179656,0.7875 -2.496278,1.75 -1.449362,4.405905 -3.709399,8.850909 -5.037825,9.90831 -1.943362,1.546877 -0.146817,4.489133 3.810703,6.240901 3.720513,1.646859 5.202489,4.491316 4.444653,8.530925 -0.897607,4.784658 -5.064653,7.894125 -13.968364,10.42325 -5.343616,1.51787 -9.288138,3.387233 -12.224488,5.793351 -2.384365,1.953807 -6.034189,3.946841 -8.11072,4.428963 C 17.746551,60.359397 7.5954986,60.195499 6.2,58.8 Z m 24.666969,-6.14721 c 6.597076,-4.404055 10.310407,-5.928344 17.285754,-7.095646 3.797022,-0.635419 6.219617,-3.208166 7.382022,-7.839556 0.461719,-1.839634 0.02301,-3.051695 -1.678269,-4.636674 -2.086898,-1.944241 -3.241937,-2.119391 -12.288517,-1.86343 L 31.582846,31.5 25.33643,38.956317 c -4.570607,5.45591 -7.919575,8.346626 -12.48295,10.774859 -7.5866974,4.036984 -7.1883083,3.638512 -6.3327653,6.33409 0.4857541,1.530476 0.8182456,1.993057 4.0138093,1.917022 1.240892,-0.02952 2.913508,-0.140268 5.194466,-0.301238 7.944904,-0.56068 8.941727,-0.891786 15.137979,-5.02826 z M 46.75,27.700578 c -3.405041,-1.345501 -3.533207,-3.386603 -0.305012,-4.857467 3.354206,-1.528278 4.415093,-4.311841 1.319874,-3.463094 -1.245674,0.341579 -3.995723,0.910259 -6.111219,1.263734 -3.59869,0.601299 -3.809567,0.82663 -3.275,3.499465 C 38.692889,25.714447 38.563734,27 38.091631,27 c -1.085577,0 -2.06025,-3.571407 -2.077976,-7.614142 -0.01206,-2.749664 0.483764,-3.302041 4.236345,-4.719566 2.3375,-0.882983 7.9625,-2.591631 12.5,-3.796994 8.942877,-2.3756299 11.525402,-5.0694341 4,-4.1723574 -13.301094,1.5855766 -27.286011,6.4638534 -26.252376,9.1574624 0.33009,0.860201 1.365661,4.169238 2.30127,7.353414 L 34.5,28.997228 42,28.892233 c 6.479517,-0.09071 7.125823,-0.25285 4.75,-1.191655 z M 44,18.512299 c 5.170369,-1.33684 8,-2.798917 8,-4.133619 0,-1.798581 -0.574196,-1.753996 -8.352821,0.648576 -4.976271,1.537013 -6.424059,2.39061 -5.986911,3.529801 0.31712,0.8264 1.31079,1.299841 2.208157,1.052091 C 40.765791,19.361398 42.625,18.867816 44,18.512299 Z"
     id="path107397"
     sodipodi:nodetypes="sssscssssssssssssssssscsssssssssssssssssscssssssss" />
  <path
     style="fill:url(#linearGradient6069);fill-opacity:1;stroke-width:0.5"
     d="m 34.429631,28.852637 c -0.02683,-0.09145 -0.391308,-1.3362 -0.809951,-2.766111 -1.2784,-4.366488 -2.054633,-6.925145 -2.654443,-8.749703 -0.425664,-1.294823 -0.558291,-1.81085 -0.515495,-2.005697 0.03169,-0.144289 0.25697,-0.480464 0.500621,-0.747057 2.51966,-2.75691 13.47225,-6.2078089 24.659764,-7.7697021 2.188653,-0.3055588 4.791827,-0.3511283 5.265777,-0.092179 0.688099,0.3759519 0.170615,1.0061514 -1.523051,1.8547958 -1.533258,0.7682688 -3.604667,1.4898723 -6.739151,2.3476743 -7.178124,1.96441 -12.331281,3.620937 -14.446332,4.643899 -1.038563,0.50231 -1.665234,1.091429 -1.910381,1.795905 -0.232629,0.668508 -0.231411,3.68266 0.0021,5.240923 0.394902,2.635045 1.117302,4.362443 1.824378,4.362443 0.444685,0 0.548838,-1.196633 0.253131,-2.908295 -0.370027,-2.14186 -0.198658,-2.57156 1.19088,-2.986094 0.338683,-0.101037 1.40896,-0.325654 2.378391,-0.499147 2.028213,-0.362977 3.851174,-0.735486 5.403587,-1.104182 0.596867,-0.141754 1.255799,-0.257735 1.464296,-0.257735 0.47085,0 0.843507,0.263081 0.843507,0.595483 0,0.571807 -0.774723,1.581537 -1.697049,2.211839 -0.230539,0.157547 -0.900195,0.54308 -1.488124,0.856741 -1.267766,0.676355 -1.69025,0.994444 -2.027842,1.526773 -0.696221,1.097825 -0.03217,2.147384 1.935807,3.059632 1.39438,0.646359 1.6468,0.78854 1.6468,0.927601 0,0.362455 -1.765897,0.476044 -8.825287,0.567677 -4.541362,0.05895 -4.684646,0.05575 -4.731951,-0.105483 z"
     id="path111683" />
  <path
     style="fill:url(#linearGradient8348);fill-opacity:1;stroke-width:0.5"
     d="m 38.498955,19.474925 c -0.409903,-0.21655 -0.851528,-0.749414 -0.918951,-1.108806 -0.211281,-1.126226 1.631583,-2.035763 8.012692,-3.954626 2.984584,-0.897494 4.171201,-1.193654 5.019123,-1.252687 1.132519,-0.07885 1.384972,0.115299 1.384972,1.065099 0,0.585865 -0.28722,1.046867 -0.973687,1.562818 -1.381531,1.038363 -3.483474,1.812391 -8.561492,3.15272 -2.91613,0.769705 -3.39644,0.83461 -3.962657,0.535482 z"
     id="path111685" />
</svg>
