<?xml version="1.0" encoding="UTF-8" standalone="no"?>
<!-- Created with Inkscape (http://www.inkscape.org/) -->

<svg
   width="31.828806mm"
   height="30.532804mm"
   viewBox="0 0 31.828806 30.532804"
   version="1.1"
   id="svg3648"
   sodipodi:docname="soldier.svg"
   inkscape:version="1.2.1 (9c6d41e410, 2022-07-14)"
   xmlns:inkscape="http://www.inkscape.org/namespaces/inkscape"
   xmlns:sodipodi="http://sodipodi.sourceforge.net/DTD/sodipodi-0.dtd"
   xmlns:xlink="http://www.w3.org/1999/xlink"
   xmlns="http://www.w3.org/2000/svg"
   xmlns:svg="http://www.w3.org/2000/svg">
  <sodipodi:namedview
     id="namedview3650"
     pagecolor="#505050"
     bordercolor="#eeeeee"
     borderopacity="1"
     inkscape:showpageshadow="0"
     inkscape:pageopacity="0"
     inkscape:pagecheckerboard="0"
     inkscape:deskcolor="#505050"
     inkscape:document-units="mm"
     showgrid="false"
     inkscape:zoom="2.8284271"
     inkscape:cx="76.721086"
     inkscape:cy="33.057242"
     inkscape:window-width="1394"
     inkscape:window-height="1229"
     inkscape:window-x="1166"
     inkscape:window-y="287"
     inkscape:window-maximized="0"
     inkscape:current-layer="layer1" />
  <defs
     id="defs3645">
    <linearGradient
       inkscape:collect="always"
       id="linearGradient16162">
      <stop
         style="stop-color:#6e6f6f;stop-opacity:1;"
         offset="0"
         id="stop16158" />
      <stop
         style="stop-color:#c8c8c8;stop-opacity:1;"
         offset="0.5"
         id="stop16160" />
      <stop
         style="stop-color:#6e6f6f;stop-opacity:1;"
         offset="1"
         id="stop16166" />
    </linearGradient>
    <linearGradient
       inkscape:collect="always"
       id="linearGradient6695">
      <stop
         style="stop-color:#6e6f6f;stop-opacity:1;"
         offset="0"
         id="stop6691" />
      <stop
         style="stop-color:#c8c8c8;stop-opacity:1;"
         offset="0.49973732"
         id="stop6693" />
      <stop
         style="stop-color:#6e6f6f;stop-opacity:1;"
         offset="1"
         id="stop7512" />
    </linearGradient>
    <linearGradient
       inkscape:collect="always"
       xlink:href="#linearGradient6695"
       id="linearGradient6697"
       x1="431.25"
       y1="348.625"
       x2="437.75"
       y2="355"
       gradientUnits="userSpaceOnUse" />
    <linearGradient
       inkscape:collect="always"
       xlink:href="#linearGradient16162"
       id="linearGradient16164"
       x1="458.82391"
       y1="319.65646"
       x2="465.49722"
       y2="326.06461"
       gradientUnits="userSpaceOnUse" />
  </defs>
  <g
     inkscape:label="Layer 1"
     inkscape:groupmode="layer"
     id="layer1"
     transform="translate(-99.717361,-77.005369)">
    <g
       id="g3579"
       transform="matrix(0.26458333,0,0,0.26458333,99.002418,74.846351)">
      <path
         style="display:inline;fill:#ffd08c;fill-opacity:1"
         d="m 15.220892,108.16016 c 1.44178,-1.50074 5.715196,-6.73967 9.613657,-11.685218 3.898461,-4.945552 7.088111,-9.310955 7.088111,-9.727903 0,-0.416948 -1.193306,-0.67659 -2.705806,-0.685012 -2.142937,-0.01193 -2.429923,-0.372933 -1.261048,-1.128318 0.825,-0.533156 3.231694,-0.976265 5.294194,-0.984687 2.0625,-0.0084 3.800666,0.372812 3.800666,0.863968 0,0.491156 -0.725666,1.232054 -1.550666,1.548636 C 34.675,86.678209 34,87.772912 34,88.794301 34,89.81569 32.875,91.708255 31.5,93 30.125,94.291745 29,95.945187 29,96.674314 29,97.403441 29.845044,98 30.877876,98 c 1.032832,0 3.620332,-0.719814 5.75,-1.599586 2.129668,-0.879772 4.614949,-2.236989 5.522847,-3.043045 0.971577,-0.862593 2.005929,-1.21322 2.356026,-0.646752 0.32715,0.52934 0.315575,2.502286 -0.02573,4.208774 -0.3413,1.706488 -1.24873,3.146899 -1.89498,3.146899 -0.295361,0 -0.865175,0.16653 -1.31065,-0.0409 -0.529227,-0.246474 -1.015679,-0.951665 -1.356616,-1.292602 -0.234875,-0.234875 -0.402067,-0.212212 -0.599723,-0.124526 -0.469424,0.208249 -1.110683,1.142133 -3.238532,2.449508 -0.239841,0.14736 -1.676948,0.64658 -1.859615,0.89955 -1.145771,1.58677 -3.764538,2.89793 -6.589377,3.84154 -1.842576,0.6155 -3.85867,0.84242 -5.450124,1.63379 -4.0313,2.0046 -8.037914,3.68892 -8.647014,3.68892 -0.6091,0 -0.138098,-1.0622 1.303681,-2.56294 z"
         id="path3595"
         sodipodi:nodetypes="sssssssssssssssssssssssssss" />
      <path
         style="display:inline;fill:#fdfa02;fill-opacity:1"
         d="m 29,96.674314 c 0,-0.729127 1.050289,-2.511525 2.42266,-3.729557 1.415494,-1.256306 1.60388,-2.757546 1.825897,-3.742322 0.0844,-0.374366 0.771573,-1.344513 1.008597,-1.763658 0.371203,-0.656426 0.69083,-1.436681 1.376919,-1.803864 0.585697,-0.313456 1.056211,-0.682307 1.464099,-0.804222 0.819968,-0.245084 2.427144,1.168466 4.096724,2.955758 1.94235,2.079293 3.327975,3.838613 2.985601,4.755497 -0.09251,0.24775 -0.983787,0.105121 -1.273404,0.337621 -0.842296,0.676178 -3.283712,2.334677 -5.6746,3.359532 -2.390888,1.024854 -5.283093,1.827192 -6.337495,1.827192 C 29.840596,98.066291 29,97.403441 29,96.674314 Z"
         id="path3593"
         sodipodi:nodetypes="ssssssssssss" />
      <path
         style="fill:#fb7f00;fill-opacity:1;stroke-width:0.0625"
         d="m 380.93242,402.85469 c -0.2955,-0.0647 -0.29846,-0.25658 -0.36417,-0.72055 -0.0451,-0.31811 -0.0698,-0.62796 -0.005,-0.87683 0.34245,-1.31474 1.78502,-4.4853 3.69323,-7.43577 2.53034,-3.91243 7.98974,-11.38121 11.80481,-16.14967 3.15866,-3.94801 4.24068,-4.96399 3.96647,-5.47636 -0.11437,-0.21369 -0.51662,-0.12505 -1.31666,-0.18171 -2.34304,-0.16604 -4.67139,-1.27637 -5.04312,-2.24975 -0.2268,-0.59386 0.2263,-1.80834 0.8786,-2.43054 0.98836,-0.94273 3.36638,-2.07657 5.78939,-2.89078 3.10008,-1.04173 5.64183,-2.60543 7.09817,-2.45594 1.13274,0.11628 0.8875,-0.85286 3.06387,0.36325 1.37676,0.7693 2.60829,2.87515 2.68501,2.751 0.0328,-0.0531 0.92515,0.82576 2.7647,2.7228 3.8588,3.97938 4.34747,4.43048 4.43517,4.54478 0.21107,0.27504 1.06954,0.73357 1.30301,1.17165 0.10244,0.1922 0.57039,0.57354 0.77076,0.81877 0.47721,0.58405 -0.27603,0.91937 -0.28206,2.0308 -0.004,0.6492 -0.31317,1.14709 -0.43751,1.86585 -0.52396,3.02862 -2.4965,8.76782 -3.46399,10.63549 -0.52822,1.0197 -1.90862,2.01886 -2.63734,2.01886 -0.57905,0 -1.55185,-0.6785 -2.13027,-1.53441 -0.13821,-0.20451 -0.46042,-0.75052 -0.66201,-1.14583 -0.66683,-1.30764 -1.28866,-2.16642 -1.71104,-2.27243 -0.35895,-0.0901 -0.91845,0.34678 -1.57454,1.14549 -0.6122,0.7453 -2.57957,1.76866 -5.93287,3.31575 -3.38145,1.56007 -8.01166,4.18856 -13.70152,7.7781 -3.67435,2.31803 -5.99917,3.7112 -7.24531,4.34184 -0.52698,0.26669 -0.68047,0.57012 -1,0.56519 -0.20112,-0.003 -0.13802,-0.11605 -0.24575,-0.13963 z m 7.69648,-9.12739 c 1.25771,-0.42677 3.57451,-1.44367 6.47275,-2.84103 0.95816,-0.46197 1.93897,-0.91048 2.1796,-0.99668 0.24062,-0.0862 1.29531,-0.37366 2.34375,-0.63878 2.44428,-0.61808 3.73207,-1.07614 5.38131,-1.91409 1.33522,-0.67841 2.46763,-1.51047 3.11869,-2.29151 0.30015,-0.36009 0.58171,-0.52743 1.5,-0.89156 0.62991,-0.24978 1.71827,-0.96205 2.6059,-1.70541 1.12588,-0.94289 1.2661,-1.04199 1.47431,-1.04199 0.16435,0 0.29476,0.10326 0.85376,0.67597 0.83063,0.85101 0.96153,0.91635 1.73415,0.8656 0.81489,-0.0535 1.03225,-0.19185 1.48411,-0.94444 0.63791,-1.06245 1.03936,-2.84313 1.04501,-4.6352 0.003,-1.09791 -0.0803,-1.54206 -0.33951,-1.80132 -0.15788,-0.15787 -0.19357,-0.24743 -0.20544,-0.51549 -0.0339,-0.76616 -0.78411,-1.85391 -2.75096,-3.98887 -2.33657,-2.53629 -3.26329,-3.30195 -4.00165,-3.3062 -0.25661,-0.001 -0.33002,-0.0261 -0.375,-0.12574 -0.22668,-0.50221 -2.51379,-0.86085 -4.60281,-0.72178 -2.05663,0.13692 -3.56075,0.46971 -4.39858,0.9732 -0.51044,0.30675 -0.65773,0.45675 -0.63551,0.64721 0.0283,0.24287 0.34875,0.31079 1.76274,0.37362 2.02079,0.0898 2.94482,0.36506 2.82521,0.84163 -0.11792,0.46982 -2.92805,4.35466 -6.02491,8.32908 -3.29447,4.22802 -8.23126,10.27865 -10.01145,12.27023 -1.27004,1.42085 -1.48502,1.67002 -1.74821,2.02629 -0.50366,0.68178 -0.75636,1.32518 -0.58699,1.49454 0.0836,0.0836 0.38398,0.0377 0.89973,-0.13728 z"
         id="path12335"
         transform="translate(-374.18237,-282.88385)"
         sodipodi:nodetypes="sscsssssssssssssscssssssssssssssssssssssssscssscsssssssssss" />
      <path
         style="display:inline;fill:#0b0b0b"
         d="m 3.3904101,122.63278 c -0.214672,-0.21605 -0.6985544,-2.60134 -0.3866722,-4.88278 0.2421071,-1.77103 1.0145559,-4.78881 2.25,-6.66957 1.235444,-1.88076 2.6962619,-4.13076 3.2462619,-5 0.55,-0.86924 2.9125002,-4.09632 5.2500002,-7.171299 2.3375,-3.074977 4.25,-6.337477 4.25,-7.25 C 18,90.746609 17.44753,90.461113 17,90 c -0.383052,-0.394678 -1,-1.534998 -1,-3.411106 0,-2.556387 0.745706,-4.038577 2.976045,-5.915284 1.636825,-1.377297 11.290849,-6.000773 14.212274,-8.683975 3.821935,-3.510282 5.890663,-4.736557 7.376036,-4.372278 1.582552,0.388112 3.974819,-1.417061 10.25,-7.734513 4.502105,-4.532431 9.608884,-10.891421 11.348399,-13.468893 1.739515,-2.577472 3.916287,-4.883366 4.837271,-5.124209 1.159587,-0.303238 2.024263,-2.318564 2.811871,-6.553707 0.974485,-5.240031 1.815802,-6.804617 5.875137,-10.925923 2.605781,-2.645562 6.898718,-7.427416 9.181512,-9.085505 2.196958,-1.595743 5.263961,-3.321189 6.765237,-3.699572 1.501275,-0.378383 5.238748,-1.3002443 8.263748,-1.7563533 3.025,-0.4561088 8.20998,-0.8548396 11.43109,-0.9885381 5.51329,-0.2288404 5.92397,-0.4123273 8.71584,2.2624554 2.03064,1.94547 2.95554,3.802574 2.95554,5.934393 0,1.706546 -0.85418,5.652977 -1.5,8.861699 -0.6375,3.167389 -3.36894,14.889871 -3.73421,15.875399 -0.39982,1.078757 -0.77555,4.700243 -5.61688,9.587241 -5.0914,5.139433 -10.1379,6.969781 -13.64937,8.315279 -2.749747,1.053625 -6.062068,2.010705 -7.360714,2.126845 -1.308292,0.117002 -2.714312,1.113109 -3.153118,2.233854 C 87.550139,64.589789 85.507587,67.075 83.446705,69 81.385823,70.925 81.338278,69.837694 80.485489,70.227126 79.343746,70.748511 73.2375,76.682592 69.25,80.638076 65.2625,84.59356 62,88.679871 62,89.718766 62,90.757661 60.516077,93.045941 58.702393,94.803833 56.888709,96.561725 54.964257,98 54.425832,98 53.887408,98 52.221331,99.890076 50.72344,102.20017 49.225548,104.51026 48,106.93016 48,107.57772 c 0,0.64757 -0.704272,1.76188 -1.565049,2.47627 -0.860776,0.71438 -2.773276,1.3733 -4.25,1.46427 -1.476723,0.091 -3.431611,-0.4712 -4.344197,-1.24928 -1.452122,-1.2381 -2.388346,-1.05285 -7.5,1.48396 -3.212414,1.59425 -20.8775742,11.77951 -22.510139,11.79185 -2.2749692,0.0172 -4.2325325,-0.703 -4.4402049,-0.91201 z M 21.564984,111.51618 C 24.389587,109.95765 35.053131,104.72305 35.431,104.11164 35.808869,103.50024 36.469245,103 36.898502,103 c 0.429257,0 1.293052,1.125 1.919544,2.5 0.626492,1.375 1.807891,2.5 2.625331,2.5 0.817441,0 1.985051,-0.93201 2.594689,-2.07113 0.609639,-1.13912 1.764533,-4.59006 2.566431,-7.668751 1.001448,-3.844822 2.057737,-6.424047 1.331619,-7.114129 -0.629685,-0.598435 -1.1585,-1.265229 -1.715145,-1.643566 -0.585823,-0.398168 -8.102025,-8.39671 -7.947533,-8.220045 0.09375,0.107205 0.904395,1.154538 0.641031,0.876757 -0.345895,-0.36483 -1.959394,-2.472307 -2.92564,-2.837024 -2.268363,-0.856212 -4.949436,0.70626 -9.387417,2.102172 -3.100123,0.975108 -6.084393,2.609658 -6.631712,3.632333 -0.777932,1.453578 -0.570184,2.08683 0.951846,2.901396 C 21.99238,88.531106 23.796275,89 24.9302,89 c 1.762917,0 1.329089,0.905712 -2.993697,6.25 -2.780459,3.4375 -7.556199,9.92042 -10.612757,14.40648 -3.0565569,4.48606 -5.0594258,8.56571 -4.8815443,9.25 0.084977,0.3269 -9.388e-4,0.68205 0.2256156,0.87489 0.2677387,0.2279 0.935347,0.21854 1.1411997,0.2185 0.3800406,-7e-5 11.051797,-6.99161 13.755967,-8.48369 z M 58.851112,85.806273 c 0.378811,-0.16845 -0.378812,0.16845 0,0 z"
         id="path3581"
         sodipodi:nodetypes="ssssssssssssssssssssssssssssssssssssssssssssssssssssssssssssssssss" />
      <path
         style="fill:url(#linearGradient6697);fill-opacity:1;stroke-width:0.0966092"
         d="m 432.40952,368.55823 c -0.24391,-0.21066 -0.50295,-0.36841 -0.87579,-0.92245 -0.85936,-1.27698 -2.95918,-3.77883 -6.71408,-7.78352 -2.56208,-2.73251 -3.21111,-3.5175 -3.68174,-4.45523 -0.3341,-0.6657 -0.38124,-0.79823 -0.37918,-1.56138 0.002,-0.70354 0.15248,-0.97348 0.38148,-1.4438 0.74763,-1.53529 2.05358,-3.04381 7.35602,-8.3055 4.26083,-4.22809 5.65697,-5.41768 6.99635,-6.08286 0.78306,-0.38888 0.89139,-0.45738 1.6688,-0.45829 0.76091,-8.9e-4 0.87359,0.10477 1.55842,0.38886 0.42355,0.1757 1.03124,0.59374 1.41439,0.86276 1.47505,1.03568 6.8102,6.46861 7.99085,7.85219 2.33467,2.73598 2.02152,4.3593 -1.97876,8.74297 -2.88761,3.16436 -12.82915,13.29804 -13.0396,13.27956 -0.0521,0.043 -0.15906,0.0559 -0.24504,0.049 -0.26805,-0.0216 -0.35327,-0.0769 -0.45212,-0.16231 z"
         id="path4613"
         transform="translate(-374.18237,-282.88385)"
         sodipodi:nodetypes="ssssssssssssscss" />
    </g>
    <path
       style="fill:#59514b;fill-opacity:1;stroke-width:0.0883883"
       d="m 453.02114,348.34706 c -1.24388,-0.93632 -4.59015,-4.27556 -8.56172,-8.54373 -4.09511,-4.40094 -5.02071,-5.57404 -5.26724,-6.67566 -0.133,-0.5943 0.0197,-1.10168 0.64938,-2.1575 1.02585,-1.72015 2.43149,-2.99715 3.30579,-3.00327 0.49555,-0.003 1.2989,0.70729 5.06996,4.48558 2.01746,2.02132 5.15617,5.1299 6.97491,6.90795 1.81873,1.77804 3.45735,3.42266 3.64137,3.65471 0.33294,0.41984 0.33397,0.42364 0.20914,0.77744 -0.33079,0.93755 -1.95554,2.79077 -3.39007,3.86676 -0.78998,0.59255 -1.66431,1.07688 -1.94399,1.07688 -0.0938,0 -0.40319,-0.17512 -0.68753,-0.38916 z"
       id="path10418"
       transform="scale(0.26458333)" />
    <path
       style="fill:#59514b;fill-opacity:1;stroke-width:0.03125"
       d="m 426.07812,376.54754 c -0.53375,-0.11747 -1.07357,-0.48479 -2.0625,-1.40346 -0.12031,-0.11177 -0.46539,-0.436 -0.76685,-0.72052 -1.41401,-1.33456 -2.44831,-2.09155 -2.86205,-2.09469 -0.0857,-6.5e-4 -0.14717,-0.0555 -0.5,-0.446 -0.74142,-0.82048 -1.97488,-2.10476 -5.2299,-5.44537 -2.22862,-2.28722 -2.21932,-2.27745 -2.21932,-2.33181 0,-0.0691 -0.22114,-0.41463 -0.68786,-1.07495 -1.17111,-1.65687 -1.50741,-2.36789 -1.50741,-3.18699 0,-0.89486 0.52499,-1.88931 1.34769,-2.55283 0.78338,-0.6318 1.8079,-1.10777 2.65712,-1.23444 0.67101,-0.10009 1.67323,-0.0682 2.49016,0.38628 1.50679,0.83833 3.39148,3.04873 7.51481,7.47911 3.18518,3.42238 6.20212,7.11132 6.78546,8.29688 0.10772,0.21892 0.12157,0.27175 0.11143,0.42497 -0.0451,0.68076 -1.20705,1.9795 -2.57926,2.88283 -1.13256,0.74556 -1.66641,1.00133 -2.15928,1.03454 -0.11398,0.008 -0.26349,0.002 -0.33224,-0.0135 z"
       id="path11607"
       transform="scale(0.26458333)"
       sodipodi:nodetypes="cssscsscssscsscsccc" />
    <path
       style="fill:url(#linearGradient16164);fill-opacity:1;stroke-width:0.125"
       d="m 462.43682,340.16243 c -1.99325,-1.45788 -5.26186,-4.4491 -8.93752,-8.17901 -4.65965,-4.72844 -6.06406,-6.44754 -6.43701,-7.8794 -0.25368,-0.97391 -0.10801,-2.06018 0.69274,-5.16615 1.29386,-5.01858 3.02849,-8.27867 6.27749,-11.79799 1.66558,-1.80416 2.10629,-1.9595 3.62038,-1.17033 1.38124,0.71992 2.39991,2.34545 7.22026,7.12231 7.82294,7.75235 17.25225,16.72916 17.92011,17.69289 l 0.34907,0.50371 -0.25344,0.49679 c -0.382,0.74879 -1.63588,1.92864 -2.72811,2.56706 -2.46404,1.44025 -9.67941,4.31025 -14.60005,5.80734 -2.402,0.7308 -2.12889,0.73056 -3.12392,0.003 z"
       id="path15402"
       transform="scale(0.26458333)"
       sodipodi:nodetypes="csscsssscssscc" />
    <path
       style="fill:#6e6e6d;fill-opacity:1;stroke-width:0.125"
       d="m 485.92618,326.72562 c -4.86983,-4.3292 -18.56825,-17.70215 -21.57848,-21.06578 -2.55621,-2.85631 -3.70375,-4.53279 -3.54248,-5.17535 0.11506,-0.45844 1.04051,-1.31891 1.75755,-1.63415 1.72033,-0.75634 5.54013,-2.17921 6.75389,-2.51582 2.0328,-0.56375 3.51585,-0.83921 7.12084,-1.3226 6.81198,-0.91342 9.86604,-1.18651 10.83376,-0.96876 1.93155,0.43464 4.89819,2.9257 5.35592,4.49732 0.54328,1.86538 -0.008,6.62863 -1.76442,15.23399 -1.15165,5.64366 -3.08156,13.10542 -3.59217,13.88865 -0.0784,0.12026 -0.43167,-0.12608 -1.34441,-0.9375 z"
       id="path15404"
       transform="scale(0.26458333)" />
    <path
       style="display:inline;fill:#ff0000;fill-opacity:1;stroke-width:0.264583"
       d="m 126.93691,77.700147 c 3.21498,3.285971 3.3994,3.467217 3.3994,3.467217"
       id="path16948"
       sodipodi:nodetypes="cc" />
    <path
       style="display:inline;fill:#00ff00;fill-opacity:1;stroke-width:0.264583"
       d="m 126.47194,77.805499 4.25627,3.788545"
       id="path17191" />
    <path
       style="display:inline;fill:#494a4a;fill-opacity:1;stroke-width:0.0110485"
       d="m 486.40108,300.43354 c -3.19939,-3.26336 -5.81848,-5.93667 -5.82022,-5.9407 -0.002,-0.004 0.0231,-0.0105 0.0553,-0.0144 3.31384,-0.4019 5.30706,-0.55542 6.2511,-0.48147 0.43798,0.0343 0.87215,0.16659 1.4358,0.43745 1.6609,0.79813 3.5246,2.46679 4.13188,3.69948 0.19279,0.39133 0.27908,0.7649 0.33817,1.46393 0.0241,0.28535 0.0331,1.04401 0.0173,1.45841 -0.0512,1.34195 -0.22082,2.91036 -0.54277,5.02052 -0.024,0.15742 -0.045,0.28711 -0.0465,0.28819 -0.002,10e-4 -2.62056,-2.66806 -5.81994,-5.93141 z"
       id="path17396"
       transform="scale(0.26458333)" />
  </g>
</svg>
