<?xml version="1.0" encoding="UTF-8" standalone="no"?>
<!-- Created with Inkscape (http://www.inkscape.org/) -->

<svg
   width="31.828806mm"
   height="30.532804mm"
   viewBox="0 0 31.828806 30.532804"
   version="1.1"
   id="svg3648"
   sodipodi:docname="soldier.svg"
   inkscape:version="1.2 (dc2aedaf03, 2022-05-15)"
   xmlns:inkscape="http://www.inkscape.org/namespaces/inkscape"
   xmlns:sodipodi="http://sodipodi.sourceforge.net/DTD/sodipodi-0.dtd"
   xmlns:xlink="http://www.w3.org/1999/xlink"
   xmlns="http://www.w3.org/2000/svg"
   xmlns:svg="http://www.w3.org/2000/svg">
  <sodipodi:namedview
     id="namedview3650"
     pagecolor="#505050"
     bordercolor="#eeeeee"
     borderopacity="1"
     inkscape:showpageshadow="0"
     inkscape:pageopacity="0"
     inkscape:pagecheckerboard="0"
     inkscape:deskcolor="#505050"
     inkscape:document-units="mm"
     showgrid="false"
     inkscape:zoom="4"
     inkscape:cx="-141.125"
     inkscape:cy="-13"
     inkscape:window-width="2560"
     inkscape:window-height="1367"
     inkscape:window-x="0"
     inkscape:window-y="0"
     inkscape:window-maximized="1"
     inkscape:current-layer="layer1" />
  <defs
     id="defs3645">
    <linearGradient
       inkscape:collect="always"
       id="linearGradient16162">
      <stop
         style="stop-color:#6e6f6f;stop-opacity:1;"
         offset="0"
         id="stop16158" />
      <stop
         style="stop-color:#c8c8c8;stop-opacity:1;"
         offset="0.5"
         id="stop16160" />
      <stop
         style="stop-color:#6e6f6f;stop-opacity:1;"
         offset="1"
         id="stop16166" />
    </linearGradient>
    <linearGradient
       inkscape:collect="always"
       id="linearGradient6695">
      <stop
         style="stop-color:#6e6f6f;stop-opacity:1;"
         offset="0"
         id="stop6691" />
      <stop
         style="stop-color:#c8c8c8;stop-opacity:1;"
         offset="0.49973732"
         id="stop6693" />
      <stop
         style="stop-color:#6e6f6f;stop-opacity:1;"
         offset="1"
         id="stop7512" />
    </linearGradient>
    <linearGradient
       inkscape:collect="always"
       xlink:href="#linearGradient6695"
       id="linearGradient6697"
       x1="431.25"
       y1="348.625"
       x2="437.75"
       y2="355"
       gradientUnits="userSpaceOnUse" />
    <linearGradient
       inkscape:collect="always"
       xlink:href="#linearGradient16162"
       id="linearGradient16164"
       x1="458.82391"
       y1="319.65646"
       x2="465.49722"
       y2="326.06461"
       gradientUnits="userSpaceOnUse" />
  </defs>
  <g
     inkscape:label="Layer 1"
     inkscape:groupmode="layer"
     id="layer1"
     transform="translate(-99.717361,-77.005369)">
    <g
       id="g3579"
       transform="matrix(0.26458333,0,0,0.26458333,99.002418,74.846351)">
      <path
         style="display:none;fill:#fefefe"
         d="M 0,64 C 0,0 0,0 64,0 c 64,0 64,0 64,64 0,64 0,64 -64,64 C 0,128 0,128 0,64 Z m 12.166667,59.24215 c 0.183333,-0.41682 4.234317,-3.07448 9.002187,-5.90593 4.76787,-2.83144 10.353789,-5.75291 12.413154,-6.49215 2.96572,-1.06459 3.831671,-1.08415 4.164479,-0.0941 0.231099,0.6875 1.989823,1.25 3.908275,1.25 1.918452,0 4.067119,-0.57902 4.774816,-1.28672 0.707696,-0.7077 1.890926,-2.95762 2.629399,-4.99983 0.838783,-2.31962 3.706706,-5.801518 7.641851,-9.277859 C 60.199054,93.345229 63,90.040221 63,89.002812 c 0,-1.02742 0.871117,-2.144518 1.935815,-2.482441 1.064699,-0.337922 4.520106,-3.405746 7.678684,-6.817387 C 75.773077,76.291343 78.465707,73.725 78.59812,74 c 0.132414,0.275 1.463079,-0.625 2.957033,-2 2.709327,-2.493599 2.713166,-2.49402 1.499544,-0.164354 -0.669206,1.284606 -0.991235,2.56115 -0.71562,2.836764 0.275614,0.275615 1.250862,-0.643137 2.167216,-2.04167 0.916354,-1.398533 1.40017,-2.973069 1.075147,-3.498968 -0.325024,-0.525899 1.098688,-2.257047 3.163804,-3.846995 2.065116,-1.589949 6.735109,-4.329522 10.377762,-6.08794 4.779244,-2.307085 8.560094,-5.236375 13.581264,-10.522356 6.41326,-6.751494 6.97196,-7.687551 7.13322,-11.951153 0.0962,-2.544257 0.62162,-5.800674 1.16751,-7.236482 0.54589,-1.435808 1.2743,-5.642278 1.61869,-9.347712 0.57714,-6.209819 0.43063,-6.964454 -1.87176,-9.641145 C 118.62809,8.0288847 117.59854,7.6242792 113.87701,7.7962129 111.46965,7.9074321 106.575,8.4860512 103,9.0820331 99.425,9.678015 94.7,10.671997 92.5,11.290882 c -2.2,0.618885 -4.225,1.375303 -4.5,1.680929 -0.275,0.305626 -2.975,2.557712 -6,5.004635 -3.025,2.446923 -6.9625,5.905932 -8.75,7.686686 C 71.4625,27.443887 70,29.658464 70,30.584415 70,31.510365 69.478771,34.00767 68.841712,36.13398 68.204654,38.260291 67.304654,40 66.841712,40 66.378771,40 65.1,40.9 64,42 c -1.1,1.1 -2,2.246487 -2,2.547749 0,0.301262 -1.195532,1.65573 -2.656737,3.00993 -1.461205,1.354199 -2.390812,2.728106 -2.065792,3.053126 0.32502,0.32502 -1.291948,2.339941 -3.593263,4.477604 -2.301314,2.137662 -4.502739,3.892268 -4.892054,3.899125 -0.389316,0.0069 -1.893473,2.035584 -3.342571,4.508284 -2.119729,3.617044 -3.056427,4.394955 -4.792154,3.979798 -1.531623,-0.366338 -3.203426,0.48395 -5.763441,2.931316 -1.983307,1.896035 -5.133307,4.378444 -7,5.516464 -1.866693,1.13802 -4.216103,2.07081 -5.220911,2.072866 -1.004808,0.0021 -3.142308,1.319123 -4.75,2.926815 C 16.280195,82.565958 15,84.921121 15,86.300632 15,87.650595 15.675,89.315311 16.5,90 17.325,90.684689 18,91.864789 18,92.622445 18,93.3801 17.647023,94 17.215608,94 c -0.431416,0 -1.572185,1.333626 -2.535042,2.963613 -0.962858,1.629988 -2.318845,3.542487 -3.013306,4.249997 -0.694461,0.70752 -3.0158046,3.93921 -5.1585418,7.18154 -2.2209922,3.36075 -4.0122007,7.3721 -4.1664401,9.3306 -0.1488049,1.88949 0.2758078,4.05706 0.9435838,4.81681 0.667776,0.75975 2.8641381,1.39848 4.8808048,1.4194 2.0166663,0.0209 3.8166663,-0.30299 4.0000003,-0.71981 z M 89,62.5 C 89,62.225 89.225,62 89.5,62 89.775,62 90,62.225 90,62.5 90,62.775 89.775,63 89.5,63 89.225,63 89,62.775 89,62.5 Z"
         id="path3597" />
      <path
         style="display:inline;fill:#ffd08c;fill-opacity:1"
         d="m 15.220892,108.16016 c 1.44178,-1.50074 5.715196,-6.73967 9.613657,-11.685218 3.898461,-4.945552 7.088111,-9.310955 7.088111,-9.727903 0,-0.416948 -1.193306,-0.67659 -2.705806,-0.685012 -2.142937,-0.01193 -2.429923,-0.372933 -1.261048,-1.128318 0.825,-0.533156 3.231694,-0.976265 5.294194,-0.984687 2.0625,-0.0084 3.800666,0.372812 3.800666,0.863968 0,0.491156 -0.725666,1.232054 -1.550666,1.548636 C 34.675,86.678209 34,87.772912 34,88.794301 34,89.81569 32.875,91.708255 31.5,93 30.125,94.291745 29,95.945187 29,96.674314 29,97.403441 29.845044,98 30.877876,98 c 1.032832,0 3.620332,-0.719814 5.75,-1.599586 2.129668,-0.879772 4.614949,-2.236989 5.522847,-3.043045 0.971577,-0.862593 2.005929,-1.21322 2.356026,-0.646752 0.32715,0.52934 0.315575,2.502286 -0.02573,4.208774 -0.3413,1.706488 -1.24873,3.146899 -1.89498,3.146899 -0.295361,0 -0.865175,0.16653 -1.31065,-0.0409 -0.529227,-0.246474 -1.015679,-0.951665 -1.356616,-1.292602 -0.234875,-0.234875 -0.402067,-0.212212 -0.599723,-0.124526 -0.469424,0.208249 -1.110683,1.142133 -3.238532,2.449508 -0.239841,0.14736 -1.676948,0.64658 -1.859615,0.89955 -1.145771,1.58677 -3.764538,2.89793 -6.589377,3.84154 -1.842576,0.6155 -3.85867,0.84242 -5.450124,1.63379 -4.0313,2.0046 -8.037914,3.68892 -8.647014,3.68892 -0.6091,0 -0.138098,-1.0622 1.303681,-2.56294 z"
         id="path3595"
         sodipodi:nodetypes="sssssssssssssssssssssssssss" />
      <path
         style="display:inline;fill:#fdfa02;fill-opacity:1"
         d="m 29,96.674314 c 0,-0.729127 1.050289,-2.511525 2.42266,-3.729557 1.415494,-1.256306 1.60388,-2.757546 1.825897,-3.742322 0.0844,-0.374366 0.771573,-1.344513 1.008597,-1.763658 0.371203,-0.656426 0.69083,-1.436681 1.376919,-1.803864 0.585697,-0.313456 1.056211,-0.682307 1.464099,-0.804222 0.819968,-0.245084 2.427144,1.168466 4.096724,2.955758 1.94235,2.079293 3.327975,3.838613 2.985601,4.755497 -0.09251,0.24775 -0.983787,0.105121 -1.273404,0.337621 -0.842296,0.676178 -3.283712,2.334677 -5.6746,3.359532 -2.390888,1.024854 -5.283093,1.827192 -6.337495,1.827192 C 29.840596,98.066291 29,97.403441 29,96.674314 Z"
         id="path3593"
         sodipodi:nodetypes="ssssssssssss" />
      <path
         style="display:none;fill:#a1a1a1"
         d="M 4,123.5 C 4,123.225 4.225,123 4.5,123 4.775,123 5,123.225 5,123.5 5,123.775 4.775,124 4.5,124 4.225,124 4,123.775 4,123.5 Z m 7,0 c 0,-0.275 0.225,-0.5 0.5,-0.5 0.275,0 0.5,0.225 0.5,0.5 0,0.275 -0.225,0.5 -0.5,0.5 -0.275,0 -0.5,-0.225 -0.5,-0.5 z m -9,-2 C 2,121.225 2.225,121 2.5,121 2.775,121 3,121.225 3,121.5 3,121.775 2.775,122 2.5,122 2.225,122 2,121.775 2,121.5 Z m 2,0 C 4,121.225 4.225,121 4.5,121 4.775,121 5,121.225 5,121.5 5,121.775 4.775,122 4.5,122 4.225,122 4,121.775 4,121.5 Z m 11,-1 c 0,-0.275 0.225,-0.5 0.5,-0.5 0.275,0 0.5,0.225 0.5,0.5 0,0.275 -0.225,0.5 -0.5,0.5 -0.275,0 -0.5,-0.225 -0.5,-0.5 z m -13,-1 C 2,119.225 2.225,119 2.5,119 2.775,119 3,119.225 3,119.5 3,119.775 2.775,120 2.5,120 2.225,120 2,119.775 2,119.5 Z M 2,117 c 0,-0.73333 0.3,-1.03333 0.6666667,-0.66667 0.3666666,0.36667 0.3666666,0.96667 0,1.33334 C 2.3,118.03333 2,117.73333 2,117 Z m 20,-0.5 c 0,-0.275 0.225,-0.5 0.5,-0.5 0.275,0 0.5,0.225 0.5,0.5 0,0.275 -0.225,0.5 -0.5,0.5 -0.275,0 -0.5,-0.225 -0.5,-0.5 z m 3,-2 c 0,-0.275 0.225,-0.5 0.5,-0.5 0.275,0 0.5,0.225 0.5,0.5 0,0.275 -0.225,0.5 -0.5,0.5 -0.275,0 -0.5,-0.225 -0.5,-0.5 z m -22,-1 C 3,113.225 3.225,113 3.5,113 3.775,113 4,113.225 4,113.5 4,113.775 3.775,114 3.5,114 3.225,114 3,113.775 3,113.5 Z m 1,-2 C 4,111.225 4.225,111 4.5,111 4.775,111 5,111.225 5,111.5 5,111.775 4.775,112 4.5,112 4.225,112 4,111.775 4,111.5 Z m 41,0 c 0,-0.275 0.225,-0.5 0.5,-0.5 0.275,0 0.5,0.225 0.5,0.5 0,0.275 -0.225,0.5 -0.5,0.5 -0.275,0 -0.5,-0.225 -0.5,-0.5 z m -12,-1 c 0,-0.275 0.225,-0.5 0.5,-0.5 0.275,0 0.5,0.225 0.5,0.5 0,0.275 -0.225,0.5 -0.5,0.5 -0.275,0 -0.5,-0.225 -0.5,-0.5 z m 14,-1 c 0,-0.275 0.225,-0.5 0.5,-0.5 0.275,0 0.5,0.225 0.5,0.5 0,0.275 -0.225,0.5 -0.5,0.5 -0.275,0 -0.5,-0.225 -0.5,-0.5 z m -40,-2 C 7,107.225 7.225,107 7.5,107 7.775,107 8,107.225 8,107.5 8,107.775 7.775,108 7.5,108 7.225,108 7,107.775 7,107.5 Z m 41,-1 c 0,-0.275 0.225,-0.5 0.5,-0.5 0.275,0 0.5,0.225 0.5,0.5 0,0.275 -0.225,0.5 -0.5,0.5 -0.275,0 -0.5,-0.225 -0.5,-0.5 z m -40,-1 C 8,105.225 8.225,105 8.5,105 8.775,105 9,105.225 9,105.5 9,105.775 8.775,106 8.5,106 8.225,106 8,105.775 8,105.5 Z m 41,-1 c 0,-0.275 0.225,-0.5 0.5,-0.5 0.275,0 0.5,0.225 0.5,0.5 0,0.275 -0.225,0.5 -0.5,0.5 -0.275,0 -0.5,-0.225 -0.5,-0.5 z m -39,-2 c 0,-0.275 0.225,-0.5 0.5,-0.5 0.275,0 0.5,0.225 0.5,0.5 0,0.275 -0.225,0.5 -0.5,0.5 -0.275,0 -0.5,-0.225 -0.5,-0.5 z m 4,-5 C 14,97.225 14.225,97 14.5,97 14.775,97 15,97.225 15,97.5 15,97.775 14.775,98 14.5,98 14.225,98 14,97.775 14,97.5 Z m 2,-3 C 16,94.225 16.225,94 16.5,94 16.775,94 17,94.225 17,94.5 17,94.775 16.775,95 16.5,95 16.225,95 16,94.775 16,94.5 Z m 46.078947,-5.083333 c 0.04798,-1.164943 0.284941,-1.4019 0.604167,-0.604167 0.288871,0.721875 0.253344,1.584375 -0.07895,1.916667 -0.332292,0.332291 -0.568641,-0.258334 -0.52522,-1.3125 z M 15.157895,86 c 0,-1.375 0.226973,-1.9375 0.504386,-1.25 0.277412,0.6875 0.277412,1.8125 0,2.5 -0.277413,0.6875 -0.504386,0.125 -0.504386,-1.25 z M 70.945193,79.651469 C 75.040049,75.443161 78.752549,72 79.195193,72 79.637837,72 80,72.45 80,73 c 0,0.55 -0.373684,0.8875 -0.830409,0.75 -0.456725,-0.1375 -3.216787,2.353811 -6.133471,5.536248 -2.916684,3.182436 -6.2555,6.288097 -7.419591,6.901469 -1.164091,0.613372 1.233808,-2.32794 5.328664,-6.536248 z m -19.486312,-1.718 c -0.362533,-0.586592 -0.501591,-1.240381 -0.309017,-1.452864 0.192575,-0.212483 4.138387,-4.253221 8.768472,-8.979419 7.610154,-7.768127 8.567407,-8.444014 9.971122,-7.0403 1.403714,1.403715 0.741656,2.368151 -6.896259,10.04595 C 58.346225,75.178076 53.998278,79 53.331095,79 52.663911,79 51.821415,78.520061 51.458881,77.933469 Z M 82.419318,72.5 C 82.601444,70.682996 83.366721,69.372503 84.36001,69.176676 85.262005,68.998848 86,69.286495 86,69.815892 86,70.345289 85.126688,71.840785 84.059307,73.139216 82.118615,75.5 82.118615,75.5 82.419318,72.5 Z M 84,70.5 C 84,70.225 83.775,70 83.5,70 83.225,70 83,70.225 83,70.5 c 0,0.275 0.225,0.5 0.5,0.5 0.275,0 0.5,-0.225 0.5,-0.5 z m -44,-3 C 40,67.225 40.225,67 40.5,67 40.775,67 41,67.225 41,67.5 41,67.775 40.775,68 40.5,68 40.225,68 40,67.775 40,67.5 Z m 49,-3.212768 c 0,-0.443376 0.94382,-1.395564 2.097379,-2.115973 1.153558,-0.720409 2.234485,-1.166155 2.402059,-0.990547 0.167574,0.175608 -0.776246,1.127796 -2.097379,2.115973 C 90.080927,64.284862 89,64.730608 89,64.287232 Z M 46.631585,61.746965 c 0.477628,-0.824255 2.349921,-2.735512 4.16065,-4.247237 1.810729,-1.511725 3.533225,-2.507601 3.82777,-2.213057 0.294544,0.294544 -1.107459,1.651978 -3.115563,3.01652 -2.008104,1.364542 -3.58435,2.855796 -3.50277,3.313897 0.08158,0.458102 -0.388709,1.011924 -1.045087,1.230717 -0.805097,0.268366 -0.910847,-0.08983 -0.325,-1.10084 z M 96,60.5 C 96,60.225 96.225,60 96.5,60 96.775,60 97,60.225 97,60.5 97,60.775 96.775,61 96.5,61 96.225,61 96,60.775 96,60.5 Z m 10,-6 c 0,-0.275 0.225,-0.5 0.5,-0.5 0.275,0 0.5,0.225 0.5,0.5 0,0.275 -0.225,0.5 -0.5,0.5 -0.275,0 -0.5,-0.225 -0.5,-0.5 z M 55.733333,52.875912 c 0.678334,-0.683418 1.485241,-0.990671 1.793128,-0.682784 0.307888,0.307887 -0.247112,0.867048 -1.233333,1.242579 -1.425198,0.542685 -1.540062,0.427821 -0.559795,-0.559795 z M 57,50.517204 c 0,-0.330457 0.955534,-1.594515 2.123409,-2.809017 C 61.246819,45.5 61.246819,45.5 60.118032,47.694306 59.497199,48.901175 58.541665,50.165233 57.994623,50.503323 57.44758,50.841414 57,50.84766 57,50.517204 Z M 80.026256,49.531636 C 79.023702,48.323633 79.726393,47.006938 83.989233,42.105845 86.839119,38.82926 89.844209,35.890024 90.66721,35.574209 91.490211,35.258394 92.858021,35 93.706787,35 c 1.198777,0 1.407876,0.725382 0.936848,3.25 -0.410971,2.202729 -2.284924,4.780627 -5.815447,8 -2.864995,2.6125 -5.743281,4.75 -6.39619,4.75 -0.65291,0 -1.735494,-0.660764 -2.405742,-1.468364 z M 112.5,48 c 0.33992,-0.55 0.84303,-1 1.11803,-1 0.275,0 0.22189,0.45 -0.11803,1 -0.33992,0.55 -0.84303,1 -1.11803,1 -0.275,0 -0.22189,-0.45 0.11803,-1 z m 3.5,-3.5 c 0,-0.275 0.225,-0.5 0.5,-0.5 0.275,0 0.5,0.225 0.5,0.5 0,0.275 -0.225,0.5 -0.5,0.5 -0.275,0 -0.5,-0.225 -0.5,-0.5 z m -54,-1 C 62,43.225 62.225,43 62.5,43 62.775,43 63,43.225 63,43.5 63,43.775 62.775,44 62.5,44 62.225,44 62,43.775 62,43.5 Z m 2,-1 C 64,42.225 64.225,42 64.5,42 64.775,42 65,42.225 65,42.5 65,42.775 64.775,43 64.5,43 64.225,43 64,42.775 64,42.5 Z m 1,-2 C 65,40.225 65.225,40 65.5,40 65.775,40 66,40.225 66,40.5 66,40.775 65.775,41 65.5,41 65.225,41 65,40.775 65,40.5 Z m 2.333333,-0.166667 C 67.7,39.966667 68.3,39.966667 68.666667,40.333333 69.033333,40.7 68.733333,41 68,41 67.266667,41 66.966667,40.7 67.333333,40.333333 Z M 119,40 c 0,-0.733333 0.3,-1.033333 0.66667,-0.666667 0.36666,0.366667 0.36666,0.966667 0,1.333334 C 119.3,41.033333 119,40.733333 119,40 Z M 68,37.5 C 68,37.225 68.225,37 68.5,37 68.775,37 69,37.225 69,37.5 69,37.775 68.775,38 68.5,38 68.225,38 68,37.775 68,37.5 Z m 51,0 c 0,-0.275 0.225,-0.5 0.5,-0.5 0.275,0 0.5,0.225 0.5,0.5 0,0.275 -0.225,0.5 -0.5,0.5 -0.275,0 -0.5,-0.225 -0.5,-0.5 z m -50,-3 C 69,34.225 69.225,34 69.5,34 69.775,34 70,34.225 70,34.5 70,34.775 69.775,35 69.5,35 69.225,35 69,34.775 69,34.5 Z M 70,30 c 0,-0.733333 0.3,-1.033333 0.666667,-0.666667 0.366666,0.366667 0.366666,0.966667 0,1.333334 C 70.3,31.033333 70,30.733333 70,30 Z m 1,-2.5 C 71,27.225 71.225,27 71.5,27 71.775,27 72,27.225 72,27.5 72,27.775 71.775,28 71.5,28 71.225,28 71,27.775 71,27.5 Z m 50,0 c 0,-0.275 0.225,-0.5 0.5,-0.5 0.275,0 0.5,0.225 0.5,0.5 0,0.275 -0.225,0.5 -0.5,0.5 -0.275,0 -0.5,-0.225 -0.5,-0.5 z M 73.5,25 c 0.339919,-0.55 0.843034,-1 1.118034,-1 0.275,0 0.221885,0.45 -0.118034,1 -0.339919,0.55 -0.843034,1 -1.118034,1 -0.275,0 -0.221885,-0.45 0.118034,-1 z M 76,22.5 C 76,22.225 76.225,22 76.5,22 76.775,22 77,22.225 77,22.5 77,22.775 76.775,23 76.5,23 76.225,23 76,22.775 76,22.5 Z m 46,-1 c 0,-0.275 0.225,-0.5 0.5,-0.5 0.275,0 0.5,0.225 0.5,0.5 0,0.275 -0.225,0.5 -0.5,0.5 -0.275,0 -0.5,-0.225 -0.5,-0.5 z m -41,-3 C 81,18.225 81.225,18 81.5,18 81.775,18 82,18.225 82,18.5 82,18.775 81.775,19 81.5,19 81.225,19 81,18.775 81,18.5 Z m 4,-3 C 85,15.225 85.225,15 85.5,15 85.775,15 86,15.225 86,15.5 86,15.775 85.775,16 85.5,16 85.225,16 85,15.775 85,15.5 Z m 3,-3 C 88,12.225 88.225,12 88.5,12 88.775,12 89,12.225 89,12.5 89,12.775 88.775,13 88.5,13 88.225,13 88,12.775 88,12.5 Z M 119.40499,9.75 C 117.5,7.5 117.5,7.5 119.75,9.4049876 120.9875,10.452731 122,11.465231 122,11.654988 122,11.844744 121.84474,12 121.65499,12 c -0.18976,0 -1.20226,-1.0125 -2.25,-2.25 z M 94,10.5 C 94,10.225 94.225,10 94.5,10 94.775,10 95,10.225 95,10.5 95,10.775 94.775,11 94.5,11 94.225,11 94,10.775 94,10.5 Z m 8,-1 c 0,-0.275 0.225,-0.5 0.5,-0.5 0.275,0 0.5,0.225 0.5,0.5 0,0.275 -0.225,0.5 -0.5,0.5 -0.275,0 -0.5,-0.225 -0.5,-0.5 z m 4.33333,-1.1666667 c 0.36667,-0.3666666 0.96667,-0.3666666 1.33334,0 C 108.03333,8.7 107.73333,9 107,9 106.26667,9 105.96667,8.7 106.33333,8.3333333 Z M 116,7.5 C 116,7.225 116.225,7 116.5,7 116.775,7 117,7.225 117,7.5 117,7.775 116.775,8 116.5,8 116.225,8 116,7.775 116,7.5 Z"
         id="path3591" />
      <path
         style="display:none;fill:#858585"
         d="m 7,117.90437 c 0,-0.6026 0.9306424,-2.4026 2.0680942,-4 1.1374518,-1.5974 2.9117978,-2.63112 4.3263048,-2.92145 1.05103,-0.21572 4.162301,-1.32709 7.240968,-2.96995 3.078666,-1.64287 5.92203,-2.33309 6.429869,-2.59469 0.776272,-0.39988 0.337142,-0.22156 0.883529,-0.50367 0.529426,-0.27336 0.211569,-0.0815 1.01476,-0.43715 0.569646,-0.25221 1.87994,-0.32092 3,-1.44099 C 33.083586,101.91641 34,101.30985 34,101.68856 c 0,0.37871 0.91753,-0.29629 2.038955,-1.5 C 37.16038,98.984853 38.483823,98 38.979938,98 c 0.496115,0 1.180143,0.45 1.520062,1 0.339919,0.55 1.210226,1 1.934017,1 0.723791,0 1.597707,-1.408618 1.942036,-3.130263 0.446045,-2.230225 0.04563,-4.069405 -1.392611,-6.396529 -1.110265,-1.796447 -3.119907,-3.987828 -4.46587,-4.869737 -1.345963,-0.881909 -3.925538,-1.59658 -5.732389,-1.588158 C 30.978332,84.023735 28.825,84.466844 28,85 c -1.168875,0.755385 -0.892937,0.972755 1.25,0.984687 1.5125,0.0084 2.75,0.364726 2.75,0.791787 0,0.427061 -2.495595,3.908198 -5.545766,7.73586 -3.050172,3.827662 -5.931704,7.479196 -6.457451,8.246096 -0.486909,0.71026 -0.61386,1.33359 -0.965244,1.65083 -0.396037,0.35756 -0.769002,0.95789 -1.643431,1.6836 -0.410868,0.34099 -1.62868,1.94865 -3.372607,3.69574 -0.246191,0.24664 -0.466741,0.99082 -0.724771,1.23768 -1.804167,1.72609 -3.8049627,2.85696 -4.1594895,2.909 -0.7920224,0.11624 5.5698705,-8.46457 7.7990475,-11.57758 2.151424,-3.004425 5.710718,-7.41432 7.909542,-9.799762 2.198824,-2.385443 4.596882,-4.585028 5.329016,-4.887968 C 30.900981,87.367031 28.9125,87.379315 25.75,87.697267 21.02551,88.17226 20,88.005121 20,86.760126 c 0,-0.83338 0.5625,-1.956562 1.25,-2.495959 0.6875,-0.539397 3.275,-1.649163 5.75,-2.466147 3.271396,-1.07987 5.31907,-1.221013 7.5,-0.516963 1.65,0.532654 4.278619,2.14982 5.841376,3.593703 1.562756,1.443882 3.75709,3.899521 4.876295,5.456976 1.997528,2.779703 2.002586,2.95119 0.275225,9.332575 -0.998974,3.690509 -2.432631,6.759069 -3.316325,7.098179 -0.856147,0.32853 -1.712346,0.13019 -1.902664,-0.44077 -0.190319,-0.57095 -0.968539,-1.88941 -1.729379,-2.92991 -1.348174,-1.84371 -1.442599,-1.83704 -3.713936,0.26234 -1.281826,1.18478 -4.109168,2.88737 -6.282983,3.78354 -2.173815,0.89616 -7.436414,3.86429 -11.694666,6.59585 C 12.594692,116.76509 8.6357679,119 8.0553341,119 7.4749004,119 7,118.50697 7,117.90437 Z"
         id="path3589"
         sodipodi:nodetypes="ssssssssssssssssssssssssssssssssssssssssssssss" />
      <path
         style="display:none;fill:#6b6b6b"
         d="m 6.5070792,119.01145 c -0.3503388,-0.56686 0.051058,-0.7345 0.940983,-0.39301 C 8.301628,118.94599 9,119.39083 9,119.60699 9,119.82314 8.5765576,120 8.059017,120 7.5414763,120 6.8431043,119.55515 6.5070792,119.01145 Z M 10.5,118 c 0.339919,-0.55 0.843034,-1 1.118034,-1 0.275,0 0.221885,0.45 -0.118034,1 -0.339919,0.55 -0.843034,1 -1.118034,1 -0.275,0 -0.221885,-0.45 0.118034,-1 z M 8,114.5 C 8,114.225 8.225,114 8.5,114 8.775,114 9,114.225 9,114.5 9,114.775 8.775,115 8.5,115 8.225,115 8,114.775 8,114.5 Z m 8,0 c 0,-0.275 0.225,-0.5 0.5,-0.5 0.275,0 0.5,0.225 0.5,0.5 0,0.275 -0.225,0.5 -0.5,0.5 -0.275,0 -0.5,-0.225 -0.5,-0.5 z m -5.5,-3.56912 c 1.1,-1.33698 2.375935,-2.70619 2.83541,-3.04268 0.459476,-0.3365 0.796976,-0.899 0.75,-1.25 -0.04697,-0.35101 0.103336,-0.5257 0.334026,-0.3882 0.23069,0.1375 1.669423,-0.875 3.197184,-2.25 2.027268,-1.82456 1.792804,-1.31941 -0.867818,1.8697 -2.005062,2.40333 -4.681295,5.07222 -5.947184,5.93087 C 8.5,113.36176 8.5,113.36176 10.5,110.93088 Z M 15,106.5 c 0,-0.275 -0.225,-0.5 -0.5,-0.5 -0.275,0 -0.5,0.225 -0.5,0.5 0,0.275 0.225,0.5 0.5,0.5 0.275,0 0.5,-0.225 0.5,-0.5 z m 4,6 c 0,-0.275 0.225,-0.5 0.5,-0.5 0.275,0 0.5,0.225 0.5,0.5 0,0.275 -0.225,0.5 -0.5,0.5 -0.275,0 -0.5,-0.225 -0.5,-0.5 z m 2.5,-1.5 c 0.339919,-0.55 0.843034,-1 1.118034,-1 0.275,0 0.221885,0.45 -0.118034,1 -0.339919,0.55 -0.843034,1 -1.118034,1 -0.275,0 -0.221885,-0.45 0.118034,-1 z m 2.5,-1.5 c 0,-0.275 0.225,-0.5 0.5,-0.5 0.275,0 0.5,0.225 0.5,0.5 0,0.275 -0.225,0.5 -0.5,0.5 -0.275,0 -0.5,-0.225 -0.5,-0.5 z m 2,-1 c 0,-0.275 0.225,-0.5 0.5,-0.5 0.275,0 0.5,0.225 0.5,0.5 0,0.275 -0.225,0.5 -0.5,0.5 -0.275,0 -0.5,-0.225 -0.5,-0.5 z m 2.333333,-1.16667 c 0.366667,-0.36666 0.966667,-0.36666 1.333334,0 C 30.033333,107.7 29.733333,108 29,108 c -0.733333,0 -1.033333,-0.3 -0.666667,-0.66667 z M 40,107.61663 c 0,-0.21085 0.900621,-0.61888 2.00138,-0.90674 1.100759,-0.28785 1.749201,-0.11534 1.440983,0.38337 C 43.134145,107.59197 42.233524,108 41.440983,108 40.648442,108 40,107.82748 40,107.61663 Z M 31,106.5 c 0,-0.275 0.225,-0.5 0.5,-0.5 0.275,0 0.5,0.225 0.5,0.5 0,0.275 -0.225,0.5 -0.5,0.5 -0.275,0 -0.5,-0.225 -0.5,-0.5 z m -4,-1 c 0,-0.275 0.225,-0.5 0.5,-0.5 0.275,0 0.5,0.225 0.5,0.5 0,0.275 -0.225,0.5 -0.5,0.5 -0.275,0 -0.5,-0.225 -0.5,-0.5 z m 11.146467,-1.20276 c -0.842774,-1.50596 -1.166368,-1.53485 -2.79969,-0.25 -1.695062,1.33341 -1.734029,1.30899 -0.474332,-0.29724 0.754844,-0.9625 1.751512,-1.75 2.214816,-1.75 0.463304,0 1.324037,0.9 1.912739,2 0.588702,1.1 0.851895,2 0.584874,2 -0.267022,0 -0.914305,-0.76624 -1.438407,-1.70276 z M 29,104.57037 c 0,-0.275 0.9,-0.98167 2,-1.57037 1.1,-0.5887 2,-0.84537 2,-0.57037 0,0.275 -0.9,0.98167 -2,1.57037 -1.1,0.5887 -2,0.84537 -2,0.57037 z M 44,103.5 c 0,-0.275 0.225,-0.5 0.5,-0.5 0.275,0 0.5,0.225 0.5,0.5 0,0.275 -0.225,0.5 -0.5,0.5 -0.275,0 -0.5,-0.225 -0.5,-0.5 z M 16.5,102 c 0.339919,-0.55 0.843034,-1 1.118034,-1 0.275,0 0.221885,0.45 -0.118034,1 -0.339919,0.55 -0.843034,1 -1.118034,1 -0.275,0 -0.221885,-0.45 0.118034,-1 z m 18,-1 c 0.339919,-0.55 0.843034,-1 1.118034,-1 0.275,0 0.221885,0.45 -0.118034,1 -0.339919,0.55 -0.843034,1 -1.118034,1 -0.275,0 -0.221885,-0.45 0.118034,-1 z m 10.5,0 c 0,-0.73333 0.3,-1.033333 0.666667,-0.66667 0.366666,0.36667 0.366666,0.96667 0,1.33334 C 45.3,102.03333 45,101.73333 45,101 Z m -25,-0.5 c 0,-0.275 0.225,-0.5 0.5,-0.5 0.275,0 0.5,0.225 0.5,0.5 0,0.275 -0.225,0.5 -0.5,0.5 -0.275,0 -0.5,-0.225 -0.5,-0.5 z m -1,-2 C 19,98.225 19.225,98 19.5,98 19.775,98 20,98.225 20,98.5 20,98.775 19.775,99 19.5,99 19.225,99 19,98.775 19,98.5 Z m 27,-2 C 46,96.225 46.225,96 46.5,96 46.775,96 47,96.225 47,96.5 47,96.775 46.775,97 46.5,97 46.225,97 46,96.775 46,96.5 Z m 0.236665,-4.260309 c -1.167556,-2.490619 -1.139803,-2.5714 0.366072,-1.065526 0.896173,0.896174 1.464674,2.108893 1.263334,2.694932 -0.201339,0.586039 -0.934572,-0.147194 -1.629406,-1.629406 z M 25.25,91.483721 c 0.9625,-1.161943 1.75,-2.64612 1.75,-3.298172 0,-0.652052 1.0125,-1.150023 2.25,-1.106602 1.319341,0.04629 1.680802,0.304963 0.873884,0.625372 -0.756864,0.300534 -2.556864,1.749185 -4,3.219226 -1.443136,1.47004 -1.836384,1.722119 -0.873884,0.560176 z m -2.4375,-3.166835 c 0.721875,-0.288871 1.584375,-0.253344 1.916667,0.07895 0.332291,0.332292 -0.258334,0.568641 -1.3125,0.52522 -1.164943,-0.04798 -1.4019,-0.284941 -0.604167,-0.604167 z M 40.946167,85.25 C 37.5,81.5 37.5,81.5 41.25,84.946167 43.3125,86.841559 45,88.529059 45,88.696167 45,88.863275 44.863275,89 44.696167,89 c -0.167108,0 -1.854608,-1.6875 -3.75,-3.75 z M 20.5,84 c 0.339919,-0.55 0.843034,-1 1.118034,-1 0.275,0 0.221885,0.45 -0.118034,1 -0.339919,0.55 -0.843034,1 -1.118034,1 -0.275,0 -0.221885,-0.45 0.118034,-1 z m 2.833333,-1.666667 C 23.7,81.966667 24.3,81.966667 24.666667,82.333333 25.033333,82.7 24.733333,83 24,83 23.266667,83 22.966667,82.7 23.333333,82.333333 Z M 27,81.5 C 27,81.225 27.225,81 27.5,81 27.775,81 28,81.225 28,81.5 28,81.775 27.775,82 27.5,82 27.225,82 27,81.775 27,81.5 Z M 33.5,81 C 32.18126,80.433318 32.010945,80.121845 33,80.085598 33.825,80.055363 35.175,80.466844 36,81 c 0.825,0.533156 1.05,0.944637 0.5,0.914402 C 35.95,81.884167 34.6,81.472686 33.5,81 Z M 29.333333,80.333333 C 29.7,79.966667 30.3,79.966667 30.666667,80.333333 31.033333,80.7 30.733333,81 30,81 29.266667,81 28.966667,80.7 29.333333,80.333333 Z"
         id="path3587" />
      <path
         style="display:none;fill:#696969"
         d="M 7.3333333,123.33333 C 7.7,122.96667 8.3,122.96667 8.6666667,123.33333 9.0333333,123.7 8.7333333,124 8,124 7.2666667,124 6.9666667,123.7 7.3333333,123.33333 Z M 4,122.5 C 4,122.225 4.225,122 4.5,122 4.775,122 5,122.225 5,122.5 5,122.775 4.775,123 4.5,123 4.225,123 4,122.775 4,122.5 Z m 16,-5 c 0,-0.275 0.225,-0.5 0.5,-0.5 0.275,0 0.5,0.225 0.5,0.5 0,0.275 -0.225,0.5 -0.5,0.5 -0.275,0 -0.5,-0.225 -0.5,-0.5 z m -18,-2 C 2,115.225 2.225,115 2.5,115 2.775,115 3,115.225 3,115.5 3,115.775 2.775,116 2.5,116 2.225,116 2,115.775 2,115.5 Z M 27.5,113 c 0.339919,-0.55 0.843034,-1 1.118034,-1 0.275,0 0.221885,0.45 -0.118034,1 -0.339919,0.55 -0.843034,1 -1.118034,1 -0.275,0 -0.221885,-0.45 0.118034,-1 z m 8.5,-3.5 c 0,-0.275 0.225,-0.5 0.5,-0.5 0.275,0 0.5,0.225 0.5,0.5 0,0.275 -0.225,0.5 -0.5,0.5 -0.275,0 -0.5,-0.225 -0.5,-0.5 z M 15,88.5 C 15,88.225 15.225,88 15.5,88 15.775,88 16,88.225 16,88.5 16,88.775 15.775,89 15.5,89 15.225,89 15,88.775 15,88.5 Z M 56.853836,82.57855 C 56.20766,81.160347 55.141295,80 54.484138,80 53.82698,80 57.386712,75.96429 62.394653,71.031756 71.5,62.063512 71.5,62.063512 73.952025,64.506508 c 2.452026,2.442997 2.452026,2.442997 -6,11.218245 -4.648614,4.826386 -8.783067,8.923094 -9.187674,9.103797 -0.404607,0.180702 -1.264339,-0.831798 -1.910515,-2.25 z M 66,84.5 C 66,84.225 66.225,84 66.5,84 66.775,84 67,84.225 67,84.5 67,84.775 66.775,85 66.5,85 66.225,85 66,84.775 66,84.5 Z m -45,-6 C 21,78.225 21.225,78 21.5,78 21.775,78 22,78.225 22,78.5 22,78.775 21.775,79 21.5,79 21.225,79 21,78.775 21,78.5 Z m 27.098577,-4.683381 c -2.401423,-2.998622 -2.401423,-2.998622 5.602929,-11.002974 8.004353,-8.004352 8.004353,-8.004352 12.083575,-5.923289 2.243572,1.144585 4.421135,2.649995 4.839029,3.345354 0.610516,1.015877 0.455219,1.017745 -0.790378,0.0095 C 68.51583,59.178446 66.951189,60.32588 59.391774,67.902831 50.5,76.815241 50.5,76.815241 48.098577,73.816619 Z M 30,74.5 C 30,74.225 30.225,74 30.5,74 30.775,74 31,74.225 31,74.5 31,74.775 30.775,75 30.5,75 30.225,75 30,74.775 30,74.5 Z m 49.404508,-2.654508 c -0.442079,-0.7153 -0.274316,-0.883063 0.440984,-0.440984 C 80.480471,71.796948 81,72.316476 81,72.559017 81,72.801558 80.801558,73 80.559017,73 80.316476,73 79.796948,72.480471 79.404508,71.845492 Z M 84.5,68 c 0.339919,-0.55 0.843034,-1 1.118034,-1 0.275,0 0.221885,0.45 -0.118034,1 -0.339919,0.55 -0.843034,1 -1.118034,1 -0.275,0 -0.221885,-0.45 0.118034,-1 z M 44,65.5 C 44,65.225 44.225,65 44.5,65 44.775,65 45,65.225 45,65.5 45,65.775 44.775,66 44.5,66 44.225,66 44,65.775 44,65.5 Z m 43.731213,-1.580159 c 0.353609,-1.352204 0.806902,-1.805497 1.05655,-1.056551 0.240481,0.721441 -0.03821,1.787158 -0.619313,2.36826 -0.742068,0.742068 -0.872211,0.351636 -0.437237,-1.311709 z M 45,63.5 C 45,63.225 45.225,63 45.5,63 45.775,63 46,63.225 46,63.5 46,63.775 45.775,64 45.5,64 45.225,64 45,63.775 45,63.5 Z m 45,-1 C 90,62.225 90.225,62 90.5,62 90.775,62 91,62.225 91,62.5 91,62.775 90.775,63 90.5,63 90.225,63 90,62.775 90,62.5 Z M 48.083333,60.717032 C 48.3125,60.5614 49.4,59.7739 50.5,58.967032 52.350006,57.610023 52.397071,57.631245 51.127555,59.25 50.372711,60.2125 49.285211,61 48.710889,61 48.136567,61 47.854167,60.872665 48.083333,60.717032 Z m 49.25,-1.383699 C 97.7,58.966667 98.3,58.966667 98.666667,59.333333 99.033333,59.7 98.733333,60 98,60 97.266667,60 96.966667,59.7 97.333333,59.333333 Z M 85.310631,54.18715 c -3.189368,-2.731568 -3.189368,-2.731568 0.06488,-4.961412 1.789834,-1.226414 4.454556,-3.482699 5.921604,-5.013967 1.467048,-1.531268 2.956604,-4.230345 3.310124,-5.997948 C 95.183385,35.333077 95.009191,35 92.92646,35 c -1.577682,0 -4.217565,2.061511 -8.223915,6.422138 -5.900375,6.422138 -5.900375,6.422138 -8.87861,3.030116 -2.919109,-3.324682 -2.955572,-3.501188 -1.836672,-8.890901 0.62786,-3.024383 1.933264,-6.476588 2.900898,-7.671566 1.105183,-1.364842 3.080719,-2.261227 5.313178,-2.410814 3.13931,-0.210351 4.381789,0.535172 10.651916,6.39145 5.546063,5.180005 6.978039,7.085318 6.549105,8.713893 -0.444161,1.686385 0.06675,2.260903 2.6761,3.009254 2.18836,0.627614 3.33357,1.63591 3.5626,3.136695 0.20125,1.318712 -0.54088,3.030132 -1.83799,4.238576 -1.19654,1.114749 -4.583609,2.927794 -7.526814,4.028988 -2.943205,1.101194 -5.896901,1.983883 -6.563769,1.96153 -0.666868,-0.02235 -2.647703,-1.269846 -4.401856,-2.772209 z M 105,55.5 c 0,-0.275 0.225,-0.5 0.5,-0.5 0.275,0 0.5,0.225 0.5,0.5 0,0.275 -0.225,0.5 -0.5,0.5 -0.275,0 -0.5,-0.225 -0.5,-0.5 z m -50,-1 C 55,54.225 55.225,54 55.5,54 55.775,54 56,54.225 56,54.5 56,54.775 55.775,55 55.5,55 55.225,55 55,54.775 55,54.5 Z m 3,-2 C 58,52.225 58.225,52 58.5,52 58.775,52 59,52.225 59,52.5 59,52.775 58.775,53 58.5,53 58.225,53 58,52.775 58,52.5 Z m 50,0 c 0,-0.275 0.225,-0.5 0.5,-0.5 0.275,0 0.5,0.225 0.5,0.5 0,0.275 -0.225,0.5 -0.5,0.5 -0.275,0 -0.5,-0.225 -0.5,-0.5 z M 60,48 c 0.588702,-1.1 1.295368,-2 1.570368,-2 0.275,0 0.01833,0.9 -0.570368,2 -0.588702,1.1 -1.295368,2 -1.570368,2 -0.275,0 -0.01833,-0.9 0.570368,-2 z m 2,-3.5 C 62,44.225 62.225,44 62.5,44 62.775,44 63,44.225 63,44.5 63,44.775 62.775,45 62.5,45 62.225,45 62,44.775 62,44.5 Z M 99.228409,30.983511 C 92.514111,24.269213 87.203699,18.488664 87.427495,18.137848 c 0.223796,-0.350816 1.906662,-1.367621 3.739703,-2.259565 1.833041,-0.891944 5.668834,-2.164246 8.523983,-2.827337 5.191179,-1.20562 5.191179,-1.20562 11.784109,5.387309 6.59293,6.592928 6.59293,6.592928 5.07453,11.705948 -0.83513,2.812161 -1.91505,5.617645 -2.39984,6.234409 -0.48479,0.616763 -1.29371,2.401936 -1.7976,3.967051 -0.91616,2.845664 -0.91616,2.845664 -13.123971,-9.362152 z M 65,41.5 C 65,41.225 65.225,41 65.5,41 65.775,41 66,41.225 66,41.5 66,41.775 65.775,42 65.5,42 65.225,42 65,41.775 65,41.5 Z m 53,0 c 0,-0.275 0.225,-0.5 0.5,-0.5 0.275,0 0.5,0.225 0.5,0.5 0,0.275 -0.225,0.5 -0.5,0.5 -0.275,0 -0.5,-0.225 -0.5,-0.5 z m 0,-2 c 0,-0.275 0.225,-0.5 0.5,-0.5 0.275,0 0.5,0.225 0.5,0.5 0,0.275 -0.225,0.5 -0.5,0.5 -0.275,0 -0.5,-0.225 -0.5,-0.5 z m 2,-9 c 0,-0.275 0.225,-0.5 0.5,-0.5 0.275,0 0.5,0.225 0.5,0.5 0,0.275 -0.225,0.5 -0.5,0.5 -0.275,0 -0.5,-0.225 -0.5,-0.5 z m -48,-4 C 72,26.225 72.225,26 72.5,26 72.775,26 73,26.225 73,26.5 73,26.775 72.775,27 72.5,27 72.225,27 72,26.775 72,26.5 Z m 49,0 c 0,-0.275 0.225,-0.5 0.5,-0.5 0.275,0 0.5,0.225 0.5,0.5 0,0.275 -0.225,0.5 -0.5,0.5 -0.275,0 -0.5,-0.225 -0.5,-0.5 z M 92,11.5 C 92,11.225 92.225,11 92.5,11 92.775,11 93,11.225 93,11.5 93,11.775 92.775,12 92.5,12 92.225,12 92,11.775 92,11.5 Z m 11,-2 c 0,-0.275 0.225,-0.5 0.5,-0.5 0.275,0 0.5,0.225 0.5,0.5 0,0.275 -0.225,0.5 -0.5,0.5 -0.275,0 -0.5,-0.225 -0.5,-0.5 z m 5,-1 C 108,8.225 108.225,8 108.5,8 108.775,8 109,8.225 109,8.5 109,8.775 108.775,9 108.5,9 108.225,9 108,8.775 108,8.5 Z"
         id="path3585" />
      <path
         style="display:none;fill:#515151"
         d="m 9,123.5 c 0,-0.275 0.225,-0.5 0.5,-0.5 0.275,0 0.5,0.225 0.5,0.5 0,0.275 -0.225,0.5 -0.5,0.5 C 9.225,124 9,123.775 9,123.5 Z m -6.5954915,-2.65451 c -0.4420793,-0.7153 -0.2743163,-0.88306 0.440983,-0.44098 C 3.4804712,120.79695 4,121.31648 4,121.55902 4,121.80156 3.8015576,122 3.559017,122 3.3164763,122 2.7969475,121.48047 2.4045085,120.84549 Z M 5,121.5 C 5,121.225 5.225,121 5.5,121 5.775,121 6,121.225 6,121.5 6,121.775 5.775,122 5.5,122 5.225,122 5,121.775 5,121.5 Z M 17.5,119 c 0.339919,-0.55 0.843034,-1 1.118034,-1 0.275,0 0.221885,0.45 -0.118034,1 -0.339919,0.55 -0.843034,1 -1.118034,1 -0.275,0 -0.221885,-0.45 0.118034,-1 z M 6,117.5 C 6,117.225 6.225,117 6.5,117 6.775,117 7,117.225 7,117.5 7,117.775 6.775,118 6.5,118 6.225,118 6,117.775 6,117.5 Z m 7,-1 c 0,-0.275 0.225,-0.5 0.5,-0.5 0.275,0 0.5,0.225 0.5,0.5 0,0.275 -0.225,0.5 -0.5,0.5 -0.275,0 -0.5,-0.225 -0.5,-0.5 z m -6,-1 C 7,115.225 7.225,115 7.5,115 7.775,115 8,115.225 8,115.5 8,115.775 7.775,116 7.5,116 7.225,116 7,115.775 7,115.5 Z m 8,0 c 0,-0.275 0.225,-0.5 0.5,-0.5 0.275,0 0.5,0.225 0.5,0.5 0,0.275 -0.225,0.5 -0.5,0.5 -0.275,0 -0.5,-0.225 -0.5,-0.5 z m 8,0 c 0,-0.275 0.225,-0.5 0.5,-0.5 0.275,0 0.5,0.225 0.5,0.5 0,0.275 -0.225,0.5 -0.5,0.5 -0.275,0 -0.5,-0.225 -0.5,-0.5 z m -5,-2 c 0,-0.275 0.225,-0.5 0.5,-0.5 0.275,0 0.5,0.225 0.5,0.5 0,0.275 -0.225,0.5 -0.5,0.5 -0.275,0 -0.5,-0.225 -0.5,-0.5 z m 13,-2 c 0,-0.275 0.225,-0.5 0.5,-0.5 0.275,0 0.5,0.225 0.5,0.5 0,0.275 -0.225,0.5 -0.5,0.5 -0.275,0 -0.5,-0.225 -0.5,-0.5 z m 7,0 c 0,-0.275 0.225,-0.5 0.5,-0.5 0.275,0 0.5,0.225 0.5,0.5 0,0.275 -0.225,0.5 -0.5,0.5 -0.275,0 -0.5,-0.225 -0.5,-0.5 z m 3.8125,-0.18311 c 0.721875,-0.28887 1.584375,-0.25335 1.916667,0.0789 0.332291,0.3323 -0.258334,0.56864 -1.3125,0.52522 -1.164943,-0.048 -1.4019,-0.28494 -0.604167,-0.60416 z M 11,109.5 c 0,-0.275 0.225,-0.5 0.5,-0.5 0.275,0 0.5,0.225 0.5,0.5 0,0.275 -0.225,0.5 -0.5,0.5 -0.275,0 -0.5,-0.225 -0.5,-0.5 z m 24,0 c 0,-0.275 0.225,-0.5 0.5,-0.5 0.275,0 0.5,0.225 0.5,0.5 0,0.275 -0.225,0.5 -0.5,0.5 -0.275,0 -0.5,-0.225 -0.5,-0.5 z m -27,-3 C 8,106.225 8.225,106 8.5,106 8.775,106 9,106.225 9,106.5 9,106.775 8.775,107 8.5,107 8.225,107 8,106.775 8,106.5 Z m 31,0 c 0,-0.275 0.225,-0.5 0.5,-0.5 0.275,0 0.5,0.225 0.5,0.5 0,0.275 -0.225,0.5 -0.5,0.5 -0.275,0 -0.5,-0.225 -0.5,-0.5 z m -29,-1 c 0,-0.275 0.225,-0.5 0.5,-0.5 0.275,0 0.5,0.225 0.5,0.5 0,0.275 -0.225,0.5 -0.5,0.5 -0.275,0 -0.5,-0.225 -0.5,-0.5 z m 23,0 c 0,-0.275 0.225,-0.5 0.5,-0.5 0.275,0 0.5,0.225 0.5,0.5 0,0.275 -0.225,0.5 -0.5,0.5 -0.275,0 -0.5,-0.225 -0.5,-0.5 z m 11,-1 c 0,-0.275 0.225,-0.5 0.5,-0.5 0.275,0 0.5,0.225 0.5,0.5 0,0.275 -0.225,0.5 -0.5,0.5 -0.275,0 -0.5,-0.225 -0.5,-0.5 z m 1,-2 c 0,-0.275 0.225,-0.5 0.5,-0.5 0.275,0 0.5,0.225 0.5,0.5 0,0.275 -0.225,0.5 -0.5,0.5 -0.275,0 -0.5,-0.225 -0.5,-0.5 z m -33,-2 c 0,-0.275 0.225,-0.5 0.5,-0.5 0.275,0 0.5,0.225 0.5,0.5 0,0.275 -0.225,0.5 -0.5,0.5 -0.275,0 -0.5,-0.225 -0.5,-0.5 z m 41,-2 C 53,98.225 53.225,98 53.5,98 53.775,98 54,98.225 54,98.5 54,98.775 53.775,99 53.5,99 53.225,99 53,98.775 53,98.5 Z m -7,-1 C 46,97.225 46.225,97 46.5,97 46.775,97 47,97.225 47,97.5 47,97.775 46.775,98 46.5,98 46.225,98 46,97.775 46,97.5 Z m -31,-1 C 15,96.225 15.225,96 15.5,96 15.775,96 16,96.225 16,96.5 16,96.775 15.775,97 15.5,97 15.225,97 15,96.775 15,96.5 Z m 7,-2 C 22,94.225 22.225,94 22.5,94 22.775,94 23,94.225 23,94.5 23,94.775 22.775,95 22.5,95 22.225,95 22,94.775 22,94.5 Z M 49.003704,91.503943 C 47.713996,90.131112 46.463333,89.203334 46.224452,89.442215 45.985571,89.681096 43.587345,87.359306 40.895061,84.282683 38.202778,81.206059 36,77.948836 36,77.044411 36,76.139985 36.54,74.86 37.2,74.2 c 0.66,-0.66 2.1225,-1.206683 3.25,-1.214851 1.27568,-0.0092 4.788448,2.904525 9.3,7.714153 3.9875,4.250953 7.25,8.282119 7.25,8.958147 0,0.676029 -1.000128,1.92966 -2.222506,2.785847 C 53.555115,93.299483 52.283557,94 51.951808,94 51.620059,94 50.293412,92.876774 49.003704,91.503943 Z M 17,90.5 C 17,90.225 17.225,90 17.5,90 17.775,90 18,90.225 18,90.5 18,90.775 17.775,91 17.5,91 17.225,91 17,90.775 17,90.5 Z m 8.333333,-2.166667 C 25.7,87.966667 26.3,87.966667 26.666667,88.333333 27.033333,88.7 26.733333,89 26,89 25.266667,89 24.966667,88.7 25.333333,88.333333 Z M 62.5,87 c 0.339919,-0.55 0.843034,-1 1.118034,-1 0.275,0 0.221885,0.45 -0.118034,1 -0.339919,0.55 -0.843034,1 -1.118034,1 -0.275,0 -0.221885,-0.45 0.118034,-1 z M 19,86.5 C 19,86.225 19.225,86 19.5,86 19.775,86 20,86.225 20,86.5 20,86.775 19.775,87 19.5,87 19.225,87 19,86.775 19,86.5 Z m 38.602403,-1.334309 c -0.319484,-0.516935 -0.02322,-0.878189 0.658359,-0.802786 0.681581,0.0754 5.033765,-3.802664 9.67152,-8.617925 8.432282,-8.75502 8.432282,-8.75502 5.522812,-12 C 70.545624,60.5 70.545624,60.5 73.958672,63.70509 c 3.413049,3.205091 3.413049,3.205091 -5.502882,12.5 -4.903761,5.1122 -9.22116,9.431163 -9.594219,9.597695 -0.373059,0.166533 -0.939685,-0.12016 -1.259168,-0.637094 z M 69,80.5 C 70.865783,78.575 72.617334,77 72.892334,77 73.167334,77 71.865783,78.575 70,80.5 68.134217,82.425 66.382666,84 66.107666,84 65.832666,84 67.134217,82.425 69,80.5 Z M 17.5,81 c 0.995486,-1.1 2.034975,-2 2.309975,-2 0.275,0 -0.314489,0.9 -1.309975,2 -0.995486,1.1 -2.034975,2 -2.309975,2 -0.275,0 0.314489,-0.9 1.309975,-2 z M 55,81.5 C 54.282451,80.635407 54.185262,80 54.770566,80 c 0.558501,0 1.274478,0.675 1.59106,1.5 0.316583,0.825 0.419828,1.5 0.229434,1.5 C 56.400666,83 55.684689,82.325 55,81.5 Z m -28,-5 C 27,76.225 27.225,76 27.5,76 27.775,76 28,76.225 28,76.5 28,76.775 27.775,77 27.5,77 27.225,77 27,76.775 27,76.5 Z m 3,0 C 30,76.225 30.225,76 30.5,76 30.775,76 31,76.225 31,76.5 31,76.775 30.775,77 30.5,77 30.225,77 30,76.775 30,76.5 Z m 19,-1 C 49,75.225 49.225,75 49.5,75 49.775,75 50,75.225 50,75.5 50,75.775 49.775,76 49.5,76 49.225,76 49,75.775 49,75.5 Z m 25,0.122445 c 0,-0.207656 0.7875,-0.995156 1.75,-1.75 1.586056,-1.243871 1.621426,-1.208501 0.377555,0.377555 -0.754844,0.9625 -1.542344,1.75 -1.75,1.75 C 74.1699,76 74,75.8301 74,75.622445 Z M 46.404508,72.845492 c -0.442079,-0.7153 -0.274316,-0.883063 0.440984,-0.440984 C 47.480471,72.796948 48,73.316476 48,73.559017 48,73.801558 47.801558,74 47.559017,74 47.316476,74 46.796948,73.480471 46.404508,72.845492 Z m 34,-2 c -0.442079,-0.7153 -0.274316,-0.883063 0.440984,-0.440984 C 81.480471,70.796948 82,71.316476 82,71.559017 82,71.801558 81.801558,72 81.559017,72 81.316476,72 80.796948,71.480471 80.404508,70.845492 Z M 53.683987,62.06507 c 7.916154,-8.119181 9.400173,-9.240113 10.75,-8.119856 C 65.295294,54.660036 66,55.655622 66,56.157628 c 0,0.502007 -0.956688,0.400736 -2.125974,-0.225047 -1.910936,-1.022702 -2.998275,-0.293718 -10.75,7.207116 C 44.5,71.484601 44.5,71.484601 53.683987,62.06507 Z M 43,67.5 C 43,67.225 43.225,67 43.5,67 43.775,67 44,67.225 44,67.5 44,67.775 43.775,68 43.5,68 43.225,68 43,67.775 43,67.5 Z m 43,-1 C 86,66.225 86.225,66 86.5,66 86.775,66 87,66.225 87,66.5 87,66.775 86.775,67 86.5,67 86.225,67 86,66.775 86,66.5 Z M 71.329527,58.13424 C 64.159055,50.445574 64.159055,50.445574 65.811144,47.722787 66.719794,46.225254 68.157769,45 69.006645,45 c 0.848875,0 4.794648,3.273082 8.768383,7.273516 C 81.748762,56.27395 85,60.020508 85,60.599202 c 0,0.578693 -1.041503,2.030611 -2.314451,3.226484 -1.272948,1.195873 -2.735448,2.134468 -3.25,2.085767 -0.514552,-0.0487 -4.162262,-3.548446 -8.106022,-7.777213 z M 45.5,64 c 0.339919,-0.55 0.843034,-1 1.118034,-1 0.275,0 0.221885,0.45 -0.118034,1 -0.339919,0.55 -0.843034,1 -1.118034,1 -0.275,0 -0.221885,-0.45 0.118034,-1 z M 48,62.5 C 48,62.225 48.225,62 48.5,62 48.775,62 49,62.225 49,62.5 49,62.775 48.775,63 48.5,63 48.225,63 48,62.775 48,62.5 Z m 41,-1 C 89,61.225 89.225,61 89.5,61 89.775,61 90,61.225 90,61.5 90,61.775 89.775,62 89.5,62 89.225,62 89,61.775 89,61.5 Z m 2,0 C 91,61.225 91.225,61 91.5,61 91.775,61 92,61.225 92,61.5 92,61.775 91.775,62 91.5,62 91.225,62 91,61.775 91,61.5 Z m 4,-1 C 95,60.225 95.225,60 95.5,60 95.775,60 96,60.225 96,60.5 96,60.775 95.775,61 95.5,61 95.225,61 95,60.775 95,60.5 Z m 5,-2 c 0,-0.275 0.225,-0.5 0.5,-0.5 0.275,0 0.5,0.225 0.5,0.5 0,0.275 -0.225,0.5 -0.5,0.5 -0.275,0 -0.5,-0.225 -0.5,-0.5 z M 85.924314,55.25 C 83.5,52.5 83.5,52.5 86,54.622719 c 1.375,1.167496 3.175,2.369469 4,2.671053 1.284456,0.46954 1.27358,0.559678 -0.07569,0.627281 -0.866627,0.04342 -2.666627,-1.158553 -4,-2.671053 z m 6.409019,1.083333 C 92.7,55.966667 93.3,55.966667 93.666667,56.333333 94.033333,56.7 93.733333,57 93,57 92.266667,57 91.966667,56.7 92.333333,56.333333 Z m 3,-1 C 95.7,54.966667 96.3,54.966667 96.666667,55.333333 97.033333,55.7 96.733333,56 96,56 95.266667,56 94.966667,55.7 95.333333,55.333333 Z M 101,52.870418 c 1.925,-1.167158 3.81822,-2.623332 4.20715,-3.235942 0.38893,-0.61261 0.56972,-2.014317 0.40176,-3.114903 -0.19418,-1.27236 -1.47982,-2.33789 -3.53045,-2.926003 -2.496373,-0.71595 -3.112068,-1.35705 -2.724952,-2.837384 0.323679,-1.237753 -0.752129,-3.384242 -3.049425,-6.084316 -1.952248,-2.294528 0.08987,-0.34687 4.538037,4.32813 4.44817,4.675 8.1034,8.900391 8.12273,9.389757 0.0193,0.489367 -0.75235,1.509346 -1.71485,2.26662 -0.9625,0.757275 -3.26746,2.044384 -5.12212,2.860243 -1.85467,0.815859 -3.654672,1.481698 -4.000004,1.479642 C 97.782544,54.994206 99.075,54.037576 101,52.870418 Z M 56,53.5 C 56,53.225 56.225,53 56.5,53 56.775,53 57,53.225 57,53.5 57,53.775 56.775,54 56.5,54 56.225,54 56,53.775 56,53.5 Z M 58,51 c 0,-0.733333 0.3,-1.033333 0.666667,-0.666667 0.366666,0.366667 0.366666,0.966667 0,1.333334 C 58.3,52.033333 58,51.733333 58,51 Z M 79.404988,49.75 C 77.5,47.5 77.5,47.5 79.75,49.404988 80.9875,50.452731 82,51.465231 82,51.654988 82,51.844744 81.844744,52 81.654988,52 c -0.189757,0 -1.202257,-1.0125 -2.25,-2.25 z M 110.5,50 c 0.33992,-0.55 0.84303,-1 1.11803,-1 0.275,0 0.22189,0.45 -0.11803,1 -0.33992,0.55 -0.84303,1 -1.11803,1 -0.275,0 -0.22189,-0.45 0.11803,-1 z M 61,47.5 C 61,47.225 61.225,47 61.5,47 61.775,47 62,47.225 62,47.5 62,47.775 61.775,48 61.5,48 61.225,48 61,47.775 61,47.5 Z m 13.509994,-3.489569 c -1.575304,-1.644263 -2.671995,-3.149258 -2.437092,-3.344434 0.234904,-0.195176 1.708919,1.15013 3.27559,2.989569 C 76.915162,45.495005 78.011853,47 77.785583,47 77.559313,47 76.085297,45.654694 74.509994,44.010431 Z M 114.5,46 c 0.33992,-0.55 0.84303,-1 1.11803,-1 0.275,0 0.22189,0.45 -0.11803,1 -0.33992,0.55 -0.84303,1 -1.11803,1 -0.275,0 -0.22189,-0.45 0.11803,-1 z M 62,45.5 C 62,45.225 62.225,45 62.5,45 62.775,45 63,45.225 63,45.5 63,45.775 62.775,46 62.5,46 62.225,46 62,45.775 62,45.5 Z m 44.96584,-6.249547 C 101.5,33.500907 101.5,33.500907 106.62034,38.335147 c 5.12033,4.834239 5.12033,4.834239 5.81135,2.080991 0.38006,-1.514287 1.38008,-3.689899 2.22225,-4.834693 1.47682,-2.007482 1.51207,-2.010376 0.99196,-0.08145 -0.29659,1.1 -0.83834,3.6875 -1.20387,5.75 -0.36554,2.0625 -0.9674,3.75 -1.33748,3.75 -0.37008,0 -3.1325,-2.587296 -6.13871,-5.749547 z M 63,43.5 C 63,43.225 63.225,43 63.5,43 63.775,43 64,43.225 64,43.5 64,43.775 63.775,44 63.5,44 63.225,44 63,43.775 63,43.5 Z m 54,0 c 0,-0.275 0.225,-0.5 0.5,-0.5 0.275,0 0.5,0.225 0.5,0.5 0,0.275 -0.225,0.5 -0.5,0.5 -0.275,0 -0.5,-0.225 -0.5,-0.5 z m -51,-3 C 66,40.225 66.225,40 66.5,40 66.775,40 67,40.225 67,40.5 67,40.775 66.775,41 66.5,41 66.225,41 66,40.775 66,40.5 Z m 51,-0.440983 c 0,-0.517541 0.375,-1.172746 0.83333,-1.456011 0.45834,-0.283266 0.83334,0.140176 0.83334,0.940983 0,0.800806 -0.375,1.456011 -0.83334,1.456011 C 117.375,41 117,40.576558 117,40.059017 Z M 68,39 c 0,-0.733333 0.3,-1.033333 0.666667,-0.666667 0.366666,0.366667 0.366666,0.966667 0,1.333334 C 68.3,40.033333 68,39.733333 68,39 Z m 5,-2 c 0,-0.733333 0.3,-1.033333 0.666667,-0.666667 0.366666,0.366667 0.366666,0.966667 0,1.333334 C 73.3,38.033333 73,37.733333 73,37 Z M 69,35.5 C 69,35.225 69.225,35 69.5,35 69.775,35 70,35.225 70,35.5 70,35.775 69.775,36 69.5,36 69.225,36 69,35.775 69,35.5 Z M 97.924314,31.25 C 95.5,28.5 95.5,28.5 98.25,30.924314 c 1.5125,1.333373 2.75,2.570873 2.75,2.75 C 101,33.853441 100.85344,34 100.67431,34 100.49519,34 99.257687,32.7625 97.924314,31.25 Z M 74,32.5 C 74,32.225 74.225,32 74.5,32 74.775,32 75,32.225 75,32.5 75,32.775 74.775,33 74.5,33 74.225,33 74,32.775 74,32.5 Z m 42.07895,-1.083333 c 0.048,-1.164943 0.28494,-1.4019 0.60416,-0.604167 0.28887,0.721875 0.25335,1.584375 -0.0789,1.916667 -0.3323,0.332291 -0.56864,-0.258334 -0.52522,-1.3125 z M 88.612315,28.117231 C 86.472789,25.884047 85.073863,25.286498 82.404071,25.465389 79.112595,25.685936 79.02031,25.602012 80.35082,23.598158 81.117038,22.444171 82.208298,21.5 82.775842,21.5 c 0.567543,0 2.9134,2.1375 5.213014,4.75 2.299615,2.6125 4.002064,4.75 3.783222,4.75 -0.218843,0 -1.640736,-1.297246 -3.159763,-2.882769 z M 75,29.5 C 75,29.225 75.225,29 75.5,29 75.775,29 76,29.225 76,29.5 76,29.775 75.775,30 75.5,30 75.225,30 75,29.775 75,29.5 Z m 45,0 c 0,-0.275 0.225,-0.5 0.5,-0.5 0.275,0 0.5,0.225 0.5,0.5 0,0.275 -0.225,0.5 -0.5,0.5 -0.275,0 -0.5,-0.225 -0.5,-0.5 z M 117,28 c 0,-0.733333 0.3,-1.033333 0.66667,-0.666667 0.36666,0.366667 0.36666,0.966667 0,1.333334 C 117.3,29.033333 117,28.733333 117,28 Z M 90.590994,23.597132 c -3.463777,-3.052428 -4.721669,-4.814215 -4.272681,-5.98426 0.349979,-0.912029 1.434031,-1.913833 2.409006,-2.226231 0.974974,-0.312398 2.718022,-1.01729 3.87344,-1.566427 1.155417,-0.549136 3.180417,-0.794613 4.5,-0.545504 2.285969,0.431543 2.272108,0.459355 -0.293599,0.589108 -1.481062,0.0749 -4.326325,1.099962 -6.322806,2.277915 -3.629967,2.141733 -3.629967,2.141733 1.155248,7 2.631868,2.672047 4.577131,4.840977 4.322806,4.819846 -0.254324,-0.02113 -2.67146,-1.985133 -5.371414,-4.364447 z m 20.565856,-5.245345 c -2.93873,-3.024353 -5.18873,-5.599624 -5,-5.722824 0.18873,-0.1232 1.46815,-0.704188 2.84315,-1.291084 1.375,-0.586896 3.4,-0.731125 4.5,-0.320511 1.1,0.410615 2.8318,1.671574 3.84845,2.802132 1.45887,1.622318 1.7038,2.911785 1.1621,6.118029 -0.37749,2.234359 -0.98429,4.028858 -1.34845,3.987776 -0.36415,-0.04108 -3.06652,-2.549166 -6.00525,-5.573518 z M 82,18.5 C 82,18.225 82.225,18 82.5,18 82.775,18 83,18.225 83,18.5 83,18.775 82.775,19 82.5,19 82.225,19 82,18.775 82,18.5 Z m 18.33333,-6.166667 c 0.36667,-0.366666 0.96667,-0.366666 1.33334,0 C 102.03333,12.7 101.73333,13 101,13 c -0.73333,0 -1.033333,-0.3 -0.66667,-0.666667 z M 104,11.5 c 0,-0.275 0.225,-0.5 0.5,-0.5 0.275,0 0.5,0.225 0.5,0.5 0,0.275 -0.225,0.5 -0.5,0.5 -0.275,0 -0.5,-0.225 -0.5,-0.5 z m 0,-2 c 0,-0.275 0.225,-0.5 0.5,-0.5 0.275,0 0.5,0.225 0.5,0.5 0,0.275 -0.225,0.5 -0.5,0.5 -0.275,0 -0.5,-0.225 -0.5,-0.5 z"
         id="path3583" />
      <path
         style="fill:#fb7f00;fill-opacity:1;stroke-width:0.0625"
         d="m 380.93242,402.85469 c -0.2955,-0.0647 -0.29846,-0.25658 -0.36417,-0.72055 -0.0451,-0.31811 -0.0698,-0.62796 -0.005,-0.87683 0.34245,-1.31474 1.78502,-4.4853 3.69323,-7.43577 2.53034,-3.91243 7.98974,-11.38121 11.80481,-16.14967 3.15866,-3.94801 4.24068,-4.96399 3.96647,-5.47636 -0.11437,-0.21369 -0.51662,-0.12505 -1.31666,-0.18171 -2.34304,-0.16604 -4.67139,-1.27637 -5.04312,-2.24975 -0.2268,-0.59386 0.2263,-1.80834 0.8786,-2.43054 0.98836,-0.94273 3.36638,-2.07657 5.78939,-2.89078 3.10008,-1.04173 5.64183,-2.60543 7.09817,-2.45594 1.13274,0.11628 0.8875,-0.85286 3.06387,0.36325 1.37676,0.7693 2.60829,2.87515 2.68501,2.751 0.0328,-0.0531 0.92515,0.82576 2.7647,2.7228 3.8588,3.97938 4.34747,4.43048 4.43517,4.54478 0.21107,0.27504 1.06954,0.73357 1.30301,1.17165 0.10244,0.1922 0.57039,0.57354 0.77076,0.81877 0.47721,0.58405 -0.27603,0.91937 -0.28206,2.0308 -0.004,0.6492 -0.31317,1.14709 -0.43751,1.86585 -0.52396,3.02862 -2.4965,8.76782 -3.46399,10.63549 -0.52822,1.0197 -1.90862,2.01886 -2.63734,2.01886 -0.57905,0 -1.55185,-0.6785 -2.13027,-1.53441 -0.13821,-0.20451 -0.46042,-0.75052 -0.66201,-1.14583 -0.66683,-1.30764 -1.28866,-2.16642 -1.71104,-2.27243 -0.35895,-0.0901 -0.91845,0.34678 -1.57454,1.14549 -0.6122,0.7453 -2.57957,1.76866 -5.93287,3.31575 -3.38145,1.56007 -8.01166,4.18856 -13.70152,7.7781 -3.67435,2.31803 -5.99917,3.7112 -7.24531,4.34184 -0.52698,0.26669 -0.68047,0.57012 -1,0.56519 -0.20112,-0.003 -0.13802,-0.11605 -0.24575,-0.13963 z m 7.69648,-9.12739 c 1.25771,-0.42677 3.57451,-1.44367 6.47275,-2.84103 0.95816,-0.46197 1.93897,-0.91048 2.1796,-0.99668 0.24062,-0.0862 1.29531,-0.37366 2.34375,-0.63878 2.44428,-0.61808 3.73207,-1.07614 5.38131,-1.91409 1.33522,-0.67841 2.46763,-1.51047 3.11869,-2.29151 0.30015,-0.36009 0.58171,-0.52743 1.5,-0.89156 0.62991,-0.24978 1.71827,-0.96205 2.6059,-1.70541 1.12588,-0.94289 1.2661,-1.04199 1.47431,-1.04199 0.16435,0 0.29476,0.10326 0.85376,0.67597 0.83063,0.85101 0.96153,0.91635 1.73415,0.8656 0.81489,-0.0535 1.03225,-0.19185 1.48411,-0.94444 0.63791,-1.06245 1.03936,-2.84313 1.04501,-4.6352 0.003,-1.09791 -0.0803,-1.54206 -0.33951,-1.80132 -0.15788,-0.15787 -0.19357,-0.24743 -0.20544,-0.51549 -0.0339,-0.76616 -0.78411,-1.85391 -2.75096,-3.98887 -2.33657,-2.53629 -3.26329,-3.30195 -4.00165,-3.3062 -0.25661,-0.001 -0.33002,-0.0261 -0.375,-0.12574 -0.22668,-0.50221 -2.51379,-0.86085 -4.60281,-0.72178 -2.05663,0.13692 -3.56075,0.46971 -4.39858,0.9732 -0.51044,0.30675 -0.65773,0.45675 -0.63551,0.64721 0.0283,0.24287 0.34875,0.31079 1.76274,0.37362 2.02079,0.0898 2.94482,0.36506 2.82521,0.84163 -0.11792,0.46982 -2.92805,4.35466 -6.02491,8.32908 -3.29447,4.22802 -8.23126,10.27865 -10.01145,12.27023 -1.27004,1.42085 -1.48502,1.67002 -1.74821,2.02629 -0.50366,0.68178 -0.75636,1.32518 -0.58699,1.49454 0.0836,0.0836 0.38398,0.0377 0.89973,-0.13728 z"
         id="path12335"
         transform="translate(-374.18237,-282.88385)"
         sodipodi:nodetypes="sscsssssssssssssscssssssssssssssssssssssssscssscsssssssssss" />
      <path
         style="fill:url(#linearGradient6697);fill-opacity:1;stroke-width:0.0966092"
         d="m 432.40952,368.55823 c -0.24391,-0.21066 -0.50295,-0.36841 -0.87579,-0.92245 -0.85936,-1.27698 -2.95918,-3.77883 -6.71408,-7.78352 -2.56208,-2.73251 -3.21111,-3.5175 -3.68174,-4.45523 -0.3341,-0.6657 -0.38124,-0.79823 -0.37918,-1.56138 0.002,-0.70354 0.15248,-0.97348 0.38148,-1.4438 0.74763,-1.53529 2.05358,-3.04381 7.35602,-8.3055 4.26083,-4.22809 5.65697,-5.41768 6.99635,-6.08286 0.78306,-0.38888 0.89139,-0.45738 1.6688,-0.45829 0.76091,-8.9e-4 0.87359,0.10477 1.55842,0.38886 0.42355,0.1757 1.03124,0.59374 1.41439,0.86276 1.47505,1.03568 6.8102,6.46861 7.99085,7.85219 2.33467,2.73598 2.02152,4.3593 -1.97876,8.74297 -2.88761,3.16436 -12.82915,13.29804 -13.0396,13.27956 -0.0521,0.043 -0.15906,0.0559 -0.24504,0.049 -0.26805,-0.0216 -0.35327,-0.0769 -0.45212,-0.16231 z"
         id="path4613"
         transform="translate(-374.18237,-282.88385)"
         sodipodi:nodetypes="ssssssssssssscss" />
      <path
         style="display:inline;fill:#0b0b0b"
         d="m 5.131049,123.3281 c -0.3810887,-0.0723 -1.5666709,-0.51955 -1.7406389,-0.69532 -0.2086995,-0.21087 -0.3991918,-0.47837 -0.5551342,-1.10916 -0.236963,-0.95852 -0.1434202,-1.49218 0.168462,-3.77362 0.2421071,-1.77103 1.0145559,-4.78881 2.25,-6.66957 1.235444,-1.88076 2.6962619,-4.13076 3.2462619,-5 0.55,-0.86924 2.9125002,-4.09632 5.2500002,-7.171299 2.3375,-3.074977 4.25,-6.337477 4.25,-7.25 C 18,90.746609 17.44753,90.461113 17,90 c -0.383052,-0.394678 -1,-1.534998 -1,-3.411106 0,-2.556387 0.745706,-4.038577 2.976045,-5.915284 1.636825,-1.377297 4.309069,-2.796958 5.938319,-3.154801 1.629251,-0.357844 5.35253,-2.845972 8.273955,-5.529174 3.821935,-3.510282 5.890663,-4.736557 7.376036,-4.372278 1.582552,0.388112 3.974819,-1.417061 10.25,-7.734513 C 55.31646,55.350413 59,51.520156 59,51.371162 c 0,-0.148994 1.423239,-2.379739 3.162754,-4.957211 1.739515,-2.577472 3.916287,-4.883366 4.837271,-5.124209 1.159587,-0.303238 2.024263,-2.318564 2.811871,-6.553707 0.974485,-5.240031 1.815802,-6.804617 5.875137,-10.925923 2.605781,-2.645562 4.915492,-4.793286 5.215077,-5.049208 0.359858,-0.307408 1.683641,-2.378208 3.966435,-4.036297 2.196958,-1.595743 5.263961,-3.321189 6.765237,-3.699572 1.501275,-0.378383 5.238748,-1.3002443 8.263748,-1.7563533 3.025,-0.4561088 8.20998,-0.8548396 11.43109,-0.9885381 5.51329,-0.2288404 5.92397,-0.4123273 8.71584,2.2624554 2.03064,1.94547 2.95554,3.802574 2.95554,5.934393 0,1.706546 -0.675,5.69431 -1.5,8.861699 -0.825,3.167389 -1.15413,7.070766 -1.5,8.587654 -0.35864,1.572899 -1.06513,3.189135 -1.38595,4.229019 -0.32508,1.053638 -0.45174,2.104448 -0.84826,3.058726 -0.44145,1.062402 -0.77555,4.700243 -5.61688,9.587241 -5.0914,5.139433 -10.1379,6.969781 -13.64937,8.315279 -2.749747,1.053625 -6.062068,2.010705 -7.360714,2.126845 -1.308292,0.117002 -2.714312,1.113109 -3.153118,2.233854 C 87.550139,64.589789 85.507587,67.075 83.446705,69 c -2.060882,1.925 -2.29774,0.564777 -2.961216,1.227126 -0.964966,0.963327 0.0011,-0.02873 -1.563595,1.246017 C 77.589852,72.558372 73.2375,76.682592 69.25,80.638076 65.2625,84.59356 62,88.679871 62,89.718766 62,90.757661 60.516077,93.045941 58.702393,94.803833 56.888709,96.561725 54.964257,98 54.425832,98 53.887408,98 52.221331,99.890076 50.72344,102.20017 49.225548,104.51026 48,106.93016 48,107.57772 c 0,0.64757 -0.704272,1.76188 -1.565049,2.47627 -0.860776,0.71438 -2.773276,1.3733 -4.25,1.46427 -1.476723,0.091 -3.431611,-0.4712 -4.344197,-1.24928 -1.452122,-1.2381 -2.388346,-1.05285 -7.5,1.48396 -3.212414,1.59425 -8.925536,4.84724 -12.695825,7.22885 -3.770289,2.38162 -8.1817492,4.55066 -9.814314,4.563 -2.2749692,0.0172 -1.1951262,0.0685 -2.699566,-0.21669 z m 11.339667,-8.60162 c 4.392488,-2.81434 10.313005,-5.98279 13.137608,-7.23197 2.824603,-1.24917 5.444807,-2.77146 5.822676,-3.38287 C 35.808869,103.50024 36.469245,103 36.898502,103 c 0.429257,0 1.293052,1.125 1.919544,2.5 0.626492,1.375 1.807891,2.5 2.625331,2.5 0.817441,0 1.985051,-0.93201 2.594689,-2.07113 0.609639,-1.13912 1.764533,-4.59006 2.566431,-7.668751 1.001448,-3.844822 2.057737,-6.424047 1.331619,-7.114129 -0.629685,-0.598435 -1.1585,-1.265229 -1.715145,-1.643566 -0.585823,-0.398168 0.843758,0.397513 2.469184,1.95477 2.858242,2.738369 3.304075,2.776606 5.765165,1.164038 C 55.854894,91.704196 57,90.385637 57,89.6911 c 0,-0.694536 -3.210628,-5.130768 -7.233768,-9.416945 -5.713249,-6.086788 -7.858906,-7.393012 -9.710372,-7.120404 -1.293383,0.190437 -2.84428,1.132194 -3.446438,2.092793 -0.807882,1.288784 -0.769126,2.268083 0.147873,3.736431 0.683488,1.094438 1.361651,2.122739 1.516143,2.299404 0.09375,0.107205 0.904395,1.154538 0.641031,0.876757 -0.345895,-0.36483 -1.959394,-2.472307 -2.92564,-2.837024 -2.268363,-0.856212 -4.949436,0.70626 -9.387417,2.102172 -3.100123,0.975108 -6.084393,2.609658 -6.631712,3.632333 -0.777932,1.453578 -0.570184,2.08683 0.951846,2.901396 C 21.99238,88.531106 23.796275,89 24.9302,89 c 1.762917,0 1.329089,0.905712 -2.993697,6.25 -2.780459,3.4375 -7.556199,9.92042 -10.612757,14.40648 -3.0565569,4.48606 -5.0594258,8.56571 -4.8815443,9.25 0.084977,0.3269 -9.388e-4,0.68205 0.2256156,0.87489 0.2677387,0.2279 0.935347,0.21854 1.1411997,0.2185 0.3800406,-7e-5 4.269211,-2.45904 8.661699,-5.27339 z M 68.468794,76.191602 c 8.928934,-9.308398 7.608851,-8.554607 0.46412,-15.727294 -7.178304,-7.206392 -6.089813,-7.793895 -15.121838,1.238129 -9.032024,9.032025 -9.032024,9.032025 -3.17155,15.261177 3.223261,3.426033 6.234506,6.886102 6.691656,7.689041 0.45715,0.80294 1.141118,1.322068 1.51993,1.153618 0.378811,-0.16845 4.706768,-4.495052 9.617682,-9.614671 z M 82.685549,63.825686 C 83.958497,62.629813 85,61.177895 85,60.599202 85,60.020508 81.202258,56.717985 77.228524,52.717551 73.254789,48.717117 69.85552,45 69.006645,45 c -0.848876,0 -2.286851,1.225254 -3.195501,2.722787 -1.652089,2.722787 -1.652089,2.722787 5.518383,10.411453 3.94376,4.228767 7.59147,7.728513 8.106022,7.777213 0.514552,0.0487 1.977052,-0.889894 3.25,-2.085767 z m 14.491712,-8.457664 c 4.013049,-1.447587 8.300729,-3.360087 9.528169,-4.25 1.22745,-0.889912 2.24586,-2.112861 2.26315,-2.717665 0.0173,-0.604803 -5.85667,-7.089455 -13.05322,-14.410336 C 82.830719,20.679328 82.830719,20.679328 78.996988,25.089664 c -2.61729,3.010939 -4.315924,6.297432 -5.353412,10.357703 -1.519682,5.947367 -1.519682,5.947367 2.070102,10 1.974381,2.228948 5.659005,5.944968 8.188053,8.257821 2.529048,2.312854 4.90895,4.225354 5.288672,4.25 0.379721,0.02465 3.973808,-1.139578 7.986858,-2.587166 z M 115.70144,35.75 c 1.19013,-5.0875 2.43938,-11.740074 2.77612,-14.783499 0.55059,-4.976219 0.36903,-5.761997 -1.80285,-7.802371 -1.32831,-1.24788 -3.26102,-2.233502 -4.29491,-2.190272 -1.03389,0.04323 -3.2298,0.231524 -4.8798,0.418431 -1.65,0.186907 -5.25,0.65596 -8,1.04234 -2.75,0.386379 -5.831687,1.319943 -6.931687,1.782358 -1.1,0.462415 -2.729394,1.130508 -3.704368,1.442906 -0.974975,0.312398 -2.003256,1.087093 -2.326816,1.930278 -0.403811,1.052315 3.430748,5.501386 12.601898,14.411991 7.348533,7.139769 13.594423,12.985098 13.879753,12.989618 0.28533,0.0045 1.49253,-4.15428 2.68266,-9.24178 z"
         id="path3581"
         sodipodi:nodetypes="ssssssssssssssssssssssssssssssssssssssssssssssssssssssssssssssssssssssssssssssssssssssssssssssssssssssssssssssssssssss" />
    </g>
    <path
       style="fill:#59514b;fill-opacity:1;stroke-width:0.0883883"
       d="m 453.02114,348.34706 c -1.24388,-0.93632 -4.59015,-4.27556 -8.56172,-8.54373 -4.09511,-4.40094 -5.02071,-5.57404 -5.26724,-6.67566 -0.133,-0.5943 0.0197,-1.10168 0.64938,-2.1575 1.02585,-1.72015 2.43149,-2.99715 3.30579,-3.00327 0.49555,-0.003 1.2989,0.70729 5.06996,4.48558 2.01746,2.02132 5.15617,5.1299 6.97491,6.90795 1.81873,1.77804 3.45735,3.42266 3.64137,3.65471 0.33294,0.41984 0.33397,0.42364 0.20914,0.77744 -0.33079,0.93755 -1.95554,2.79077 -3.39007,3.86676 -0.78998,0.59255 -1.66431,1.07688 -1.94399,1.07688 -0.0938,0 -0.40319,-0.17512 -0.68753,-0.38916 z"
       id="path10418"
       transform="scale(0.26458333)" />
    <path
       style="fill:#59514b;fill-opacity:1;stroke-width:0.03125"
       d="m 426.07812,376.54754 c -0.53375,-0.11747 -1.07357,-0.48479 -2.0625,-1.40346 -0.12031,-0.11177 -0.46539,-0.436 -0.76685,-0.72052 -1.41401,-1.33456 -2.44831,-2.09155 -2.86205,-2.09469 -0.0857,-6.5e-4 -0.14717,-0.0555 -0.5,-0.446 -0.74142,-0.82048 -1.97488,-2.10476 -5.2299,-5.44537 -2.22862,-2.28722 -2.21932,-2.27745 -2.21932,-2.33181 0,-0.0691 -0.22114,-0.41463 -0.68786,-1.07495 -1.17111,-1.65687 -1.50741,-2.36789 -1.50741,-3.18699 0,-0.89486 0.52499,-1.88931 1.34769,-2.55283 0.78338,-0.6318 1.8079,-1.10777 2.65712,-1.23444 0.67101,-0.10009 1.67323,-0.0682 2.49016,0.38628 1.50679,0.83833 3.39148,3.04873 7.51481,7.47911 3.18518,3.42238 6.20212,7.11132 6.78546,8.29688 0.10772,0.21892 0.12157,0.27175 0.11143,0.42497 -0.0451,0.68076 -1.20705,1.9795 -2.57926,2.88283 -1.13256,0.74556 -1.66641,1.00133 -2.15928,1.03454 -0.11398,0.008 -0.26349,0.002 -0.33224,-0.0135 z"
       id="path11607"
       transform="scale(0.26458333)"
       sodipodi:nodetypes="cssscsscssscsscsccc" />
    <path
       style="fill:url(#linearGradient16164);fill-opacity:1;stroke-width:0.125"
       d="m 462.43682,340.16243 c -1.99325,-1.45788 -5.26186,-4.4491 -8.93752,-8.17901 -4.65965,-4.72844 -6.06406,-6.44754 -6.43701,-7.8794 -0.25368,-0.97391 -0.10801,-2.06018 0.69274,-5.16615 1.29386,-5.01858 3.02849,-8.27867 6.27749,-11.79799 1.66558,-1.80416 2.54379,-2.0845 4.05788,-1.29533 1.38124,0.71992 2.75791,1.94012 7.57826,6.71698 7.82294,7.75235 15.61354,16.04274 17.12461,18.22322 l 0.34907,0.50371 -0.25344,0.49679 c -0.382,0.74879 -1.63588,1.92864 -2.72811,2.56706 -2.46404,1.44025 -9.67941,4.31025 -14.60005,5.80734 -2.402,0.7308 -2.12889,0.73056 -3.12392,0.003 z"
       id="path15402"
       transform="scale(0.26458333)" />
    <path
       style="fill:#6e6e6d;fill-opacity:1;stroke-width:0.125"
       d="m 485.92618,326.72562 c -4.86983,-4.3292 -18.56825,-17.70215 -21.57848,-21.06578 -2.55621,-2.85631 -3.70375,-4.53279 -3.54248,-5.17535 0.11506,-0.45844 1.04051,-1.31891 1.75755,-1.63415 1.72033,-0.75634 5.54013,-2.17921 6.75389,-2.51582 2.0328,-0.56375 3.51585,-0.83921 7.12084,-1.3226 6.81198,-0.91342 9.86604,-1.18651 10.83376,-0.96876 1.93155,0.43464 4.89819,2.9257 5.35592,4.49732 0.54328,1.86538 -0.008,6.62863 -1.76442,15.23399 -1.15165,5.64366 -3.08156,13.10542 -3.59217,13.88865 -0.0784,0.12026 -0.43167,-0.12608 -1.34441,-0.9375 z"
       id="path15404"
       transform="scale(0.26458333)" />
    <path
       style="display:inline;fill:#ff0000;fill-opacity:1;stroke-width:0.264583"
       d="m 126.93691,77.700147 c 3.21498,3.285971 3.3994,3.467217 3.3994,3.467217"
       id="path16948"
       sodipodi:nodetypes="cc" />
    <path
       style="display:inline;fill:#00ff00;fill-opacity:1;stroke-width:0.264583"
       d="m 126.47194,77.805499 4.25627,3.788545"
       id="path17191" />
    <path
       style="display:inline;fill:#494a4a;fill-opacity:1;stroke-width:0.0110485"
       d="m 486.40108,300.43354 c -3.19939,-3.26336 -5.81848,-5.93667 -5.82022,-5.9407 -0.002,-0.004 0.0231,-0.0105 0.0553,-0.0144 3.31384,-0.4019 5.30706,-0.55542 6.2511,-0.48147 0.43798,0.0343 0.87215,0.16659 1.4358,0.43745 1.6609,0.79813 3.5246,2.46679 4.13188,3.69948 0.19279,0.39133 0.27908,0.7649 0.33817,1.46393 0.0241,0.28535 0.0331,1.04401 0.0173,1.45841 -0.0512,1.34195 -0.22082,2.91036 -0.54277,5.02052 -0.024,0.15742 -0.045,0.28711 -0.0465,0.28819 -0.002,10e-4 -2.62056,-2.66806 -5.81994,-5.93141 z"
       id="path17396"
       transform="scale(0.26458333)" />
  </g>
</svg>
