<?xml version="1.0" encoding="UTF-8" standalone="no"?>
<!-- Created with Inkscape (http://www.inkscape.org/) -->

<svg
   version="1.1"
   id="svg104486"
   width="64"
   height="64"
   viewBox="0 0 64 64"
   sodipodi:docname="spy.svg"
   inkscape:version="1.2.1 (9c6d41e410, 2022-07-14)"
   xmlns:inkscape="http://www.inkscape.org/namespaces/inkscape"
   xmlns:sodipodi="http://sodipodi.sourceforge.net/DTD/sodipodi-0.dtd"
   xmlns="http://www.w3.org/2000/svg"
   xmlns:svg="http://www.w3.org/2000/svg">
  <defs
     id="defs104490" />
  <sodipodi:namedview
     id="namedview104488"
     pagecolor="#ffffff"
     bordercolor="#000000"
     borderopacity="0.25"
     inkscape:showpageshadow="2"
     inkscape:pageopacity="0.0"
     inkscape:pagecheckerboard="0"
     inkscape:deskcolor="#d1d1d1"
     showgrid="false"
     inkscape:zoom="2.8367135"
     inkscape:cx="-120.20953"
     inkscape:cy="26.615307"
     inkscape:window-width="2498"
     inkscape:window-height="1421"
     inkscape:window-x="62"
     inkscape:window-y="0"
     inkscape:window-maximized="1"
     inkscape:current-layer="svg104486" />
  <g
     inkscape:groupmode="layer"
     inkscape:label="Image"
     id="g104492">
    <ellipse
       style="fill:#7c7c7c;fill-opacity:1;stroke-width:0.5"
       id="path106014"
       cx="29.225454"
       cy="12.273232"
       rx="11.387578"
       ry="9.8474379" />
    <ellipse
       style="fill:#7c7c7c;fill-opacity:1;stroke-width:0.500084"
       id="path106035"
       cx="11.328314"
       cy="56.635323"
       rx="8.693532"
       ry="3.4719343"
       transform="matrix(0.77452142,-0.63254768,0.65244428,0.7578367,0,0)"
       inkscape:transform-center-x="-2.7991594"
       inkscape:transform-center-y="-2.1741357" />
    <ellipse
       style="fill:#7c7c7c;fill-opacity:1;stroke-width:0.5"
       id="path106029"
       cx="18.507332"
       cy="33.753849"
       rx="2.291384"
       ry="2.2032537" />
    <ellipse
       style="fill:#7c7c7c;fill-opacity:1;stroke-width:0.5"
       id="path106032"
       cx="32.82848"
       cy="57.482895"
       rx="6.7419562"
       ry="2.9303274" />
    <ellipse
       style="fill:#7c7c7c;fill-opacity:1;stroke-width:0.5"
       id="path106026"
       cx="22.473188"
       cy="37.146858"
       rx="6.8741522"
       ry="4.098052" />
    <ellipse
       style="fill:#7c7c7c;fill-opacity:1;stroke-width:0.5"
       id="path106020"
       cx="32.049973"
       cy="37.133495"
       rx="6.4629045"
       ry="5.9621506" />
    <path
       style="display:inline;fill:#616161;fill-opacity:1"
       d="M 26.371142,62.234687 C 23.601737,60.432294 18.317165,52.006664 16.709337,46.83007 c -0.968582,-3.118461 -2.866646,-6.718461 -4.21792,-8 -1.980386,-1.878182 -2.460214,-3.324496 -2.47414,-7.457625 -0.01054,-3.128338 0.514302,-5.568727 1.346107,-6.259064 0.749861,-0.622329 1.658347,-3.641187 2.018858,-6.708572 1.15211,-9.8026589 4.32901,-12.8159113 14.336599,-16.0966509 4.966396,-1.62810972 6.12562,-1.2230464 10.5,0 C 48.513399,5.186445 51.5832,8.7188883 52.64947,18.920411 c 0.380455,3.64 1.15618,6.174768 1.987289,6.493695 2.58966,0.993745 1.690323,9.151689 -1.493395,13.546684 -1.57115,2.168909 -3.460671,6.102513 -4.198935,8.741341 -1.229224,4.393699 -6.59223,12.760143 -9.315571,14.532556 C 39.007986,62.638765 36.025,62.969374 33,62.969374 c -3.025,0 -6.007986,-0.330609 -6.628858,-0.734687 z m 10.664032,-3.777069 c 2.098348,-2.528355 -0.21401,-3.807847 -5.459992,-3.021163 -4.417325,0.662419 -6.191952,2.744497 -3.325182,3.901264 2.673239,1.078676 7.566359,0.588482 8.785174,-0.880101 z m 3.180073,-6.94644 c 5.309012,-2.716231 1.673875,-11.090456 -3.18703,-8.40024 -3.214201,1.778864 -5.479653,1.695947 -7.885315,-0.124337 -4.20444,-3.181355 -7.196644,3.87481 -3.311334,8.010533 2.979556,3.171592 9.0049,3.265969 13.043854,1.199533 z M 34.8,41.8 C 35.46,41.14 36,38.713145 36,36.406989 36,31.208593 34.057031,30.1836 29.519221,32.988121 25.649134,35.379966 22.706949,35.556748 21,33.5 c -2.065574,-2.488864 -4,-1.790876 -4,1.443296 0,3.906154 3.324372,6.274079 7.665057,5.459761 2.148414,-0.403045 3.968295,-0.07285 5.495979,0.997184 C 32.898,43.317285 33.252193,43.347807 34.8,41.8 Z M 48.443296,37.777494 C 50.078078,35.443515 50.589722,30 49.174314,30 48.720187,30 47.291745,31.125 46,32.5 44.708255,33.875 43.054813,35 42.325686,35 c -1.365643,0 -1.84439,3.147963 -0.659019,4.333333 1.439073,1.439074 5.299747,0.552706 6.776629,-1.555839 z M 28.560857,31.529698 c 3.228691,-2.525519 6.344294,-1.941957 9.726497,0.890595 3.048775,2.553311 5.844354,0.311724 8.081019,-3.245965 0.986349,-1.568908 0.774808,-2.924311 -0.60091,-4.444462 C 44.263949,23.068497 42.265389,22.688413 33,22.688413 c -9.265389,0 -11.606695,0.317766 -13.110209,1.97913 -1.941945,2.145826 -0.724093,5.617938 2.467409,7.477332 2.302347,1.341364 3.314473,1.644776 6.203657,-0.615177 z M 32.125423,17.266839 C 36.265085,14.821481 37.92852,9.0660464 35.546379,5.4304391 34.071973,3.1802114 33.286961,2.8540255 30.452762,3.3139528 25.242338,4.1594881 19.923551,7.0736819 18.703477,9.7514526 15.777412,16.173466 25.120311,21.404861 32.125423,17.266839 Z"
       id="path104978"
       sodipodi:nodetypes="ssssssssssssssssssssssssssssssssssssssssssssssssssss" />
    <path
       style="display:inline;fill:#000000"
       d="M 26.371142,62.234687 C 23.601737,60.432294 18.317165,52.006664 16.709337,46.83007 c -0.968582,-3.118461 -2.866646,-6.718461 -4.21792,-8 -1.980386,-1.878182 -2.460214,-3.324496 -2.47414,-7.457625 -0.0106,-3.145317 0.513403,-5.567981 1.35546,-6.266826 0.755006,-0.626599 1.672812,-3.791574 2.039569,-7.033277 0.803043,-7.097961 3.633075,-11.6476469 8.952989,-14.393226 9.909527,-5.1142538 23.853528,-1.9579996 28.162505,6.374643 0.823692,1.592845 1.778443,5.582838 2.12167,8.866652 0.380455,3.64 1.15618,6.174768 1.987289,6.493695 2.50992,0.963146 1.650813,8.457543 -1.547359,13.498347 C 51.48857,41.435604 49.590196,45.525 48.870791,48 47.656143,52.178806 42.223818,60.545827 39.628858,62.234687 39.007986,62.638765 36.025,62.969374 33,62.969374 c -3.025,0 -6.007986,-0.330609 -6.628858,-0.734687 z m 12.154697,-2 c 2.53258,-1.813788 7.213451,-9.116233 8.333964,-13.001495 0.676803,-2.346745 2.560222,-6.237006 4.185374,-8.645025 C 54.31302,33.746144 54.971219,28.05093 52.5,26 51.675,25.315311 50.989265,23.347711 50.976143,21.627555 50.900765,11.745625 46.965858,6.1224062 38.426334,3.693123 33.534718,2.3015795 32.465282,2.3015795 27.573666,3.693123 19.034142,6.1224062 15.099235,11.745625 15.023857,21.627555 15.010735,23.347711 14.325,25.315311 13.5,26 10.905822,28.152976 11.613999,34.724718 14.885385,38.856096 16.472347,40.860243 18.355766,44.525 19.07076,47 c 1.177667,4.076577 5.816066,11.381685 8.403401,13.234687 0.564211,0.404078 3.050839,0.734687 5.525839,0.734687 2.475,0 4.961628,-0.330609 5.525839,-0.734687 z M 24.687091,52.195281 c -3.549505,-3.704885 -3.654167,-8.515522 -0.234023,-10.756487 2.262234,-1.482273 2.676766,-1.475172 5.32856,0.09128 2.695844,1.592474 3.07839,1.593672 6.123129,0.01918 2.978162,-1.540067 3.448755,-1.547642 5.671441,-0.09128 3.390387,2.221467 3.272055,7.047207 -0.263289,10.737311 C 38.992321,54.617453 37.85849,55 33,55 28.14151,55 27.007679,54.617453 24.687091,52.195281 Z m 15.95893,-1.725864 c 1.745262,-2.386788 1.73299,-5.909976 -0.02567,-7.369534 -1.055901,-0.87632 -2.111868,-0.729059 -4.5,0.627555 -2.986893,1.696749 -3.253809,1.696749 -6.240702,0 -2.388132,-1.356614 -3.444099,-1.503875 -4.5,-0.627555 -2.147471,1.782242 -1.628192,5.765273 1.078694,8.27393 2.150034,1.992584 3.108947,2.194851 7.646021,1.612798 3.317788,-0.425632 5.675717,-1.332951 6.541657,-2.517194 z M 19.923077,32.076923 C 16.358415,28.512261 16.257318,26.651773 19.454545,23.454545 21.765524,21.143567 22.5578,21 33,21 c 10.4422,0 11.234476,0.143567 13.545455,2.454545 2.98349,2.983491 3.066149,4.498209 0.42846,7.851488 -2.968827,3.774251 -5.38048,4.155466 -9.970045,1.575986 L 33,30.631718 29.113845,32.815859 c -5.011813,2.816797 -5.689523,2.762309 -9.190768,-0.738936 z M 29.013428,30.75 l 3.909665,-2.25 4.501569,2.458965 4.501569,2.458965 2.536885,-2.383279 c 2.934406,-2.756732 3.160222,-4.268455 0.965455,-6.463222 -2.281412,-2.281413 -22.57573,-2.281413 -24.857142,0 -2.105797,2.105796 -1.98185,3.362795 0.602885,6.11412 2.678572,2.851209 2.992283,2.853788 7.839114,0.06445 z"
       id="path104976" />
  </g>
</svg>
